<svg xmlns="http://www.w3.org/2000/svg" version="1.1" id="svg931" width="50" height="50">
  <g id="g1518" transform="matrix(.82136 0 0 .78846 14.038 3.843)" stroke-width=".32">
    <path d="M3.537 53.68c-.159-.396-.523-4.392-.81-8.88-.66-10.343-.687-10.518-1.649-10.759-.706-.177-.758-.342-.758-2.396V29.44h1.901c1.046 0 1.995-.152 2.11-.339.116-.186-.14-.87-.57-1.52-1.478-2.24-1.76-2.798-2.623-5.185-1.072-2.965-1.4-6.989-.821-10.058.223-1.182.588-2.22.812-2.306.412-.158 2.654.9 4.55 2.146.796.524 1.068.582 1.165.252.07-.236.384-1.438.696-2.67.674-2.659 2.525-6.37 4.191-8.403l1.197-1.461 1.37 1.555c1.674 1.903 3.368 5.276 4.236 8.435.358 1.3.711 2.426.785 2.5.074.074 1.105-.53 2.29-1.34 1.186-.812 2.389-1.433 2.674-1.38.962.182 1.7 4.088 1.527 8.094-.17 3.917-.747 5.97-2.625 9.328L22.05 29.12h.955c.525 0 1.324.14 1.775.312.756.288.821.465.821 2.247 0 1.745-.077 1.97-.787 2.293-1.006.459-.965.13-1.989 15.948-.108 1.672-.316 3.364-.463 3.76l-.265.72H3.826z" id="path1530" fill="#fa9160"/>
    <path d="M12.8 45.136v-9.28l-5.2-.088-5.2-.088-.1-1.04-.1-1.04h10.6v-3.433l-1.485-.204c-.816-.111-2.537-.203-3.823-.203H5.154l-1.081-1.68c-1.905-2.959-2.054-3.248-2.935-5.684-1.072-2.965-1.4-6.989-.821-10.058.223-1.182.588-2.22.812-2.306.412-.158 2.654.9 4.55 2.146.796.524 1.068.582 1.165.252.07-.236.384-1.438.696-2.67.674-2.659 2.525-6.37 4.191-8.403l1.197-1.461 1.37 1.555c1.674 1.903 3.368 5.276 4.236 8.435.358 1.3.711 2.426.785 2.5.074.074 1.105-.53 2.29-1.34 1.186-.812 2.389-1.433 2.674-1.38.962.182 1.7 4.088 1.527 8.094-.169 3.908-.747 5.97-2.61 9.3-.616 1.102-1.12 2.153-1.12 2.334 0 .182.684.375 1.52.428l1.52.098.096 1.66c.08 1.383-.01 1.717-.534 1.998-.347.185-.78.806-.962 1.38-.277.872-.85 7.65-1.457 17.202l-.132 2.08-4.665.089-4.666.088z" id="path1528" fill="#e58456"/>
    <path d="M12.64 35.52c-.352-.151-2.764-.285-5.36-.298-3.873-.018-4.72-.104-4.72-.48 0-.475.248-.491 15.764-1.005 5.43-.18 5.851-.06 5.05 1.438-.338.63-.611.664-5.225.643-2.678-.013-5.157-.147-5.509-.298zm-4.693-6.08c-1.702-.088-3.147-.232-3.212-.32-.18-.244-1.69-2.617-2.242-3.524-1.139-1.874-2.225-5.65-2.402-8.352-.198-3.025.368-6.954 1.038-7.212.412-.158 2.654.9 4.55 2.146.796.524 1.068.582 1.165.252.07-.236.384-1.438.696-2.67.674-2.659 2.525-6.37 4.191-8.403l1.197-1.461 1.37 1.555c1.674 1.903 3.368 5.276 4.236 8.435.358 1.3.711 2.426.785 2.5.074.074 1.105-.53 2.29-1.34 1.186-.812 2.389-1.433 2.674-1.38.345.066.71.84 1.098 2.336.773 2.98.583 8.413-.391 11.166-.736 2.079-2.643 5.652-3.314 6.209-.435.36-7.362.392-13.73.063z" id="path1526" fill="#cd7046"/>
    <path d="M5.12 29.221c-.454-.112-.701-.453-2.457-3.399C1.303 23.542.28 20.13.091 17.244c-.198-3.025.368-6.954 1.038-7.212.412-.158 2.654.9 4.55 2.146.796.524 1.068.582 1.165.252.07-.236.384-1.438.696-2.67.674-2.659 2.525-6.37 4.191-8.403l1.197-1.461 1.37 1.555c1.674 1.903 3.368 5.276 4.236 8.435.358 1.3.711 2.426.785 2.5.074.074 1.105-.53 2.29-1.34 1.186-.812 2.389-1.433 2.674-1.38.964.182 1.7 4.088 1.525 8.094-.175 3.993-.8 6.18-2.703 9.453l-1.202 2.067-8.152.03c-4.483.016-8.367-.024-8.631-.089z" id="path1524" fill="#71a964"/>
    <path d="M17.09 28.995c-.166-.43 6.38-17.658 6.932-18.247.38-.404.87 1.01 1.29 3.715.635 4.095-.574 9.334-3.047 13.2l-1.137 1.777h-1.934c-1.356 0-1.985-.133-2.105-.445zm-7.84-1.854c-1.916-3.797-7.65-16-7.65-16.283 0-.888 5.527 2.656 7.322 4.695.718.815 1.848 2.438 2.512 3.605l1.206 2.122.085-9.909c.046-5.45.214-10.038.372-10.196.531-.531 3.276 3.815 4.395 6.962.255.717.654 2.2.886 3.297.356 1.683.352 2.052-.022 2.362-.936.777-3.355 4.79-4.152 6.889-.576 1.517-.897 3.134-1.039 5.235l-.205 3.04-1.346.098-1.347.097z" id="path1522" fill="#4e7445"/>
    <path d="M6.614 20.288c-2.236-4.698-3.992-8.617-3.9-8.708.34-.34 4.758 3.028 6 4.574.71.883 1.763 2.585 2.341 3.78.578 1.197 1.19 2.349 1.36 2.56.184.229.227 1.563.108 3.266-.197 2.792-.228 2.883-1.023 2.976-.779.09-1.029-.342-4.886-8.448zM17.6 28.617c0-.508 6.538-16.777 6.742-16.777.35 0 .72 3.033.682 5.59-.054 3.582-1.046 6.83-3.059 10.018-.834 1.321-.893 1.352-2.609 1.352-.966 0-1.756-.082-1.756-.183zM13.44 11.04c0-4.84.108-8.799.24-8.798.718.007 3.325 5.083 4.052 7.89.698 2.694.671 2.865-.706 4.43-.668.758-1.64 2.248-2.16 3.311-.52 1.063-1.054 1.94-1.186 1.95-.132.01-.24-3.943-.24-8.783z" id="path1520" fill="#476c3e"/>
  </g>
</svg>
