<svg xmlns="http://www.w3.org/2000/svg" width="50" height="50" viewBox="0 0 13.229 13.229" version="1.1" id="svg8">
  <g id="layer1" transform="translate(0 -283.77)">
    <path d="M4.02 295.768c-.58-.01-.708-.02-1.003-.083a2.178 2.178 0 01-1.037-.515c-.539-.472-.784-1.011-.832-1.83-.017-.304-.018-5.66 0-5.976.025-.453.113-.825.266-1.128a2.458 2.458 0 011.043-1.034c.304-.152.684-.24 1.136-.265.311-.017 5.698-.017 6.01 0 .799.044 1.331.269 1.793.757.36.381.531.746.627 1.346l.031.192v3.094c0 2.927-.001 3.103-.025 3.27-.097.682-.294 1.086-.737 1.504-.38.36-.765.54-1.352.628-.164.025-.286.03-.846.04-.756.014-4.248.013-5.074 0zm5.708-.052c.462-.046.873-.169 1.153-.344.281-.175.59-.48.773-.762.189-.29.317-.728.355-1.21.026-.326.026-5.849 0-6.134-.057-.632-.227-1.069-.572-1.466a2.36 2.36 0 00-.838-.62c-.349-.144-.657-.196-1.3-.216-.515-.016-4.888-.016-5.402 0-.562.018-.834.056-1.157.163-.613.203-1.199.784-1.401 1.39-.11.333-.145.581-.165 1.2-.02.623-.009 5.476.013 5.696.047.463.14.807.295 1.09.209.38.61.764.996.954.353.174.706.25 1.269.27.454.018 5.798.009 5.981-.01zm-6.643-3.072c0-.023 2.11-2.129 2.134-2.129.006 0 .144.13.307.288.308.301.38.358.564.444.184.085.26.1.5.1.242 0 .317-.015.5-.1.187-.086.258-.143.576-.453l.304-.298 1.079 1.071c.64.636 1.075 1.077 1.07 1.086-.008.011-.95.015-3.522.015-3.337 0-3.512 0-3.512-.024zm5.93-1.055l-1.046-1.04-.29.286c-.361.355-.475.434-.743.515-.108.033-.142.037-.338.037-.244.001-.341-.018-.533-.106-.169-.077-.263-.152-.559-.443l-.287-.282-1.043 1.036-1.043 1.035h6.93zm-6.057.84c-.017-.017-.011-4.132.006-4.142.016-.01 2.1 2.047 2.1 2.073 0 .014-2.075 2.078-2.09 2.078-.004 0-.011-.005-.016-.01zm1.051-1.064l1.013-1.006-1.016-1.008-1.016-1.009v2.014c0 1.108.001 2.014.003 2.014s.46-.452 1.016-1.005zm5.163.04a38.872 38.872 0 01-1.04-1.052c0-.024 2.073-2.085 2.098-2.085.013 0 .017.428.017 2.085 0 1.661-.004 2.085-.017 2.085-.01 0-.486-.465-1.058-1.032zm1.034-1.055v-2.021l-1.02 1.012-1.02 1.012 1.017 1.009c.559.554 1.017 1.008 1.02 1.008.001 0 .003-.91.003-2.02zm-3.731.8a1.153 1.153 0 01-.403-.13c-.073-.041-.343-.302-1.553-1.501-1.075-1.064-1.463-1.457-1.457-1.473.008-.02.303-.022 3.535-.022 3.355 0 3.527 0 3.527.024 0 .029-2.873 2.88-2.96 2.938-.199.131-.445.19-.69.165zm.361-.061a1.09 1.09 0 00.396-.212c.056-.049.72-.701 1.473-1.45l1.371-1.362h-6.97l1.405 1.395a85.617 85.617 0 001.486 1.457c.244.183.55.246.84.172z" id="path865" fill="#000" stroke="#000" stroke-width=".136" stroke-miterlimit="4" stroke-dasharray="none" stroke-opacity="1"/>
  </g>
</svg>
