<svg xmlns="http://www.w3.org/2000/svg" width="50" height="50" viewBox="0 0 13.229 13.229" version="1.1" id="svg8">
  <g id="layer1" transform="translate(0 -283.77)">
    <path d="M2.544 295.527a1.447 1.447 0 01-.71-.805c-.08-.245-.085-7.884-.004-8.179.087-.318.366-.646.688-.812l.29-.148H6.79c4.505.001 4.204-.027 4.629.442.384.423.368.219.368 4.638v3.972l-.145.278c-.08.153-.235.353-.345.445-.355.296-.55.33-1.87.33H8.235v-3.674h.637c.465 0 .657-.02.71-.074.042-.043.1-.327.14-.688.085-.78.116-.752-.803-.752h-.684l-.005-.446c-.014-1.244.049-1.337.904-1.337.343 0 .494-.021.539-.076.04-.049.056-.268.046-.635l-.015-.56h-.802c-.8 0-.804.001-1.159.178-.39.195-.609.43-.796.856-.1.225-.12.391-.141 1.142l-.025.878H6.33c-.67 0-.658-.013-.658.76 0 .646 0 .648.137.7.076.03.328.054.56.054h.425v3.675H2.859zm4.143-1.675v-1.73h-.47c-.664 0-.653.015-.667-.843-.014-.902-.026-.886.631-.886h.496l.019-.852c.017-.803.027-.87.172-1.188a1.84 1.84 0 01.875-.892c.216-.1.375-.12 1.095-.137.609-.016.865-.003.922.044.101.085.113 1.292.013 1.393-.04.04-.239.064-.531.064-.797 0-.9.114-.9.998v.57h.684c.94 0 .906-.037.82.845-.048.481-.095.724-.154.79-.072.08-.182.094-.717.094h-.633v3.46h1.093c1.248 0 1.471-.047 1.81-.37.43-.411.406-.14.406-4.576l.001-3.945-.126-.27c-.15-.323-.298-.47-.62-.618-.235-.107-.33-.11-4.086-.11-2.613-.001-3.913.017-4.058.057-.33.091-.746.551-.822.909-.04.19-.06 1.473-.06 3.997 0 4.04.003 4.079.298 4.433.164.197.457.386.683.44.092.023.99.043 1.997.046l1.829.005z" id="path21" fill="#000" stroke="#000" stroke-width=".43" stroke-linecap="round" stroke-linejoin="round" stroke-miterlimit="4" stroke-dasharray="none" stroke-opacity="1"/>
  </g>
</svg>
