<svg xmlns="http://www.w3.org/2000/svg" width="50" height="50" viewBox="0 0 13.229 13.229" version="1.1" id="svg8">
  <g id="layer1" transform="translate(0 -283.77)">
    <path d="M3.056 296.494a2.212 2.212 0 01-1.79-1.43c-.159-.429-.148-.106-.148-4.588 0-3.892.002-4.092.047-4.27.224-.872.786-1.466 1.611-1.702.169-.048.358-.05 4.042-.05 3.634 0 3.874.002 4.032.048.7.204 1.183.624 1.472 1.28.209.475.196.16.196 4.707v4.043l-.059.232c-.212.844-.764 1.432-1.57 1.672l-.207.062-3.774.004c-2.076.002-3.809-.001-3.852-.007zm7.67-.103a2.06 2.06 0 001.248-.778c.241-.318.367-.605.442-1.009.055-.299.055-7.958 0-8.257-.133-.718-.55-1.296-1.16-1.605-.441-.224-.068-.207-4.438-.207-4.392 0-4.002-.02-4.46.22a2.104 2.104 0 00-.955 1.01c-.226.483-.208.071-.208 4.71 0 4.619-.016 4.224.195 4.69.289.634.834 1.08 1.498 1.223.26.056 7.566.059 7.837.002zm-2.239-1.902c-.324-.053-1.046-.31-1.521-.542-1.17-.57-2.454-1.83-3.175-3.118-.208-.372-.35-.702-.538-1.25-.184-.538-.242-.806-.244-1.138-.004-.725.411-1.615.85-1.82.259-.12.77-.213.889-.161.091.04.262.315.584.943.139.27.284.54.322.6.182.284.2.425.08.618-.042.066-.23.255-.417.42-.335.295-.464.445-.464.539 0 .07.21.484.406.8.45.727.902 1.213 1.566 1.685.298.212.766.486.83.486.098 0 .226-.119.51-.477.337-.426.46-.533.616-.533.112 0 .203.04.376.164.057.04.313.194.569.34.65.373.858.52.894.637.048.155-.054.723-.175.972-.245.502-1.286.946-1.958.835zm.774-.134c.42-.119.92-.43 1.077-.672.086-.132.197-.527.219-.78.014-.161.01-.196-.032-.245-.067-.078-.414-.301-.89-.571a9.197 9.197 0 01-.551-.335c-.336-.239-.394-.212-.885.408-.35.442-.451.51-.646.44-.157-.057-.746-.437-1.06-.683a5.647 5.647 0 01-1.04-1.097c-.236-.338-.582-.939-.64-1.115-.073-.215-.016-.309.422-.7.58-.52.6-.569.375-.924a9.966 9.966 0 01-.317-.582c-.242-.476-.444-.83-.524-.922-.066-.075-.169-.08-.438-.02-.435.095-.603.193-.788.46-.307.44-.5 1.08-.465 1.545.021.285.089.546.29 1.114.365 1.035.862 1.837 1.665 2.685.697.736 1.518 1.34 2.224 1.633.455.19.881.343 1.086.39.276.065.626.054.918-.029z" id="path875" fill="#000" stroke="#000" stroke-width=".266" stroke-miterlimit="4" stroke-dasharray="none" stroke-opacity="1"/>
  </g>
</svg>
