<svg width="100%" height="15rem" viewBox="0 0 13.229 13.229">
  <g id="layer1" transform="translate(0 -283.77)">
    <g id="g855" transform="matrix(.08492 0 0 .08287 36.849 287.735)" stroke-width=".265">
      <path d="M-354.41 99.63c-13.602-4.569-15.366-4.937-26.06-5.433-3.493-.163-7.601-.458-9.129-.658-10.588-1.383-18.168-8.089-21.97-19.436-1.46-4.36-2.107-9.242-2.103-15.89.004-8.443 1.01-15.097 3.59-23.735 6.627-22.2 20.082-45.818 33.358-58.558 6.925-6.646 12.587-9.501 20.723-10.453 5.404-.632 10.432-.41 16.144.712 17.012 3.342 30.564 15.84 37.972 35.017 3.107 8.043 5.216 17.327 5.68 25.003 1.293 21.39-1.972 44.008-8.194 56.753-4.31 8.83-9.646 13.862-18.37 17.322-4.352 1.727-5.53 1.888-14.84 2.028l-8.466.128zm1.684-36.887c.349-.29.374-.445.122-.749-1.159-1.397-8.5-3.693-14.505-4.537-3.37-.474-7.958-.618-10.436-.327-3.528.414-4.003 1.243-1.414 2.468 3.095 1.466 8.823 2.881 13.57 3.354 3.752.373 12.128.235 12.663-.21zm-6.786-18.79c.693-1.03.806-2.699.221-3.283-.401-.402-3.031-.853-6.657-1.141-2.358-.188-2.407-.163-2.764 1.42-.273 1.213.07 2.061 1.038 2.562 1.502.777 4.38 1.448 5.98 1.394 1.475-.05 1.617-.112 2.182-.952zm32.344-12.872c2.253-1.32 2.4-3.064.42-4.988-2.562-2.49-6.667-3.92-11.39-3.966-3.207-.032-4.047.22-4.997 1.504-.72.973-.72 2.578.002 3.545 1.094 1.465 5.053 3.34 8.832 4.183 2.396.535 5.983.395 7.133-.278zm-48.533-8.405c2.464-.433 4.092-1.405 4.9-2.928.787-1.484.548-2.407-.806-3.104-2.296-1.183-7.984-1.3-10.234-.212-2.407 1.165-3.287 4.002-1.665 5.367.441.371 1.245.749 1.786.84.542.09 1.104.204 1.25.253.591.201 3.022.091 4.769-.216z" id="path869" fill="#f6aeac"/>
      <path d="M-345.632 101.98c-.92-.202-5.564-1.668-10.319-3.257-12-4.013-14.94-4.61-24.255-4.92-9.052-.302-12.477-.848-16.546-2.637-3.043-1.338-4.863-2.577-7.165-4.877-7.436-7.434-10.596-19.668-9.103-35.25.747-7.801 2.65-15.53 6.147-24.972 7.239-19.545 18.956-38.808 30.27-49.764 7.424-7.19 12.326-9.587 21.593-10.563 5.812-.612 13.001.015 18.522 1.615 7.834 2.27 13.713 5.674 19.603 11.351 4.945 4.765 8.437 9.531 11.588 15.811 7.396 14.743 10.303 31.973 8.693 51.53-1.67 20.288-5.604 34.592-11.863 43.123-1.737 2.367-4.954 5.366-7.762 7.235-2.926 1.949-5.075 2.993-8.556 4.159-4.557 1.527-16.603 2.344-20.847 1.415zm12.825-5.724c.357-.357.353-.72-.038-3.379-.242-1.638-.36-3.291-.265-3.674.377-1.513 1.834-2.386 3.103-1.86.954.395 1.348 1.16 2.04 3.96.304 1.228.77 2.53 1.038 2.894.737 1.004 2.021 1 4.05-.014 9.883-4.942 14.996-13.303 18.435-30.149 1.227-6.011 1.442-7.56 1.131-8.142-.384-.718-3.772-2.308-7.502-3.52-1.743-.565-3.574-1.28-4.07-1.586-1.648-1.019-1.863-2.23-.616-3.476.76-.76.901-.8 2.315-.667.829.078 3.206.69 5.283 1.359 4.33 1.394 5.543 1.526 5.728.62.533-2.615.63-17.616.151-23.217-1.04-12.154-5.516-25.555-11.55-34.582-6.682-9.996-15.98-16.586-26.813-19.004-2.611-.583-13.73-.848-17.049-.406-5.843.778-10.353 3.566-17.22 10.647-4.828 4.977-9.651 11.216-9.651 12.482 0 .289.618 1.665 1.373 3.06 2.951 5.446 3.132 6.124 1.946 7.31-1.445 1.445-3.08.55-5.337-2.917-.71-1.09-1.433-1.984-1.608-1.986-1.091-.012-8.733 14.858-12.377 24.085-5.406 13.688-7.827 24.435-7.795 34.596.021 6.54.424 7.426 2.799 6.153 1.466-.786 2.615-.712 3.556.23 1.338 1.337.967 2.328-1.708 4.554-.89.742-1.837 1.689-2.103 2.104-.453.706-.458.844-.073 2.151 1.265 4.293 6.033 9.998 9.965 11.923 3.677 1.8 8.232 2.564 15.33 2.569 8.401.006 12.281.793 26.326 5.338 4.075 1.318 8.123 2.56 8.996 2.76 2.279.523 11.637.357 12.21-.216zm-33.112-28.814c-5.52-.59-12.083-2.309-15.293-4.007-2.92-1.545-4.928-4.229-4.574-6.115.375-2.002 2.818-3.805 5.993-4.425 2.437-.475 9.806-.4 13.345.138 9.908 1.504 17.145 4.42 19.054 7.676 1.564 2.67.191 5.05-3.634 6.3-1.417.464-2.46.554-7.086.615-2.983.04-6.495-.042-7.805-.182zm12.122-3.913c.701-.115 1.467-.402 1.702-.638.395-.394.388-.472-.083-.994-1.89-2.09-10.245-4.441-17.842-5.02-6.334-.481-10.848.059-10.848 1.3 0 2.009 8.362 4.58 17.595 5.409 2.072.186 8.223.149 9.476-.057zM-364.4 49.895c-7.783-1.472-10.206-3.53-9.761-8.29.202-2.17 1.072-3.96 2.259-4.654.822-.48.923-.485 1.779-.076 1.258.6 1.614 1.472 1.213 2.971-.89 3.33-.037 4.198 5.182 5.278 3.626.75 4.603.183 5.111-2.966.479-2.967 1.592-3.96 3.53-3.151 1.247.521 1.636 1.909 1.214 4.333-.93 5.346-4.656 7.665-10.527 6.555zm30.232-13.389c-4.678-.725-9.318-2.652-11.704-4.86-2.01-1.862-2.804-3.446-2.93-5.844-.296-5.65 4.712-9.576 11.543-9.046 7.148.554 14.253 4.155 16.128 8.175.66 1.412 1.104 3.14 1.11 4.31.01 2.248-2.847 5.758-5.508 6.767-1.729.655-6.027.903-8.639.498zm7.183-5.034c.647-.313 1.378-.946 1.706-1.477.52-.841.543-1.035.247-2.032-.656-2.21-3.835-4.427-7.907-5.516-1.468-.392-2.93-.55-5.33-.577-3.948-.044-4.916.324-5.51 2.094-.945 2.82.563 4.646 5.367 6.5 2.92 1.127 4.867 1.51 7.799 1.535 2.013.017 2.715-.085 3.628-.527zm-55.454-4.079c-4.86-1.106-7.191-3.758-6.827-7.77.267-2.944 2.379-6.13 4.926-7.43 2.565-1.308 7.557-1.727 11.255-.943 3.588.76 6.58 2.682 7.461 4.792.592 1.417.466 3.506-.306 5.054-1.378 2.766-4.324 5.306-7.018 6.053-2.11.585-7.394.72-9.49.244zm8.584-4.625c.67-.205 1.567-.846 2.447-1.748 1.188-1.218 1.39-1.572 1.39-2.442 0-1.173-.63-1.905-2.2-2.562-2.339-.977-7.547-.97-9.494.012-1.115.563-2.272 1.636-2.75 2.551-.922 1.764.032 3.606 2.228 4.306 1.468.468 6.708.394 8.379-.117z" id="path867" fill="#af928b"/>
      <path d="M-344.884 101.681c-1.121-.126-5.295-1.405-12.039-3.69-5.845-1.98-10.87-3.347-14.42-3.92-1.382-.223-5.55-.53-9.26-.682-10.051-.411-12.71-.905-17.299-3.211-7.412-3.726-12.304-11.268-14.338-22.106-.587-3.124-.81-13.03-.388-17.189 1.679-16.548 10.496-38.913 22.613-57.36 4.64-7.065 9.153-12.601 14.272-17.508 5.692-5.457 9.955-7.91 16.085-9.26 3.133-.688 15.572-.703 19.189-.022 5.86 1.104 12.933 4.1 17.81 7.545 4.853 3.428 10.965 10.065 14.532 15.783 4.906 7.864 9.108 20.107 10.586 30.846.827 6.009 1.079 17.399.545 24.607-1.78 24.01-7.231 40.39-15.96 47.952-5.642 4.888-11.249 7.218-19.549 8.124-2.412.263-10.332.321-12.38.091zm12.606-4.895c.428-.429.428-.6.005-3.043-.56-3.223-.56-4.409-.006-5.255.668-1.02 1.288-1.25 2.157-.801.902.466 1.251 1.181 1.65 3.377.562 3.106 1.396 4.456 2.752 4.456 2.03 0 7.87-3.547 10.763-6.538 5.312-5.49 8.42-12.705 11.055-25.66 1.216-5.981 1.327-7.454.61-8.103-.725-.656-4.051-2.11-7.726-3.377-2.44-.842-3.533-1.363-4.167-1.988-1.027-1.012-1.046-1.185-.234-2.128.914-1.063 2.384-.945 7.047.567 2.184.708 4.402 1.26 5.15 1.283l1.313.039.213-1.059c.401-2.001.552-15.677.224-20.373-1.107-15.842-5.761-29.58-13.581-40.084-2.411-3.238-6.821-7.586-10-9.859-2.87-2.052-8.401-4.862-11.497-5.842-4.098-1.296-4.796-1.365-13.89-1.365-8.148 0-8.697.031-10.452.587-3.714 1.177-8.624 4.551-12.976 8.919-3.921 3.934-9.482 10.852-10.588 13.17l-.441.926 2.167 4.176c2.31 4.451 2.439 5.053 1.292 6.023-1.216 1.03-2.463.176-4.613-3.158-.78-1.21-1.6-2.2-1.82-2.2-.619 0-1.955 2.033-4.589 6.978-4.762 8.943-8.341 17.065-10.886 24.7-4.16 12.486-6.028 24.394-5.03 32.08.323 2.491.867 3.19 2.016 2.586.414-.218 1.132-.595 1.594-.836 1.008-.528 1.922-.356 2.739.513.86.916.54 1.664-1.544 3.604-.992.924-2.078 2.055-2.412 2.513-.556.76-.58.92-.278 1.852 1.005 3.101 3.764 7.312 6.356 9.7 4.652 4.288 8.287 5.303 20.553 5.74 9.856.35 12.707.957 26.794 5.697 3.711 1.25 7.402 2.375 8.203 2.501.8.127 3.742.21 6.539.183 4.41-.041 5.144-.108 5.537-.501zm-34.917-29.843c-6.834-.843-13.558-3.16-16.18-5.578-1.527-1.406-1.99-2.272-1.99-3.713 0-.977.147-1.258 1.18-2.248 1.711-1.64 3.758-2.22 8.493-2.408 9.28-.37 21.609 2.416 26.212 5.922 1.205.918 2.479 2.862 2.479 3.784 0 1.222-1.178 2.55-3.1 3.497l-1.783.878-6.753.044c-3.714.024-7.565-.056-8.558-.178zm14.58-3.305c2.28-.928 1.926-1.94-1.173-3.345-6.066-2.75-13.97-4.15-21.877-3.871-5.628.197-7.03.988-5.041 2.844 2.901 2.706 14.383 5.119 23.386 4.914 2.635-.06 3.87-.203 4.704-.542zm-12.316-14.27c-7.477-1.421-9.945-3.948-8.68-8.885.724-2.829 2.052-3.993 3.573-3.134.58.328.676.559.652 1.562-.015.648-.12 1.795-.233 2.548-.192 1.283-.159 1.413.53 2.052.948.878 4.491 2.004 6.897 2.19 1.79.14 1.913.112 2.718-.616.707-.64.905-1.098 1.239-2.864.452-2.396.906-3.057 2.096-3.057 1.566 0 1.864.478 1.844 2.956-.03 3.496-1.394 5.917-3.934 6.976-1.42.592-4.381.712-6.702.271zm31.556-13.12c-4.632-.587-10.04-2.78-12.432-5.042-1.99-1.882-2.638-3.306-2.603-5.713.075-5.088 3.84-8.294 9.733-8.288 5.301.006 12.379 2.505 15.358 5.422 1.943 1.903 2.644 3.482 2.644 5.953 0 1.626-.125 2.224-.691 3.308-.876 1.675-2.984 3.424-4.767 3.954-1.769.525-4.905.7-7.242.405zm5.497-3.98c1.252-.347 2.802-1.686 3.281-2.834.326-.778.31-.997-.134-1.989-1.64-3.653-7.244-6-14.337-6.007-2.94-.002-4.081.44-4.839 1.873-.748 1.415-.51 3.707.495 4.766.862.908 3.963 2.554 6.192 3.284 2.98.978 7.507 1.417 9.342.907zm-54.098-5.13c-4.736-.992-6.946-3.217-6.911-6.959.023-2.424 1.426-5.222 3.34-6.662 2.308-1.736 4.223-2.257 8.251-2.243 2.984.01 3.716.103 5.527.705 5.5 1.827 7.364 5.102 5.276 9.269-1.296 2.585-3.734 4.574-6.768 5.524-2.177.681-6.37.857-8.715.366zm7.874-3.962c3.142-.957 5.379-4.045 4.338-5.99-.627-1.17-4.41-2.354-7.532-2.355-3.726-.001-6.236 1.178-7.376 3.465-1.4 2.81-.637 4.083 3.071 5.13 1.697.478 5.527.35 7.499-.25z" id="path865" fill="#a0827b"/>
      <path d="M-342.956 101.6c-3-.246-4.27-.594-13.967-3.832-10.82-3.612-13.825-4.19-24.066-4.629-9.154-.392-11.58-.778-15.49-2.468-8.91-3.849-14.564-13.03-15.896-25.81-.396-3.808-.167-14.028.393-17.495 1.833-11.36 5.718-22.856 12.203-36.116 8.268-16.907 18.488-30.948 27.983-38.445 4.372-3.453 8.695-5.355 13.682-6.02 3.68-.492 12.818-.488 16.272.007 7.136 1.021 14.49 4.203 20.676 8.945 2.81 2.153 7.134 6.444 9.127 9.055 8.109 10.623 13.574 25.755 14.796 40.967.404 5.036.178 19.272-.389 24.517-3.056 28.248-9.936 42.36-23.506 48.21-5.88 2.536-14.275 3.734-21.818 3.115zm10.082-4.193c1.21-.265 1.382-.792.976-2.998a42.095 42.095 0 01-.482-3.55c-.118-1.51-.073-1.676.675-2.513l.802-.896.748.553c.559.413.84.95 1.111 2.117 1.414 6.097 2.151 6.638 6.31 4.626 10.342-5 15.5-13.494 19.138-31.505 1.173-5.81 1.297-7.628.566-8.289-.566-.512-5.124-2.448-8.12-3.449-3.08-1.028-4.214-1.73-4.322-2.676-.217-1.884 1.82-1.923 7.48-.144 5.499 1.73 5.846 1.79 6.218 1.095 1.149-2.146 1.07-20.622-.12-28.606-1.26-8.44-3.781-16.796-7.148-23.68-6.796-13.9-17.665-23.12-31.08-26.37-1.061-.258-3.818-.353-10.186-.353-9.675 0-10.059.052-13.61 1.847-5.846 2.954-14.13 11.065-19.779 19.365-1.734 2.548-1.734 2.547.197 5.928.713 1.248 1.609 2.951 1.99 3.785.61 1.331.655 1.61.37 2.298-.408.985-1.346 1.254-2.267.65-.376-.245-1.395-1.558-2.264-2.917-.869-1.358-1.758-2.538-1.975-2.621-.908-.349-2.958 2.984-7.638 12.41-4.22 8.503-6.128 13.004-8.352 19.712-2.859 8.623-4.371 15.425-5.029 22.622-.35 3.834-.171 9.586.347 11.132.528 1.576.987 1.692 2.853.722 1.391-.723 1.716-.799 2.408-.557.44.153.924.55 1.075.883.351.771.095 1.144-2.34 3.399-2.499 2.313-2.7 2.832-1.886 4.848 2.237 5.54 6.124 10.01 10.656 12.254 3.643 1.804 6.08 2.188 16.8 2.644 9.265.395 11.806.927 24.21 5.071 4.366 1.459 8.771 2.808 9.79 2.998 1.905.357 10.457.475 11.878.165zm-33.442-30.631c-.363-.054-1.554-.226-2.645-.382-4.867-.7-10.168-2.424-12.926-4.207-4.607-2.978-4.244-6.674.81-8.262 1.746-.549 2.42-.605 7.088-.589 8.568.029 16.513 1.614 22.06 4.402 2.956 1.485 4.995 3.996 4.52 5.565-.466 1.542-2.47 2.884-5.007 3.353-1.417.262-12.292.356-13.9.12zm13.295-2.744c.546-.158 1.306-.557 1.69-.887.598-.515.654-.68.392-1.17-.994-1.857-9.319-4.665-16.21-5.466-7.744-.902-14.054-.327-14.692 1.337-.372.968 2.108 2.695 5.504 3.832 3.873 1.298 7.926 2.052 14.652 2.727 1.796.18 7.618-.07 8.664-.373zm-10.781-14.72c-4.506-.706-7.952-2.174-9.072-3.866-.965-1.459-.96-4.226.013-6.35.753-1.646 1.545-2.098 2.728-1.56.742.339.836 1.276.342 3.416-.366 1.587.01 2.57 1.265 3.3 1.037.604 5.653 1.792 6.94 1.787 1.974-.008 3.288-1.38 3.61-3.77.297-2.194.754-2.83 2.04-2.837 1.16-.006 1.623.974 1.467 3.112-.228 3.148-1.555 5.366-3.76 6.287-1.058.442-4.129.707-5.573.48zm30.881-13.321c-6.807-.756-12.738-3.714-14.527-7.246-.601-1.186-.66-1.56-.556-3.589.177-3.501 1.408-5.334 4.575-6.814 1.505-.704 1.772-.74 5.16-.716 3.065.023 3.908.128 5.952.74 3.362 1.008 7.097 2.881 8.662 4.346 1.94 1.814 2.68 3.422 2.7 5.868.013 1.727-.088 2.17-.778 3.419-1.781 3.218-5.668 4.604-11.188 3.992zm5.874-3.813c.449-.188 1.262-.837 1.808-1.441 1.27-1.409 1.331-2.577.223-4.324-1.926-3.037-6.519-4.879-12.87-5.162-2.964-.132-3.593-.088-4.437.313-2.474 1.174-3.12 4.83-1.193 6.756 3.115 3.115 12.815 5.387 16.47 3.858zm-53.688-5.076c-.291-.071-1.328-.315-2.304-.542-3.698-.86-5.612-2.964-5.608-6.166.004-3.242 1.942-6.251 4.96-7.7 5.235-2.514 14.173-1.091 16.86 2.682.732 1.028.994 3.407.53 4.813-.89 2.698-3.752 5.322-6.857 6.287-1.71.532-6.393.919-7.581.626zm5.522-3.414c4.116-.872 7.089-4.367 5.62-6.608-1.334-2.037-7.547-3.105-11.569-1.99-3.173.88-5.463 5.023-3.807 6.886 1.574 1.77 5.897 2.53 9.755 1.712z" id="path863" fill="#8e7169"/>
      <path d="M-342.647 101.333c-2.949-.243-5.634-.966-13.614-3.667-11.134-3.767-14.146-4.36-24.407-4.8-9.546-.411-12.893-1.013-16.953-3.052-3.244-1.629-6.728-4.75-8.885-7.958-2.113-3.143-4.13-8.175-4.896-12.218-.988-5.207-1.162-13.954-.414-20.836 1.857-17.086 13.47-43.723 26.792-61.457 6.148-8.182 13.397-15.092 18.567-17.697 4.928-2.483 9.585-3.192 19.042-2.898 5.51.17 8.475.653 12.717 2.066 8.537 2.845 17.028 8.992 22.557 16.329 7.2 9.554 12.705 23.93 14.404 37.614.229 1.839.343 6.044.337 12.436-.007 8.196-.1 10.517-.615 15.346-1.476 13.845-3.886 24.122-7.405 31.582-5.678 12.034-14.977 18.108-29.41 19.208-3.873.296-4.244.296-7.817.001zm10.26-3.616c1.198-.24 1.341-.838.863-3.593-.723-4.173-.535-5.748.689-5.748.71 0 1.186.897 1.801 3.388.984 3.983 1.445 4.492 3.825 4.224 2.458-.277 7.394-3.268 10.442-6.327 5.349-5.368 8.82-13.037 11.292-24.954 1.955-9.42 1.934-9.578-1.503-11.208-1.212-.574-3.67-1.553-5.462-2.175-3.604-1.251-4.618-1.867-4.495-2.732.07-.483.284-.577 1.477-.645 1.623-.093 4.144.545 8.286 2.097 1.573.59 2.997.988 3.165.885 1.264-.782 1.72-7.576 1.323-19.703-.285-8.704-.55-10.916-1.997-16.653-3.082-12.22-7.275-21.333-13.082-28.436-6.199-7.582-15.143-13.22-24.359-15.357-3.147-.73-9.59-1.049-14.263-.707-6.503.476-8.732 1.197-13.254 4.286-3.647 2.492-8.31 6.985-12.125 11.686-2.686 3.31-5.866 7.88-5.866 8.432 0 .28.83 1.953 1.843 3.717 1.014 1.763 1.978 3.613 2.142 4.11.576 1.745-.266 2.881-1.523 2.058-.351-.23-1.404-1.602-2.34-3.05-1.869-2.888-2.228-3.09-3.374-1.894-1.825 1.905-7.554 12.768-10.984 20.828-5.15 12.104-8.162 22.816-9.074 32.279-.413 4.283-.197 12.091.371 13.428.508 1.194.836 1.228 3.08.316 1.94-.789 3.02-.776 3.136.035.058.403-.6 1.194-2.447 2.942-1.39 1.316-2.526 2.596-2.526 2.846 0 .76 1.521 4.306 2.71 6.316 1.403 2.371 4.77 5.919 7.066 7.445 3.899 2.592 6.345 3.099 17.344 3.589 10.117.45 12.68.952 24.339 4.758 9.294 3.035 10.64 3.404 13.487 3.705 2.106.222 8.55.1 9.994-.188zm-34.054-31.324c-6.02-.825-12.024-2.545-14.888-4.265-3.77-2.265-4.48-5.139-1.714-6.939 1.82-1.184 2.938-1.34 9.451-1.324 6.834.016 10.404.472 15.478 1.975 7.387 2.188 11.572 5.582 9.946 8.064-.598.911-2.173 1.899-3.596 2.253-1.556.389-12.305.561-14.677.236zm13.963-2.228c.698-.25 1.46-.745 1.694-1.101.395-.603.388-.696-.099-1.36-.775-1.055-4.55-2.842-8.157-3.86-11.864-3.35-25.493-2.672-22.694 1.129 1.649 2.238 9.318 4.675 17.535 5.572 3.508.383 10.193.166 11.721-.38zm-10.398-15.124c-.51-.063-2.178-.41-3.709-.771-5.19-1.225-6.853-2.833-6.526-6.31.189-2.014.78-3.45 1.654-4.024.645-.422.704-.417 1.231.11.518.518.535.672.264 2.357-.389 2.417-.204 3.154.986 3.942 1.173.776 5.669 1.962 7.436 1.962 2.045 0 3.373-1.402 3.972-4.194.36-1.675 1.049-2.358 1.962-1.942.928.423 1.1 1.467.573 3.477-.617 2.35-1.548 3.839-2.89 4.615-1.148.665-3.221.99-4.953.778zm29.08-13.59c-2.869-.336-4.987-.976-7.789-2.354-4.758-2.34-5.945-3.94-5.945-8.013 0-2.19.415-3.269 1.783-4.637 3.648-3.648 10.083-3.489 18.204.45 4.275 2.074 5.888 4.093 6.146 7.693.1 1.407.02 1.945-.427 2.818-1.218 2.389-3.078 3.592-6.226 4.03-2.26.314-3.147.316-5.747.012zm6.961-3.112c2.273-1.015 3.331-2.808 2.807-4.751-.394-1.456-2.866-3.76-5.279-4.922-2.599-1.25-5.96-1.83-9.915-1.714-3.292.097-3.891.341-5.067 2.07-.71 1.041-.814 3.309-.208 4.481 1.93 3.731 13.219 6.822 17.662 4.836zm-54.25-5.904c-3.553-.413-4.978-1.039-6.294-2.764-2.134-2.798-.248-8.608 3.397-10.467 2.422-1.236 6.897-1.623 10.591-.916 4.722.903 6.81 2.774 6.81 6.098 0 1.897-.787 3.59-2.442 5.25-2.645 2.653-6.203 3.479-12.061 2.799zm5.827-2.385c1.787-.38 3.133-1.063 4.473-2.274 3.381-3.055 2.072-5.991-3.165-7.102-4.521-.958-9.198.117-10.738 2.467-2.118 3.234-1.095 5.744 2.762 6.78 1.765.474 4.765.532 6.668.129z" id="path861" fill="#70564c"/>
      <path d="M-342.421 101.051c-3.17-.283-4.334-.593-13.311-3.55-12.05-3.97-14.658-4.5-24.077-4.894-8.566-.358-11.466-.721-14.846-1.86-8.947-3.013-15.257-11.815-16.782-23.405-.549-4.177-.624-13.12-.149-17.727.646-6.252 2.221-12.751 5.009-20.662 8.769-24.882 24.317-48.577 37.773-57.565 1.245-.832 3.561-2.024 5.21-2.682l2.967-1.184 5.14-.334c8.648-.562 14.592-.04 20.124 1.767 4.96 1.62 8.252 3.394 14.688 7.911 1.887 1.325 5.708 5.134 7.66 7.638 7.225 9.261 13.088 23.978 14.873 37.33.665 4.974.67 20.495.008 26.458-1.295 11.665-1.907 15.56-3.39 21.563-1.749 7.078-4.205 13.038-7.273 17.649-4.324 6.499-11.433 10.99-20.238 12.784-2.13.434-9.59 1.14-10.69 1.01-.145-.016-1.359-.128-2.696-.247zm10.653-3.181c.981-.468 1.084-1.307.526-4.286-.523-2.794-.529-4.254-.016-4.679.65-.54 1.086.086 1.707 2.458 1.364 5.205 2.188 5.857 5.813 4.597 2.93-1.02 6.147-3.153 9.042-5.996 5.763-5.66 9.063-12.953 11.737-25.93 1.458-7.077 1.506-8.427.339-9.55-.801-.772-3.62-2.046-7.583-3.428-3.302-1.153-4.77-2.013-4.413-2.589.459-.743 4.613.097 9.044 1.83 1.513.591 3.02 1.037 3.349.99.415-.059.799-.489 1.255-1.408.65-1.308.659-1.416.757-9.544.107-8.809-.236-16.506-.906-20.354-.594-3.41-2.327-10.06-3.585-13.758-3.458-10.163-7.74-17.396-14.12-23.852-2.568-2.597-4.179-3.966-6.35-5.397-4.84-3.19-10.54-5.627-15.744-6.734-2.713-.577-11.49-.824-15.257-.43-5.114.536-7.193 1.287-11.592 4.19-3.155 2.08-9.607 8.403-13.04 12.776-3.228 4.112-5.408 7.415-5.221 7.911.087.233.99 1.928 2.007 3.766 2.432 4.4 2.806 5.786 1.562 5.786-.575 0-1.452-1.032-3.262-3.837-1.735-2.688-2.154-2.755-3.868-.619-2.603 3.242-8.408 14.761-12.128 24.064-2.193 5.487-3.927 10.75-5.35 16.243-1.908 7.358-2.396 11.157-2.414 18.785-.013 5.568.239 7.427 1.113 8.219.544.492.695.466 3.1-.54 1.539-.644 2.702-.708 2.702-.149 0 .274-.96 1.27-3.245 3.362-2.126 1.946-2.164 2.18-.869 5.323 2.414 5.86 7.47 11.037 12.681 12.987 2.385.892 5.619 1.323 12.2 1.624 11.542.53 14.185 1.024 25.932 4.853 7.34 2.392 9.99 3.144 13.097 3.718.364.067 2.814.087 5.443.045 3.41-.055 5.004-.183 5.557-.447zm-32.828-31.64c-.582-.052-2.524-.338-4.315-.634-9.38-1.55-15.396-4.546-15.396-7.668 0-.88.167-1.258.872-1.963 1.09-1.09 2.142-1.394 6.14-1.776 3.482-.333 9.434-.022 13.587.71 4.629.815 9.655 2.497 12.573 4.208 2.876 1.685 3.64 3.88 1.888 5.418-1.098.965-2.12 1.268-5.445 1.619-2.367.249-7.61.295-9.904.087zm11.03-1.521c2.877-.61 3.97-1.736 3.016-3.108-2.21-3.177-16.18-6.647-25.026-6.216-4.511.22-6.88 1.133-6.88 2.653 0 1.573 3.933 3.874 8.64 5.055 2.424.609 7.748 1.587 9.882 1.816 2.496.267 8.728.147 10.367-.2zm-10.236-16.15c-.146-.048-1.396-.35-2.778-.671-2.634-.612-4.594-1.45-5.333-2.28-.739-.828-1.073-2.587-.785-4.136.467-2.512 1.152-3.603 2.048-3.26.367.142.414.482.304 2.201-.153 2.387.101 3.476.956 4.093.879.635 3.352 1.425 6.03 1.926 2.036.38 2.4.385 3.225.04 1.231-.514 2.451-2.248 2.815-4 .314-1.51.753-2.083 1.49-1.941 1.149.221.789 3.429-.648 5.773-1.092 1.78-2.346 2.38-4.943 2.36-1.164-.01-2.236-.057-2.381-.105zm28.505-13.658c-3.457-.576-7.946-2.64-10.002-4.601-1.212-1.156-1.428-1.523-1.708-2.905-.69-3.398.107-5.864 2.442-7.555 1.766-1.28 3.552-1.669 6.945-1.514 3.33.152 5.372.735 9.553 2.728 3.251 1.55 5.085 3.265 5.927 5.542.737 1.992.626 3.587-.369 5.284-.86 1.466-2.563 2.635-4.423 3.034-1.531.328-6.36.32-8.365-.013zm8.564-2.213c2.376-.991 3.573-3.078 3.002-5.232-.6-2.267-4.342-5.06-8.321-6.21-.792-.23-3.023-.433-5.556-.507-4.064-.12-4.276-.1-5.284.489-1.636.955-2.257 2.083-2.257 4.097 0 2.73.875 3.84 4.32 5.483 2.336 1.115 4.027 1.67 6.561 2.151 2.387.454 6.118.32 7.535-.271zm-55.582-6.762c-2.122-.37-3.483-1.011-4.474-2.108-1.484-1.643-1.598-3.83-.348-6.657 1.235-2.79 3.508-4.257 7.347-4.738 4.488-.563 9.785.558 11.544 2.443 2.815 3.018 1.08 8.041-3.57 10.333-1.717.846-1.853.869-5.472.912-2.042.024-4.304-.059-5.027-.185zm8.895-2.08c1.639-.631 3.728-2.31 4.335-3.485.547-1.057.482-2.547-.155-3.577-1.539-2.49-8.51-3.584-12.7-1.992-2.408.915-4.026 3.051-4.066 5.368-.034 1.98 1.245 3.277 4.023 4.077 1.92.552 6.677.335 8.563-.39z" id="path859" fill="#594439"/>
      <path d="M-344.64 100.547c-.811-.129-5.327-1.498-10.033-3.043-12.992-4.263-15.446-4.773-24.872-5.167-6.958-.291-9.7-.573-12.912-1.326-8.192-1.921-14.18-7.972-17.348-17.53-2.343-7.067-2.522-20.541-.41-30.844.985-4.8 3.434-12.61 5.977-19.061 6.051-15.348 14.368-29.743 23.4-40.504 4.518-5.383 7.06-7.487 7.54-6.239.222.58-.293 1.336-2.605 3.818-3.918 4.206-8.89 10.575-10.088 12.923-.508.996-.396 1.394 1.13 4.009 1.737 2.98 2.67 4.97 2.67 5.696 0 1.318-.788.716-2.47-1.886-1.976-3.053-2.39-3.504-3.22-3.504-1.237 0-3.927 4.161-8.17 12.639-4.578 9.148-7.883 17.446-10.337 25.952-2.609 9.045-3.23 12.934-3.497 21.869-.19 6.39-.048 7.865.848 8.761.833.833 1.565.793 3.685-.2 1.365-.638 1.84-.755 2.08-.512.24.242-.254.844-2.145 2.614-2.902 2.714-2.958 2.944-1.53 6.217 2.509 5.745 6.35 10.025 11.173 12.447 3.15 1.58 6.245 2.037 17.317 2.554 8.84.412 11.17.906 23.657 5.017 10.1 3.324 11.245 3.544 17.589 3.38 5.143-.134 6.464-.389 6.7-1.293.078-.294-.095-1.912-.383-3.596-.578-3.379-.57-4.436.033-4.436.402 0 .565.415 1.586 4.026.297 1.05.825 2.24 1.174 2.646 2.533 2.942 12.689-3.06 17.565-10.38 3.763-5.647 6.347-13.067 8.369-24.025.905-4.907.896-6.22-.053-7.129-.937-.897-4.441-2.52-8.136-3.769-3.145-1.062-4.207-1.597-3.962-1.994.405-.655 3.918.138 8.94 2.017 1.72.643 3.221 1.17 3.335 1.17.114 0 .589-.365 1.056-.811.948-.907 1.322-.899 1.817.038.417.791.266 2.826-.627 8.445-1.988 12.503-4.784 20.974-9.036 27.373-4.724 7.11-11.87 11.6-21.102 13.262-2.754.495-12.4.742-14.705.376zm-18.5-34.57c-9.58-.653-18.97-3.735-20.521-6.735-.652-1.26-.488-2.203.54-3.107 1.133-.994 2.191-1.291 5.871-1.65 6.655-.648 16.645.812 22.694 3.317 4.088 1.694 5.967 3.282 5.967 5.043 0 .975-1.273 2.106-2.804 2.491-2.202.555-8.21.883-11.748.641zm6.964-.622c3.29-.32 4.45-.635 5.459-1.483.984-.829 1.03-1.646.151-2.691-1.927-2.29-10.193-4.93-18.488-5.902-3.476-.407-9.689-.183-11.334.41-1.395.502-2.596 1.56-2.596 2.287 0 .728 1.458 2.242 2.997 3.112 3.802 2.149 11.582 3.835 20.683 4.483.29.02 1.699-.077 3.128-.216zm56.69-17.262c-.322-.495-.385-2.155-.372-9.855.022-12.515-.378-16.607-2.42-24.76-2.004-8.002-4.665-14.836-7.993-20.529-2.49-4.258-4.547-6.975-8.163-10.776-2.207-2.32-2.916-3.233-2.854-3.674.058-.402.294-.611.753-.665 1.407-.164 6.312 5.135 10.114 10.926 6.055 9.221 10.844 22.838 12.098 34.394.469 4.327.627 14.67.302 19.714-.309 4.781-.46 5.82-.85 5.82-.126 0-.402-.267-.615-.595zm-64.184.146c-4.406-.752-7.532-1.968-8.27-3.217-.653-1.106-.616-4.037.071-5.55.81-1.785 1.186-1.326 1.199 1.463.016 3.592.625 4.194 5.462 5.402 2.887.721 4.882.762 5.849.12.935-.62 1.862-2.228 2.421-4.202.336-1.182.541-1.518.887-1.453.632.12.719 1.728.192 3.54-.524 1.805-1.865 3.352-3.268 3.773-.996.298-3.173.358-4.543.124zm28.795-13.58c-3.63-.612-7.838-2.457-9.962-4.366-1.043-.938-1.456-1.542-1.763-2.575-1.128-3.8.204-6.842 3.7-8.45 1.167-.538 1.712-.607 4.63-.589 2.8.018 3.62.124 5.347.696 2.164.716 4.443 1.915 4.443 2.337 0 .372-.315.322-2.442-.39-3.57-1.197-9.513-1.485-11.702-.568-1.251.524-2.704 2.3-2.918 3.57-.277 1.641.272 3.521 1.354 4.636 1.16 1.195 5.145 3.144 7.903 3.867 3.057.801 7.109.981 8.91.397 2.697-.876 4.168-2.673 4.18-5.107.008-1.295.532-1.526 1.022-.45.481 1.055.367 2.023-.42 3.578-.866 1.71-2.556 2.965-4.573 3.398-1.508.323-5.836.333-7.709.017zm-47.176-8.995c-3.095-.546-5.207-2.1-5.584-4.11-.438-2.338 1.19-5.962 3.275-7.286 1.885-1.198 3.75-1.638 6.93-1.635 7.97.008 11.944 3.345 9.695 8.142-.744 1.589-2.892 3.66-4.609 4.444-1.056.483-1.797.579-4.82.624-1.964.03-4.163-.051-4.887-.179zm8.918-1.646c2.058-.945 3.279-1.921 4.052-3.241 1.545-2.637.3-5.126-3.188-6.374-1.939-.694-7.65-.699-9.633-.009-2.459.856-4.522 3.56-4.522 5.925 0 1.078.78 2.36 1.876 3.086 1.697 1.123 3.442 1.477 6.855 1.389 2.627-.068 3.25-.174 4.56-.776zm46.902-48.127c-4.692-2.862-9.213-4.728-13.933-5.75-5.44-1.18-14.14-1.238-19.537-.133-2.497.512-5.554 1.932-8.67 4.027-2.623 1.764-4.03 2.142-4.03 1.084 0-1.36 4.915-4.621 10.005-6.637l2.033-.805 7.938-.142c10.484-.188 13.514.216 19.538 2.603 4.477 1.774 10.036 5.033 10.367 6.078.178.56-.263 1.303-.767 1.294-.164-.003-1.49-.731-2.944-1.619z" id="path857" fill="#483429"/>
    </g>
  </g>
</svg>
