<svg xmlns="http://www.w3.org/2000/svg" version="1.1" id="svg880" width="50" height="50">
  <g id="g1500" stroke-width=".316">
    <path d="M19.362 48.337c-1.915-.944-3.258-3.375-3.154-5.705.038-.863-.1-1.88-.307-2.259-.207-.38-.458-1.791-.559-3.137-.1-1.346-.305-2.8-.454-3.231-.149-.432-.362-1.593-.475-2.582-.175-1.545-.324-1.853-1.06-2.198-.702-.33-.873-.644-.955-1.756-.163-2.229-.106-2.249 6.524-2.249h13.466c3.995 0 5.797.112 6.066.377.211.207.383 1.031.383 1.832 0 1.248-.113 1.506-.798 1.813-.439.196-.798.483-.798.636 0 .154-.205 1.463-.456 2.91a86.358 86.358 0 00-.676 4.75c-.121 1.167-.347 2.2-.502 2.293-.155.094-.282 1.085-.282 2.202 0 2.29-.583 3.942-1.852 5.252-1.494 1.541-2.549 1.78-7.845 1.77-4.367-.008-4.967-.077-6.266-.718z" id="path1463" fill="#eec4b5"/>
    <path d="M20.077 48.545c-2.075-1.005-3.582-3.44-3.587-5.797l-.002-.826 8.91-.23c4.901-.127 9.068-.136 9.26-.019.831.505.126 3.719-1.141 5.198-1.603 1.872-2.755 2.193-7.837 2.185-3.535-.005-4.797-.12-5.603-.511zm-.227-10.14c-1.215-1.202-2.145-2.244-2.067-2.315.078-.07 2.19-.19 4.692-.266 4.191-.126 4.55-.093 4.55.418 0 .305-.202.668-.449.806-.246.138-1.256.992-2.244 1.898-.988.906-1.904 1.647-2.035 1.647-.131 0-1.232-.984-2.447-2.187zm5.578 1.636c0-.733 3.13-4.154 3.802-4.154.603 0 4.5 3.742 4.5 4.322 0 .283-1.093.384-4.151.384-3.748 0-4.151-.054-4.151-.552zm-9.384-.258c-.27-.69-.244-2.955.033-2.955.406 0 2.966 2.629 2.966 3.046 0 .625-2.752.542-3-.091zm17.274-1.632c-.827-.826-1.505-1.75-1.505-2.054 0-.48.267-.541 1.996-.46l1.995.093-.1 1.569c-.156 2.458-.612 2.621-2.386.852zm-12.672-3.75c-2.718-.055-5.071-.227-5.23-.384-.159-.156-.45-1.245-.646-2.42-.31-1.858-.47-2.19-1.235-2.548-.727-.341-.878-.614-.878-1.587 0-.646.172-1.344.383-1.551.27-.266 2.107-.377 6.226-.377h5.843l1.436-.157 6.067.157 6.066.157.096 1.465c.088 1.338.018 1.502-.798 1.885-.793.37-.95.704-1.382 2.926l-.487 2.508-5.26.013c-2.893.007-7.483-.033-10.2-.087z" id="path1461" fill="#ebb198"/>
    <path d="M20.973 48.845a3.867 3.867 0 01-.798-.46 53.229 53.229 0 00-1.252-.947c-1.081-.798-2.098-2.833-2.108-4.217l-.007-.98 8.595-.23c4.728-.127 8.751-.136 8.94-.021.891.54-.004 3.737-1.406 5.02-2.142 1.959-1.91 1.892-6.862 1.961-2.55.036-4.847-.02-5.102-.125zm-.802-10.438c-1.04-1.032-1.823-1.943-1.74-2.024.205-.201 7.627-.296 7.826-.1.15.148-3.5 3.745-3.976 3.92-.121.045-1.07-.763-2.11-1.796zm5.725 1.54c-.115-.182.6-1.126 1.588-2.097l1.797-1.766 1.905 1.853c1.047 1.018 1.905 1.962 1.905 2.097 0 .382-6.954.298-7.195-.087zm-9.601-.426c-.095-.244-.127-.817-.07-1.274l.104-.83 1.262 1.274 1.262 1.274H17.66c-.734 0-1.26-.17-1.366-.444zm17.34-1.686c-.651-.655-1.183-1.36-1.183-1.57 0-.453 2.74-.529 3.021-.083.232.369-.153 2.842-.443 2.842-.117 0-.746-.535-1.396-1.19zm-12.912-3.748c-5.83-.11-5.213.188-5.67-2.749-.313-2.015-.49-2.372-1.325-2.684-.676-.253-.776-.465-.691-1.472l.099-1.177 6.066-.157 6.066-.157.074-5.397c.048-3.522-.044-5.468-.263-5.602-.185-.112-1.009-.23-1.83-.26-2.516-.094-3.885-1.405-4.352-4.168-.197-1.163-.138-1.355.52-1.708.98-.526 3.889-.522 4.535.005.28.229.73.333 1 .231.413-.155.458-.644.287-3.094-.197-2.82-.179-2.931.594-3.635.63-.573 1.089-.705 2.191-.627 1.383.097 1.396.11 1.49 1.37.115 1.54-.766 2.817-2.148 3.115-.51.11-1.014.424-1.121.698-.313.801-.15 8.542.184 8.745.167.102.693-.07 1.168-.38 1.02-.666 3.995-.766 5.094-.17.916.496.957 2.174.1 4.029-.817 1.768-1.938 2.422-4.474 2.613l-2.09.157v4.078h6.16c6.018 0 6.163.015 6.33.668.346 1.358.01 2.417-.787 2.473-.938.066-1.258.566-1.503 2.35-.107.776-.302 1.764-.435 2.195l-.24.784-4.923.013a571.82 571.82 0 01-10.106-.087z" id="path1459" fill="#f69264"/>
    <path d="M25.816 45.69l.09-3.372 3.974-.088c2.185-.049 4.144-.024 4.353.054.528.2-.007 2.928-.775 3.956-.322.431-1.06 1.102-1.641 1.49-.58.388-.927.716-.77.728.159.012 0 .143-.351.292-.351.148-1.613.28-2.804.291l-2.166.022zm.25-5.88c0-.28 2.326-2.694 2.874-2.982.415-.218.916.1 2.251 1.428l1.718 1.71h-3.421c-1.882 0-3.421-.07-3.421-.157zm7.714-2.146c-.555-.563-1.009-1.122-1.009-1.243s.575-.22 1.277-.22c1.243 0 1.277.029 1.277 1.08 0 1.487-.367 1.578-1.545.383zm-7.868-4.043c-.077-.22-.182-.895-.232-1.499l-.092-1.098-5.268-.157-5.268-.156-.1-1.012-.1-1.012 5.368-.086 5.368-.087-.046-1.411c-.026-.777.601-1.662 1.046-1.342.791.568 11.607.576 11.62.008.006-.215.158-.142.339.163.18.305.284 1.081.23 1.725-.09 1.055-.181 1.162-.925 1.077-.767-.087-.864.048-1.344 1.882-.285 1.087-.562 2.26-.615 2.604-.091.592-.376.633-4.968.714-3.728.067-4.905-.007-5.013-.313z" id="path1457" fill="#e58457"/>
    <path d="M20.719 30.633c-3.305-.057-5.508-.217-5.508-.4l-.001-.542c-.004-.459 20.705-1.194 21.156-.75.174.171.225.675.111 1.12l-.206.806-5.022-.07c-2.763-.039-7.501-.113-10.53-.164zm4.671-7.373c-.02-1.251-.007-3.635.03-5.297.045-2.03-.055-3.097-.305-3.249-.205-.124-1.045-.251-1.866-.282-2.516-.094-3.885-1.405-4.352-4.168-.197-1.163-.138-1.355.52-1.708.98-.526 3.889-.522 4.535.005.28.229.73.333 1 .231.413-.155.458-.644.287-3.094-.197-2.82-.179-2.931.594-3.635.63-.573 1.089-.705 2.191-.627 1.383.097 1.396.11 1.49 1.37.115 1.54-.766 2.817-2.148 3.115-.51.11-1.014.424-1.121.698-.313.801-.15 8.542.184 8.745.167.102.693-.07 1.168-.38 1.02-.666 3.995-.766 5.094-.17.916.496.957 2.174.1 4.029-.817 1.768-1.938 2.422-4.474 2.613l-2.09.157-.096 1.96c-.131 2.71-.694 2.471-.74-.313z" id="path1455" fill="#d06f45"/>
    <path d="M25.39 23.26c-.02-1.251-.007-3.635.03-5.297.045-2.03-.055-3.097-.305-3.249-.205-.124-1.045-.251-1.866-.282-2.516-.094-3.885-1.405-4.352-4.168-.197-1.163-.138-1.355.52-1.708.98-.526 3.889-.522 4.535.005.28.229.73.333 1 .231.413-.155.458-.644.287-3.094-.197-2.82-.179-2.931.594-3.635.63-.573 1.089-.705 2.191-.627 1.383.097 1.396.11 1.49 1.37.115 1.54-.766 2.817-2.148 3.115-.51.11-1.014.424-1.121.698-.313.801-.15 8.542.184 8.745.167.102.693-.07 1.168-.38 1.02-.666 3.995-.766 5.094-.17.916.496.957 2.174.1 4.029-.817 1.768-1.938 2.422-4.474 2.613l-2.09.157-.096 1.96c-.131 2.71-.694 2.471-.74-.313z" id="path1453" fill="#70a464"/>
    <path d="M26.285 20.873c-.56-.216-.56-.242.001-.74 1.825-1.623 6.36-4.566 6.63-4.304.402.39-.324 3.072-1.041 3.85-1.198 1.301-3.851 1.868-5.59 1.194zm-5.258-7.436c-.39-.27-.926-.898-1.188-1.396-.467-.887-.664-2.82-.287-2.82.296 0 5.403 3.675 5.863 4.219.363.43.177.486-1.633.486-1.335 0-2.29-.17-2.755-.49zm4.72-7.908c0-.414 2.844-3.524 3.223-3.524.575 0 .274 1.864-.43 2.65-.733.82-2.793 1.464-2.793.874z" id="path1451" fill="#4c7143"/>
  </g>
</svg>
