<svg width="213" height="213" viewBox="0 0 56.356 56.356" xmlns="http://www.w3.org/2000/svg">
  <g stroke-width=".265">
    <path d="M15.489 52.947c-.765-.215-1.675-.578-2.023-.806-1.583-1.037-2.795-3.93-2.8-6.683-.004-1.267-.127-1.558-1.312-3.104-7.62-9.943-6.905-23.482 1.705-32.28 3.365-3.438 6.923-5.535 11.527-6.793 3.13-.855 9.143-.85 12.285.013 8.608 2.36 15.233 9.004 17.662 17.714.823 2.951.81 9.307-.028 12.356-1.963 7.148-6.954 13.064-13.623 16.145-3.023 1.397-5.686 1.999-9.568 2.163-2.131.09-3.59.27-3.836.473-.83.682-2.354.988-5.424 1.09-2.277.074-3.569-.007-4.566-.287z" fill="#fbf7d0"/>
    <path d="M15.649 52.707c-.677-.182-1.532-.529-1.9-.77-1.68-1.1-2.822-3.764-2.822-6.574 0-1.307-.111-1.658-.76-2.4C8.82 41.422 6.98 38.351 6.13 36.23c-2.406-6.008-2.344-12.643.175-18.63C8.56 12.236 13.72 7.063 19.054 4.82c3.585-1.51 5.458-1.867 9.732-1.855 3.538.01 4.227.09 6.35.73 6.918 2.089 12.351 6.594 15.358 12.735 1.6 3.266 2.258 5.929 2.42 9.789.29 6.904-2.182 13.256-7.057 18.129-4.418 4.416-9.887 6.761-16.41 7.036-2.475.105-3.54.261-4.233.621-2.021 1.051-6.932 1.412-9.565.702zm15.65-42.091c1.091-.204 3.162-.714 4.601-1.133l2.618-.761-.721-.567c-.995-.783-3.318-1.619-5.837-2.1-2.702-.517-5.993-.31-8.695.549-1.803.572-4.574 1.94-4.356 2.15.171.165 5.67 1.698 6.966 1.943 1.903.359 3.174.34 5.424-.081z" fill="#fdf8af"/>
    <path d="M15.649 52.707c-.677-.182-1.532-.529-1.9-.77-1.68-1.1-2.822-3.764-2.822-6.574 0-1.307-.111-1.658-.76-2.4C8.82 41.422 6.98 38.351 6.13 36.23c-2.406-6.008-2.344-12.643.175-18.63C8.56 12.236 13.72 7.063 19.054 4.82c3.585-1.51 5.458-1.867 9.732-1.855 3.538.01 4.227.09 6.35.73 6.918 2.089 12.351 6.594 15.358 12.735 1.6 3.266 2.258 5.929 2.42 9.789.29 6.904-2.182 13.256-7.057 18.129-4.418 4.416-9.887 6.761-16.41 7.036-2.475.105-3.54.261-4.233.621-2.021 1.051-6.932 1.412-9.565.702zm17.502-39.569c5.54-.934 8.996-1.755 8.996-2.137 0-.43-2.68-2.388-4.582-3.346-5.428-2.733-12.18-2.714-17.773.05-1.804.892-4.645 3.093-4.366 3.384.074.077.907-.04 1.852-.26 2.76-.643 4.993-.089 7.569 1.877 1.168.892 1.349.945 3.25.945 1.106 0 3.38-.23 5.054-.513z" fill="#fcf08e"/>
    <path d="M15.649 52.707c-.677-.182-1.532-.529-1.9-.77-1.68-1.1-2.822-3.764-2.822-6.574 0-1.307-.111-1.658-.76-2.4C8.82 41.422 6.98 38.351 6.13 36.23c-2.406-6.008-2.344-12.643.175-18.63C8.56 12.236 13.72 7.063 19.054 4.82c3.585-1.51 5.458-1.867 9.732-1.855 3.538.01 4.227.09 6.35.73 6.918 2.089 12.351 6.594 15.358 12.735 1.6 3.266 2.258 5.929 2.42 9.789.29 6.904-2.182 13.256-7.057 18.129-4.418 4.416-9.887 6.761-16.41 7.036-2.475.105-3.54.261-4.233.621-2.021 1.051-6.932 1.412-9.565.702zm6.049-10.821c.904-.455 1.618-.85 1.587-.88-.03-.03-1.082.027-2.336.125-3.233.253-3.843.073-5.29-1.562-.67-.758-1.283-1.274-1.36-1.146-.078.127-.267.694-.422 1.26-.223.812-.2 1.186.11 1.786.216.417.42.76.452.762.033.002.536.18 1.118.397 1.582.59 4.1.285 6.14-.742zm10.705-26.507c.641-1.408 4.408-1.938 10.317-1.453.824.068 1.596.026 1.716-.094.794-.79-3.301-4.655-6.654-6.278-3.371-1.631-4.996-1.974-9.26-1.953-3.282.017-3.946.1-5.821.727-3.851 1.286-7.385 3.636-9.164 6.093-1.057 1.459-.672 1.698.737.458 2.9-2.552 7.269-2.585 9.948-.074.766.718.97 1.83.377 2.057-.193.074-1.116-.227-2.05-.67-2.392-1.13-4.917-1-6.004.311-.295.357.034.426 2.816.592 1.733.103 3.61.352 4.171.552.677.24 2.292.367 4.797.375 3.765.012 3.776.01 4.074-.643z" fill="#fced6f"/>
    <path d="M15.649 52.707c-.677-.182-1.532-.529-1.9-.77-1.68-1.1-2.822-3.764-2.822-6.574 0-1.307-.111-1.658-.76-2.4C8.82 41.422 6.98 38.351 6.13 36.23c-2.406-6.008-2.344-12.643.175-18.63C8.56 12.236 13.72 7.063 19.054 4.82c3.585-1.51 5.458-1.867 9.732-1.855 3.538.01 4.227.09 6.35.73 6.918 2.089 12.351 6.594 15.358 12.735 1.6 3.266 2.258 5.929 2.42 9.789.29 6.904-2.182 13.256-7.057 18.129-4.418 4.416-9.887 6.761-16.41 7.036-2.475.105-3.54.261-4.233.621-2.021 1.051-6.932 1.412-9.565.702zm6.324-9.184c.338-.128.595-.45.595-.743 0-.714 1.054-1.39 3.77-2.415 1.272-.481 2.284-.904 2.248-.939-.035-.035-1.732.277-3.769.695-2.037.418-4.581.765-5.653.771-1.918.011-1.963-.004-2.867-.98-.505-.546-1.106-1.456-1.335-2.021-.374-.922-.452-.981-.752-.572-.563.77-1.034 4.01-.692 4.761.372.817 1.407 1.502 2.657 1.76 1.107.228 4.908.02 5.798-.317zm11.486-25.638c1.88-.89 2.492-.958 3.77-.424.749.313 1.304.316 3.629.02 3.557-.453 5.523-1.048 5.523-1.671 0-1.151-2.602-4.394-5.016-6.25C34.7 4.434 25.51 3.875 18.203 8.15c-3.304 1.934-7.43 6.673-6.935 7.965.159.413.466.503 4.157 1.225 2.199.43 2.58.444 3.043.112.29-.209.933-.673 1.428-1.032.575-.418 1.256-.653 1.89-.653.825 0 1.13.168 1.809.992.45.546.997 1.2 1.218 1.456.342.394.887.463 3.685.463 3.099 0 3.378-.045 4.96-.794zm.024-1.326c-.4-.164-.596-.468-.596-.928 0-1.129 1.386-1.55 5.16-1.568 2.665-.012 3.345.07 4.233.515.706.352 1.058.705 1.058 1.058 0 .498-.23.539-3.968.692-2.183.089-4.267.233-4.63.32-.364.086-.93.046-1.257-.089zm-19.51-1.836c-.629-1.984 3.776-4.234 7.076-3.614 1.216.228 3.205 1.57 3.595 2.426.614 1.347-.21 1.526-2.38.516-2.189-1.019-4.358-.823-6.226.563-1.024.76-1.844.803-2.064.11z" fill="#fdea4f"/>
    <path d="M15.649 52.707c-.677-.182-1.532-.529-1.9-.77-1.68-1.1-2.822-3.764-2.822-6.574 0-1.307-.111-1.658-.76-2.4C8.82 41.422 6.98 38.351 6.13 36.23c-2.406-6.008-2.344-12.643.175-18.63C8.56 12.236 13.72 7.063 19.054 4.82c3.585-1.51 5.458-1.867 9.732-1.855 3.538.01 4.227.09 6.35.73 6.918 2.089 12.351 6.594 15.358 12.735 1.6 3.266 2.258 5.929 2.42 9.789.29 6.904-2.182 13.256-7.057 18.129-4.418 4.416-9.887 6.761-16.41 7.036-2.475.105-3.54.261-4.233.621-2.021 1.051-6.932 1.412-9.565.702zm6.324-9.184c.338-.128.595-.45.595-.743 0-.714 1.054-1.39 3.77-2.415 1.272-.481 2.284-.904 2.248-.939-.035-.035-1.732.277-3.769.695-2.037.418-4.581.765-5.653.771-1.918.011-1.963-.004-2.867-.98-.505-.546-1.106-1.456-1.335-2.021-.374-.922-.452-.981-.752-.572-.563.77-1.034 4.01-.692 4.761.372.817 1.407 1.502 2.657 1.76 1.107.228 4.908.02 5.798-.317zm5.04-20.003c3.539-.088 4.946-.035 5.226.197.442.367.458.232.134-1.162-.343-1.481.25-3.537 1.289-4.465 1.2-1.072 2.887-1.042 3.821.068.768.912 1.093 2.245.876 3.585l-.15.919.673-.53c.37-.29 1.081-.605 1.58-.699.855-.16 3.488-2.479 5.323-4.688.772-.928.754-1.153-.21-2.674-2.478-3.906-6.823-7.001-11.785-8.392-2.707-.76-7.053-.816-9.767-.127-4.04 1.025-8.082 3.558-10.732 6.725-1.934 2.31-2.46 3.601-1.77 4.333.183.192.645.766 1.029 1.275 1.583 2.104 3.037 3.388 4.213 3.723.646.183 1.532.665 1.969 1.07 1.02.944 1.946 1.318 2.778 1.12.364-.086 2.84-.21 5.503-.278zm-7.745-.945c-.847-.847-.933-1.07-.933-2.428 0-2.5 1.474-4.379 3.436-4.379 1.839 0 3.002 2.207 2.38 4.516-.404 1.5-1.729 2.871-2.965 3.068-.874.139-1.09.051-1.918-.777zm14.214-6.015c-.4-.165-.595-.469-.595-.929 0-1.129 1.385-1.55 5.16-1.568 2.665-.012 3.344.07 4.232.515.706.353 1.059.705 1.059 1.058 0 .498-.23.539-3.969.692-2.183.09-4.266.233-4.63.32-.364.086-.93.046-1.257-.088zm-19.509-1.837c-.63-1.983 3.775-4.233 7.076-3.614 1.215.228 3.205 1.57 3.594 2.426.614 1.347-.21 1.526-2.38.516-2.189-1.019-4.358-.823-6.226.563-1.024.76-1.844.803-2.064.11z" fill="#fbd14d"/>
    <path d="M15.649 52.707c-.677-.182-1.532-.529-1.9-.77-1.68-1.1-2.822-3.764-2.822-6.574 0-1.307-.111-1.658-.76-2.4C8.82 41.422 6.98 38.351 6.13 36.23c-2.406-6.008-2.344-12.643.175-18.63C8.56 12.236 13.72 7.063 19.054 4.82c3.585-1.51 5.458-1.867 9.732-1.855 3.538.01 4.227.09 6.35.73 6.918 2.089 12.351 6.594 15.358 12.735 1.6 3.266 2.258 5.929 2.42 9.789.29 6.904-2.182 13.256-7.057 18.129-4.418 4.416-9.887 6.761-16.41 7.036-2.475.105-3.54.261-4.233.621-2.021 1.051-6.932 1.412-9.565.702zm5.332-7.066c3.193-.496 2.94-.304 2.854-2.155l-.076-1.635 1.72-.697c.946-.383 2.748-.968 4.005-1.3 2.73-.72 3.127-.92 2.691-1.356-.311-.311-.774-.231-9.607 1.651-5.368 1.145-6.988.193-7.632-4.486-.265-1.923-.671-2.829-1.14-2.54-.137.085-.17.815-.074 1.657.122 1.079.012 2.234-.387 4.075-.883 4.077-.67 5.857.831 6.948.49.356.999.404 2.846.269a60.639 60.639 0 003.969-.431zM33.5 35.326c-1.05-1.05-8.431-2.199-10.403-1.619-.798.235-.7.252.698.128 2.053-.183 5.357.294 7.687 1.108 2.052.717 2.422.787 2.017.383zM27.013 23.52c3.747-.094 4.937-.043 5.26.225.372.309.395.246.214-.574-.313-1.416-.215-2.297.395-3.558.65-1.343.989-1.668 2.05-1.973 1.836-.526 3.207.985 3.323 3.661l.055 1.264.697-.515c.432-.32 1.489-.62 2.778-.789 2.777-.365 5.468-1.145 6.007-1.742 1.36-1.501-2.891-7.852-7.233-10.807-3.533-2.405-7.321-3.58-11.642-3.612-3.768-.028-5.743.44-9.504 2.251-2.454 1.181-3.04 1.61-5.309 3.88-2.645 2.647-4.25 5.152-4.637 7.23-.173.93-.135.997.837 1.487.56.282 1.673.653 2.474.825 4.758 1.022 5.176 1.155 5.953 1.89 1.01.955 1.94 1.334 2.778 1.135.364-.086 2.84-.211 5.504-.278zm-6.694-.272c-2.079-.49-2.504-3.773-.784-6.052 1.344-1.782 3.206-1.71 4.173.16.832 1.609.201 4.434-1.193 5.346-.79.516-1.537.702-2.196.546zm12.664-7.082c-.48-1.253 1.302-2.01 4.798-2.037 3.48-.028 5.659.72 5.245 1.799-.127.33-.57.396-2.304.342-1.18-.037-3.365.03-4.853.15-2.465.197-2.722.175-2.886-.254zm-18.705-1.104c-.097-.097-.177-.505-.177-.906 0-2.02 4.91-3.877 7.59-2.871 1.207.452 2.63 1.54 2.959 2.263.607 1.333-.226 1.509-2.386.503-2.184-1.017-4.216-.833-6.306.57-.948.636-1.374.748-1.68.441z" fill="#ceb495"/>
    <path d="M15.821 52.442c-.728-.178-1.655-.542-2.061-.809-1.463-.962-2.57-3.826-2.57-6.647 0-1.028-.192-1.437-1.456-3.096-3.838-5.037-5.655-11.386-4.935-17.245 1.297-10.553 8.348-18.43 18.765-20.96 2.687-.653 7.776-.59 10.726.133 8.645 2.117 15.338 8.691 17.688 17.375.82 3.03.82 8.876 0 11.906-1.175 4.341-3.743 8.658-6.879 11.56-4.499 4.166-9.716 6.245-16.14 6.432-2.459.072-3.376.195-3.713.5-1.164 1.053-6.591 1.543-9.424.851zm5.16-6.801c3.193-.495 2.94-.304 2.853-2.154l-.075-1.635 1.72-.697c.945-.384 2.748-.969 4.005-1.3 2.729-.72 3.127-.92 2.69-1.356-.31-.312-.774-.232-9.606 1.65-5.369 1.145-6.988.193-7.632-4.486-.265-1.923-.671-2.829-1.14-2.54-.137.086-.17.815-.075 1.658.122 1.078.013 2.234-.386 4.074-.884 4.078-.67 5.857.83 6.948.491.356 1 .404 2.847.27a60.639 60.639 0 003.968-.432zm12.518-10.315c-1.05-1.05-8.43-2.198-10.403-1.619-.797.235-.7.253.7.128 2.052-.182 5.356.294 7.686 1.108 2.052.718 2.422.788 2.017.383zM27.013 23.52c3.747-.094 4.936-.043 5.26.225.372.31.395.247.214-.574-.313-1.415-.216-2.297.395-3.558.65-1.342.988-1.668 2.05-1.972 1.835-.527 3.207.984 3.323 3.66l.055 1.264.697-.515c.431-.319 1.489-.619 2.778-.789 2.777-.365 5.468-1.145 6.007-1.741 1.36-1.502-2.891-7.853-7.233-10.807-3.534-2.405-7.321-3.58-11.642-3.612-3.768-.028-5.743.44-9.505 2.25-2.453 1.182-3.04 1.61-5.308 3.881-2.645 2.647-4.251 5.151-4.637 7.23-.173.93-.135.997.837 1.486.56.282 1.673.653 2.473.825 4.759 1.023 5.176 1.155 5.954 1.89 1.01.955 1.94 1.335 2.778 1.136.363-.086 2.84-.212 5.503-.278zm-6.695-.271c-2.078-.491-2.503-3.773-.783-6.053 1.344-1.782 3.205-1.71 4.173.16.831 1.61.201 4.435-1.193 5.346-.79.517-1.537.702-2.196.547zm12.664-7.082c-.48-1.253 1.303-2.01 4.799-2.038 3.48-.027 5.658.72 5.244 1.799-.126.33-.568.396-2.303.342-1.181-.037-3.365.03-4.853.15-2.466.198-2.722.175-2.887-.253zm-18.705-1.104c-.097-.097-.176-.505-.176-.907 0-1.425 2.975-3.15 5.432-3.15 2.544 0 5.686 2.03 5.222 3.373-.171.495-.67.407-2.21-.392-2.119-1.1-3.916-1.02-5.997.264-1.63 1.007-1.958 1.124-2.27.812z" fill="#fdd031"/>
    <path d="M15.821 52.442c-.728-.178-1.655-.542-2.061-.809-1.463-.962-2.57-3.826-2.57-6.647 0-1.028-.192-1.437-1.456-3.096-3.838-5.037-5.655-11.386-4.935-17.245 1.297-10.553 8.348-18.43 18.765-20.96 2.687-.653 7.776-.59 10.726.133 8.645 2.117 15.338 8.691 17.688 17.375.82 3.03.82 8.876 0 11.906-1.175 4.341-3.743 8.658-6.879 11.56-4.499 4.166-9.716 6.245-16.14 6.432-2.459.072-3.376.195-3.713.5-1.164 1.053-6.591 1.543-9.424.851zm5.53-6.106c1.296-.35 2.54-.82 2.764-1.045.368-.368.363-.501-.04-1.348-.592-1.24-.566-1.604.145-2.102.53-.372 3.513-1.387 6.815-2.32.732-.207 1.19-.49 1.19-.734 0-.584-1.653-.408-6.482.691-4.606 1.049-7.205 1.345-8.242.94-1.287-.504-2.096-1.926-2.39-4.2-.275-2.122-.819-3.4-1.316-3.093-.182.112-.222.719-.112 1.691.12 1.06.016 2.264-.344 4-.284 1.367-.584 2.974-.668 3.571-.195 1.4.469 3.66 1.232 4.195.922.646 4.6.524 7.449-.246zm5.847-8.612c3.446-.855 5.708-.986 6.747-.392.773.442 2.276.517 2.517.126.093-.15.963-.676 1.934-1.17.976-.497 2.122-1.334 2.56-1.87a886.46 886.46 0 011.483-1.806c.604-.734 2.22-3.974 2.221-4.452 0-.097.09-.266.199-.375.109-.11.198-.52.198-.912 0-.393.238-1.017.53-1.387.29-.37.529-.785.529-.921 0-.137.254-.535.564-.885.311-.35.861-1.272 1.222-2.05.602-1.295.633-1.538.367-2.862-1.39-6.917-10.241-13.87-18.538-14.56-7.576-.63-16.727 5.163-19.9 12.598-.96 2.25-.976 3.713-.058 5.447.384.727.78 1.38.88 1.453.352.256 1.557 2.791 1.887 3.969.599 2.14 1.198 3.035 2.704 4.035 1.117.741 1.615 1.3 2.172 2.44.705 1.44 1.72 2.52 2.368 2.52.176 0 .536.239.8.53.262.291.624.53.801.53.178 0 .472.178.653.396.475.572 1.574.486 5.16-.402zm5.516-2.778a20.327 20.327 0 00-8.745-1.358c-2.494.153-2.73.126-2.98-.342-.203-.379-.171-.608.127-.907 1.304-1.304 9.594-.612 13.076 1.092 1.005.492 1.417 1.538.768 1.949-.448.284-.33.307-2.246-.434zm.84-10.812c-1.306-1.307-1.375-3.717-.155-5.431 1.006-1.413 3.259-1.518 4.112-.191 1.967 3.057-1.54 8.039-3.957 5.622zm-13.603-1.315c-.892-.51-1.331-1.434-1.342-2.821-.012-1.48.685-2.844 1.863-3.648 1.059-.722 1.948-.61 2.812.356 2.217 2.48-.611 7.667-3.333 6.113zm13.032-6.652c-.48-1.253 1.303-2.01 4.799-2.037 3.48-.028 5.658.72 5.244 1.799-.126.33-.569.396-2.303.342-1.181-.037-3.365.03-4.853.15-2.466.197-2.722.175-2.887-.254zm-18.705-1.104c-.097-.097-.176-.505-.176-.906 0-1.425 2.975-3.15 5.432-3.15 2.544 0 5.685 2.03 5.221 3.373-.17.495-.668.406-2.208-.393-2.12-1.1-3.917-1.02-5.998.265-1.631 1.006-1.958 1.123-2.27.811z" fill="#f8b62b"/>
    <path d="M15.821 52.442c-.728-.178-1.655-.542-2.061-.809-1.463-.962-2.57-3.826-2.57-6.647 0-1.028-.192-1.437-1.456-3.096-2.775-3.641-4.362-7.58-4.935-12.243-.662-5.382.85-11.328 4.1-16.127 1.48-2.185 4.27-5.012 4.69-4.753.2.124.263.096.16-.071-.22-.356.506-.965.876-.736.156.096.25.017.21-.175-.04-.193.131-.335.38-.316.25.02.428-.085.397-.231-.03-.147.11-.327.312-.4.247-.09.298-.022.158.206-.14.224-.105.275.1.148.17-.105.243-.298.163-.428-.203-.328 2.072-1.44 4.837-2.364 4.34-1.452 8.53-1.615 13.26-.517 2.503.581 6.775 2.467 6.52 2.88-.093.15-.005.207.201.128.202-.078.655.111 1.006.42.352.308.46.473.242.366-.23-.113-.305-.095-.18.042.12.13.417.24.661.241.244.002.447.182.45.4.004.219.197.366.429.328.473-.078 3.407 2.916 4.702 4.798 1.275 1.853 2.862 5.345 3.503 7.707.821 3.028.822 8.873.001 11.906-1.175 4.341-3.743 8.658-6.878 11.56-4.5 4.166-9.717 6.245-16.14 6.432-2.46.072-3.377.195-3.714.5-1.163 1.053-6.591 1.543-9.424.851zm4.949-4.421c1.302-.306 2.646-.503 2.986-.438.561.107.605.042.482-.713-.092-.568 0-.943.288-1.182.533-.442.547-1.442.026-1.874-.218-.181-.397-.619-.397-.973 0-.528.27-.763 1.498-1.306.823-.364 2.699-.984 4.167-1.377 2.129-.57 2.723-.835 2.93-1.308.323-.731.564-.748.93-.063.349.651.108 1.14-1.169 2.367-1.6 1.54-1.342 1.57 2.64.322 2.458-.771 5.383-2.506 7.597-4.505 2.39-2.159 5.015-6.902 5.397-9.75.093-.696.456-2.031.805-2.967.687-1.837.669-2.694-.111-5.178-1.95-6.21-6.76-10.886-14.348-13.95l-2.53-1.02 1.455.175c.8.097 1.73.28 2.067.408.851.322 1.393.26.578-.067-3.212-1.284-9.227-1.47-13.288-.408-1.415.37-2.784.808-3.042.974-.427.274-.422.286.06.126 1.39-.462 4.672-1.217 4.923-1.133.156.052-.877.564-2.297 1.137-3.45 1.394-6.69 3.576-9.111 6.135-2.228 2.353-3.471 4.291-4.405 6.864-.96 2.643-1.062 4.419-.356 6.183.32.8.69 2.208.822 3.128.225 1.572 1.833 5.414 2.416 5.774.139.086.447-.039.686-.277.4-.4.454-.3.725 1.356.26 1.585.22 2.138-.35 4.834-.798 3.775-.763 6.7.093 7.855 1.059 1.428 4.009 1.748 7.833.85zm-4.247-8.831c-.773-.88-.913-1.317-1.197-3.71a25.476 25.476 0 00-.317-1.949c-.183-.848-.166-.876.373-.587.801.429 1.263 1.464 1.588 3.56.328 2.123.753 2.688 2.403 3.196l1.21.373-1.626.018c-1.535.018-1.671-.033-2.434-.902zm15.237-4.662c-2.939-.97-6.75-1.466-8.463-1.1-.955.203-1.358.184-1.716-.082-.442-.328-.443-.373-.015-.807 1.07-1.086 7.502-.647 11.453.782 1.343.485 1.587.672 1.587 1.212 0 .35-.119.666-.264.7-.146.033-1.308-.284-2.582-.705zm1.781-10.722c-1.832-1.976-.475-6.185 1.995-6.185 2.473 0 3.242 3.792 1.206 5.95-1.107 1.175-2.252 1.259-3.2.235zM19.85 22.582c-.241-.182-.629-.793-.862-1.357-1.35-3.276 2.342-7.054 4.372-4.474.785.998.93 2.294.412 3.652-.774 2.028-2.702 3.098-3.922 2.179zm13.134-6.415c-.48-1.253 1.302-2.01 4.799-2.037 3.48-.028 5.658.72 5.244 1.799-.127.33-.569.396-2.304.341-1.18-.036-3.364.031-4.853.15-2.465.198-2.722.176-2.886-.253zm-18.705-1.104c-.097-.097-.176-.505-.176-.907 0-1.424 2.975-3.15 5.431-3.15 2.544 0 5.686 2.03 5.222 3.374-.17.495-.668.406-2.209-.393-2.119-1.1-3.916-1.02-5.998.265-1.63 1.006-1.958 1.123-2.27.811zm25.371-8.96c-.282-.214-.64-.384-.794-.379-.154.005.018.18.382.388.857.49 1.065.485.412-.009zm-2-.918c-.218-.14-.516-.256-.661-.256-.146 0-.086.115.132.256.218.142.516.257.662.257s.086-.115-.133-.257z" fill="#d0a45e"/>
    <path d="M16.498 52.245c-1.93-.32-2.9-.936-3.821-2.425-.652-1.054-.794-1.618-.933-3.691l-.165-2.447-1.386-1.708C3.6 33.85 3.293 21.9 9.453 13.267c2.572-3.605 7.047-6.859 11.263-8.19 1.931-.61 4.499-1.143 4.233-.88-.073.072-1.306.62-2.74 1.215C18.75 6.85 15.7 8.92 13.293 11.465c-2.216 2.342-3.46 4.282-4.393 6.851-.96 2.644-1.062 4.42-.356 6.183.32.8.69 2.209.822 3.129.226 1.572 1.834 5.413 2.416 5.773.14.086.448-.038.686-.276.4-.401.455-.3.726 1.358.258 1.577.22 2.137-.325 4.7-1.067 5.031-.721 7.98 1.036 8.813 1.397.664 4.096.684 6.765.052 1.357-.32 2.746-.53 3.085-.466.562.108.606.043.483-.713-.092-.567 0-.942.288-1.182.533-.442.547-1.441.026-1.873-.218-.181-.397-.62-.397-.973 0-.528.27-.763 1.497-1.306.824-.364 2.7-.984 4.168-1.378 2.128-.57 2.722-.835 2.93-1.307.323-.732.564-.748.93-.063.348.65.107 1.139-1.169 2.367-1.6 1.539-1.342 1.57 2.639.322 2.46-.772 5.384-2.506 7.597-4.505 2.39-2.159 5.016-6.902 5.398-9.75.093-.697.455-2.032.805-2.967.687-1.838.669-2.695-.112-5.179-1.95-6.21-6.76-10.886-14.348-13.949l-2.53-1.021 1.444.175c5.85.711 12.455 5.263 15.714 10.83 5.457 9.321 3.936 21.167-3.698 28.801-4.422 4.422-9.826 6.701-16.414 6.923-2.54.086-3.434.22-4.234.633-1.848.954-5.267 1.276-8.274.777zm.025-13.055c-.773-.88-.914-1.316-1.197-3.71a25.476 25.476 0 00-.318-1.948c-.182-.848-.165-.876.374-.588.801.429 1.263 1.464 1.587 3.56.33 2.123.754 2.688 2.403 3.196l1.211.373-1.626.019c-1.535.017-1.671-.033-2.434-.902zm16.364-4.532c-2.29-1-5.326-1.491-8.407-1.36-3.064.132-3.649-.03-2.88-.8.649-.649 4.397-.752 7.376-.203 3.54.652 5.609 1.446 5.715 2.193.102.717-.436.768-1.804.17zm.654-10.852c-1.241-1.34-1.08-3.842.334-5.187 1.12-1.065 1.95-1.164 2.92-.348 1.478 1.244 1.45 3.707-.061 5.31-1.099 1.164-2.247 1.245-3.193.225zm-13.904-1.667c-.634-.635-.773-.996-.773-2.01 0-3.028 2.371-4.927 4.111-3.293 1.303 1.224 1.071 3.902-.46 5.333-1.022.954-1.902.945-2.878-.03zm13.696-6.205c-.108-.283.063-.578.505-.868.894-.585 5.359-.81 7.22-.363 1.248.299 1.844.664 1.556.952-.064.064-1.475.163-3.135.22-1.661.058-3.686.191-4.5.297-1.237.16-1.508.12-1.645-.238zm-18.967-1.585c0-.66 1.031-1.684 2.31-2.295 2.421-1.156 5.48-.664 7.177 1.156 1 1.071.458 1.325-1.1.516-1.077-.56-1.754-.717-3.118-.725-1.517-.01-1.923.101-3.127.85-1.484.922-2.142 1.075-2.142.498z" fill="#f8ab13"/>
    <path d="M16.498 52.245c-1.923-.319-2.9-.936-3.806-2.4-.56-.906-.783-1.65-.867-2.897l-.114-1.679.407 1.456c.666 2.38 1.855 3.602 3.873 3.98 1.876.352 6.449.6 7.48.407.857-.16.95-.258.896-.95-.037-.493.153-.996.526-1.394.697-.742.734-1.176.153-1.817-.399-.442-.399-.527 0-1.136.582-.888.544-1.658-.097-2-.69-.37-.676-1.191.03-1.686.308-.215 1.767-.77 3.241-1.233 4.522-1.418 4.527-1.42 4.619-2.053.106-.74.47-.75.859-.023.402.752-.279 1.682-2.009 2.745-2.055 1.264-3.3 2.587-3.3 3.508 0 1.241.521 1.488 2.71 1.285 4.064-.378 8.67-2.55 11.804-5.565 4.43-4.263 6.63-8.96 7.317-15.632.558-5.412-2.019-11.66-6.559-15.906-1.643-1.537-1.731-1.66-.626-.88 1.967 1.39 4.77 4.493 6.077 6.724 5.463 9.333 3.946 21.175-3.692 28.813-4.422 4.422-9.826 6.7-16.414 6.923-2.54.086-3.434.22-4.234.632-1.848.955-5.267 1.276-8.274.778zM10.193 42.02C4.575 34.855 3.427 25.259 7.22 17.166c1.305-2.785 2.917-5.061 4.933-6.963 2.557-2.415 3.569-2.927 1.281-.649C8.707 14.26 6.97 18.642 7.301 25.03c.175 3.39.9 6.27 2.346 9.318 1.23 2.593 2.205 3.754 2.612 3.11.135-.214.248-.71.25-1.101.003-.392.124-.786.27-.876.42-.26.307 1.61-.266 4.366-.287 1.382-.523 2.84-.525 3.241-.002.4-.093.724-.202.72-.11-.004-.826-.808-1.593-1.786zm6.18-2.99c-.376-.447-.69-.894-.699-.991-.13-1.617-.498-4.254-.645-4.61-.136-.33-.067-.463.238-.463.712 0 1.409 1.516 1.741 3.791.173 1.184.428 2.362.565 2.62.432.806-.442.554-1.2-.346zm16.513-4.373c-2.289-1-5.325-1.49-8.406-1.36-1.777.077-3.046.025-3.14-.127-.723-1.17 3.839-1.627 7.842-.788 3.511.737 5.557 1.543 5.557 2.19 0 .617-.574.644-1.853.085zm.655-10.852c-1.241-1.34-1.08-3.842.333-5.187 1.12-1.065 1.95-1.164 2.92-.348 1.479 1.244 1.45 3.707-.06 5.31-1.099 1.164-2.247 1.245-3.193.225zm-13.904-1.667c-.634-.634-.773-.996-.773-2.01 0-3.028 2.371-4.927 4.11-3.293 1.303 1.224 1.072 3.902-.46 5.333-1.022.954-1.901.945-2.877-.03zm13.696-6.205c-.108-.283.063-.578.505-.867.893-.586 5.358-.81 7.22-.364 1.247.299 1.844.664 1.556.952-.064.064-1.475.163-3.136.22-1.66.058-3.685.192-4.5.297-1.236.16-1.507.12-1.645-.238zM14.366 14.35c0-.66 1.03-1.684 2.31-2.295 2.42-1.156 5.48-.664 7.177 1.156 1 1.071.458 1.326-1.1.516-1.077-.56-1.754-.717-3.118-.725-1.517-.01-1.924.101-3.127.85-1.484.922-2.142 1.075-2.142.498z" fill="#ea940b"/>
    <path d="M25.342 50.144c-.125-.568-.052-.948.244-1.275.521-.576.54-1.352.05-2.023-.32-.437-.32-.61 0-1.228.501-.969.477-1.134-.285-1.956-.36-.39-.59-.814-.51-.943.385-.625 4.256-2.043 7.45-2.73 1.42-.306.792.513-1.353 1.762-2.588 1.508-3.344 2.357-3.336 3.745.008 1.481.407 3.105.834 3.398.506.346 3.812.017 6.045-.601 3.54-.981 6.37-2.635 9.211-5.38 3.532-3.414 5.727-6.958 7.097-11.458.635-2.084.71-2.763.73-6.53.02-4.067.033-4.157.376-2.777.592 2.379.506 7.902-.165 10.609-1.065 4.295-3.168 8.014-6.31 11.155-4.457 4.457-9.815 6.7-16.548 6.927l-3.353.113zM10.054 41.83c-1.816-2.302-3.56-5.851-4.33-8.808-.547-2.103-.667-3.169-.658-5.876.006-1.82.166-3.95.356-4.734.336-1.391.346-1.332.375 2.38.024 2.982.153 4.268.596 5.925.658 2.464 2.732 6.776 4.262 8.864 1.004 1.368 1.055 1.526.86 2.646l-.209 1.19zm6.03-3.31c-.09-.147-.208-1.285-.26-2.529-.08-1.913-.038-2.215.275-1.955.373.31.496.839.776 3.362.125 1.118.079 1.39-.235 1.39-.215 0-.465-.121-.556-.268zm16.802-3.862c-2.287-1-5.326-1.491-8.4-1.36-2.429.104-2.977.06-2.977-.24 0-.6 1.204-.885 3.733-.885 3.897 0 9.241 1.384 9.446 2.447.111.578-.534.592-1.802.038zm.968-10.701c-1.432-1.127-1.43-3.89.006-5.305 1.16-1.143 1.98-1.222 3.023-.289.79.706.88.93.88 2.214 0 1.647-.749 3.116-1.84 3.613-.943.43-1.273.392-2.069-.233zm-14.218-1.818c-.634-.634-.773-.996-.773-2.01 0-3.052 2.428-4.963 4.136-3.254 1.37 1.369.922 4.484-.793 5.53-1.136.693-1.666.638-2.57-.266zM5.92 20.377c.013-.308.076-.37.16-.16.077.191.067.42-.02.507-.089.088-.151-.068-.14-.347zm27.413-4.442c-.108-.284.063-.579.505-.868.893-.586 5.358-.81 7.22-.364 1.247.3 1.844.664 1.556.952-.064.064-1.475.163-3.136.221-1.66.058-3.685.19-4.5.296-1.236.16-1.507.121-1.645-.237zm-18.967-1.586c0-.66 1.03-1.684 2.31-2.294 2.42-1.156 5.48-.664 7.177 1.155 1 1.072.458 1.326-1.1.516-1.077-.56-1.754-.717-3.118-.725-1.517-.009-1.924.102-3.127.85-1.484.923-2.142 1.076-2.142.498z" fill="#ce760b"/>
    <path d="M26.159 50.542c-.606-.606-.51-1.314.246-1.809.66-.433.661-.432.661.467 0 1.035.34 1.4 1.455 1.563.52.076.322.13-.576.155-.936.027-1.502-.092-1.786-.376zm.15-3.555l-.625-.85 1.086-1.086.169.673c.093.37.13.996.082 1.392l-.087.72zm-.359-3.28c-.575-.72-.65-.958-.374-1.187.766-.635 5.723-2.037 5.723-1.618 0 .119-.647.581-1.438 1.027-.79.447-1.773 1.232-2.182 1.745-.41.514-.805.934-.877.934-.073 0-.456-.406-.852-.901zm7.202-9.058c-2.56-1.094-7.782-1.87-9.861-1.466-.785.153-1.32.152-1.416-.003-.74-1.199 5.918-1.083 9.84.171 2.47.79 2.993 1.077 2.625 1.437-.17.166-.589.117-1.188-.14zm.542-10.99c-2.059-2.21.107-6.624 2.753-5.61 1.125.432 1.543 2.875.771 4.502-.803 1.692-2.487 2.222-3.524 1.109zm-13.986-1.62c-1.213-1.29-.952-3.835.521-5.074 1.66-1.397 3.5-.3 3.464 2.064-.042 2.823-2.451 4.643-3.985 3.01zm13.625-6.105c-.11-.286.071-.583.543-.892 1.404-.92 8.8-.505 8.8.494 0 .128-.089.234-.198.235-1.963.02-6.37.255-7.5.401-1.236.16-1.507.12-1.645-.238zM14.366 14.35c0-.66 1.03-1.684 2.31-2.294 2.42-1.156 5.48-.664 7.177 1.155 1 1.072.458 1.326-1.1.516-1.077-.56-1.754-.717-3.118-.725-1.517-.009-1.924.102-3.127.85-1.484.922-2.142 1.076-2.142.498z" fill="#9d6214"/>
    <path d="M26.023 43.171c-.25-.302-.208-.435.215-.661.29-.156.795-.283 1.121-.283h.593l-.621.661c-.72.765-.88.8-1.308.283zm7.482-22.222c.079-1.311.21-1.666.811-2.183.394-.339.99-.616 1.323-.616 1.096 0 1.921 1.457 1.585 2.798l-.183.726-.426-.902c-.343-.727-.578-.902-1.207-.902-.787 0-.894.125-1.708 1.984-.242.554-.274.406-.195-.905zm-13.913-.042c-.277-.279-.248-1.8.05-2.582.346-.912 1.327-1.763 2.031-1.763 1.187 0 2.125 2.091 1.425 3.175-.21.326-.258.298-.261-.157-.005-.63-.773-1.43-1.373-1.43-.62 0-1.344.959-1.517 2.008-.086.521-.246.858-.355.749zm14.089-5.1c0-.157.268-.431.595-.61.762-.418 6.488-.469 7.171-.064.385.228-.188.33-2.645.471-1.725.1-3.583.25-4.129.334-.626.096-.992.048-.992-.131zm-18.747-1.764c.053-.275.604-.857 1.225-1.293 1.953-1.373 5.214-1.273 7.07.217 1.1.883.686 1.11-.701.385-.841-.44-1.613-.605-2.87-.614-1.7-.012-2.399.213-4.064 1.309-.741.487-.755.487-.66-.004z" fill="#74400a"/>
  </g>
</svg>
