<svg xmlns="http://www.w3.org/2000/svg" width="189" height="189" viewBox="0 0 50.006 50.006" version="1.1" id="svg8">
  <g id="layer1" transform="translate(0 -246.994)" fill="none" stroke="#000" stroke-linecap="butt" stroke-linejoin="miter" stroke-opacity="1" stroke-miterlimit="4" stroke-dasharray="none">
    <path d="M6.953 276.362l35.653-.064-17.396-18.032-3.872 6.694-1.533-2.274-2.446 4.323-5.109 4.324-.134-1.921z" id="path826" stroke-width=".794"/>
    <path d="M8.136 274.808l3.066-3.203.134 1.217 3.415-2.562.806 1.12 2.205-3.138 1.586 3.01 2.608-4.387.216 5.092 2.742-9.576 1.264 4.676.269-4.004 2.796 6.246.188-3.043 11.938 8.904-15.621-16.462-.296-.289-.054-.032-4.033 7.11-1.56-2.402-2.016 3.876-5.78 4.74-.135-1.89z" id="path828" stroke-width=".265"/>
  </g>
</svg>
