<svg width="250" height="250" viewBox="0 0 66.146 66.146" xmlns="http://www.w3.org/2000/svg">
  <g fill="none" stroke="#000" stroke-width="1.323">
    <path d="M20.237 59.11c5.847-.017 17.541-.05 23.782-.201 6.24-.152 7.028-.42 7.682-.84s1.172-.99 1.49-1.46.436-.84.52-1.193c.084-.353.134-.689.092-1.092-.042-.402-.176-.873-.393-1.444s-.52-1.242-2.916-5.624c-2.395-4.383-6.886-12.476-9.19-16.735-2.304-4.26-2.42-4.675-2.537-5.094-.017-5.592-.034-11.183.013-14.073s.17-3.105.296-3.323c.126-.218.26-.453.386-.73.125-.277.243-.596.276-.932a2.436 2.436 0 00-.092-.924.793.793 0 00-.318-.453c-.143-.1-.327-.185-2.572-.227-2.246-.042-6.55-.042-8.787-.033-2.237.008-2.405.025-2.555.075s-.285.135-.386.286-.167.37-.2.621c-.034.252-.034.504.007.77s.126.54.218.75c.092.21.193.36.294.52.1.16.2.328.284 3.317.084 2.989.151 8.798.218 14.608-4.858 9-9.717 18-12.205 22.828-2.488 4.827-2.605 5.482-2.588 6.078.016.596.167 1.134.385 1.646s.503.999.78 1.36c.276.361.544.596.946.848s.938.52 1.164.638c.226.118.142.084.1.067-.041-.017-.041-.017 5.806-.033z"/>
    <path d="M34.085 11.72c0 2.734 0 8.201.024 10.98.023 2.778.07 2.867.127 2.939.056.07.121.124.17.164.05.04.076.061.132.082.056.02.14.039.22.05.08.012.156.018.245.012a.824.824 0 00.282-.065.864.864 0 00.248-.18.843.843 0 00.175-.238c.036-.08.041-.158.039-2.904-.003-2.746-.015-8.171-.036-10.917-.02-2.745-.05-2.817-.095-2.888a1.046 1.046 0 00-.16-.196.529.529 0 00-.186-.118 1.2 1.2 0 00-.563-.063.615.615 0 00-.213.083.927.927 0 00-.178.134.643.643 0 00-.113.16c-.035.066-.077.149-.097.19-.021.042-.021.042-.021 2.776zM25.482 33.66c.184.06.55.178.9.285.35.107.682.202 1.043.273.361.071.752.119 1.125.137s.729.006 1.072-.012a5.644 5.644 0 001.12-.149 13.416 13.416 0 001.487-.48c.485-.185.9-.363 1.285-.565.385-.201.74-.427 1.06-.623.32-.196.605-.362.868-.518.263-.156.495-.295.803-.432.308-.136.687-.267.96-.344.272-.077.438-.101.615-.09.178.013.368.06.522.143.154.083.272.202.408.362.137.16.29.362 2.086 3.752 1.794 3.39 5.23 9.968 6.989 13.387 1.76 3.42 1.842 3.681 1.901 3.907.06.225.095.415.125.653.03.237.053.522.023.783-.03.262-.112.499-.177.695-.065.196-.113.35-.196.505a2.325 2.325 0 01-.337.457c-.137.148-.29.29-.45.415-.16.125-.326.232-.516.35-.19.12-.403.25-.675.363-.273.112-.604.207-.83.273-.224.065-.343.1-.58.119-.237.017-.592.017-5.213.017s-13.505 0-18.048-.035-4.745-.107-4.97-.19a6.317 6.317 0 01-.681-.285 3.644 3.644 0 01-.58-.386c-.208-.16-.457-.362-.67-.594s-.391-.493-.533-.777-.25-.594-.302-.909a4.843 4.843 0 01-.048-.908c.006-.273.018-.499.065-.712s.13-.416.208-.6c.077-.184.148-.35 1.806-3.4 1.657-3.05 4.905-8.99 6.528-11.958 1.623-2.969 1.623-2.968 1.807-2.91z"/>
    <path d="M27.597 44.13c-.05.056-.151.17-.228.29-.077.123-.13.253-.193.387-.062.133-.133.27-.183.4-.05.131-.08.256-.098.392s-.024.285-.035.443-.03.323-.012.52c.017.195.07.42.103.569.033.148.045.22.092.332.048.113.13.268.231.419a4.425 4.425 0 00.687.793c.125.106.26.201.403.287a2.364 2.364 0 00.758.323c.095.025.172.042.246.06.074.018.145.036.273.05s.31.027.465.027a2.3 2.3 0 00.4-.032c.12-.021.24-.05.352-.083a3.13 3.13 0 00.742-.323 3.544 3.544 0 00.84-.728c.112-.14.2-.282.29-.43.088-.149.177-.303.248-.5.071-.195.125-.433.16-.667.036-.235.054-.466.034-.716-.02-.25-.081-.528-.153-.74a2.3 2.3 0 00-.245-.506 3.997 3.997 0 00-.302-.43c-.11-.134-.228-.253-.347-.363s-.237-.21-.376-.3c-.139-.089-.299-.166-.442-.235a3.805 3.805 0 00-.41-.177 2.952 2.952 0 00-.45-.116c-.14-.024-.253-.03-.362-.035-.11-.006-.216-.012-.326-.012s-.222.006-.352.03c-.13.023-.279.065-.4.106a2.402 2.402 0 00-.311.13c-.095.048-.19.102-.267.137-.077.036-.136.054-.123.02s.106-.126.168-.233c.062-.107.097-.232.124-.371.027-.14.044-.294.047-.449a1.794 1.794 0 00-.04-.44 1.381 1.381 0 00-.15-.358 3.525 3.525 0 00-.2-.312 1.982 1.982 0 00-.213-.256c-.078-.079-.164-.147-.242-.21-.079-.064-.14-.115-.215-.154a.933.933 0 00-.243-.08 3.776 3.776 0 00-.263-.042 2.674 2.674 0 00-.27-.027c-.092-.003-.186.003-.29.015s-.216.03-.332.075c-.115.044-.234.115-.34.175-.107.059-.202.106-.285.175a1.153 1.153 0 00-.219.255 3.554 3.554 0 00-.284.534c-.03.08-.054.17-.083.282a2.85 2.85 0 00-.08.374.94.94 0 00.018.342c.026.115.074.24.124.35.05.11.104.205.148.29.045.087.08.164.145.241.065.077.16.155.252.229.092.074.18.145.273.205.091.059.186.106.284.14.098.032.198.05.284.064.086.015.157.027.249.036a1.596 1.596 0 00.613-.048c.071-.02.1-.038.154-.068.053-.03.13-.071.169-.092.038-.02.038-.02-.012.036zM34.204 37.97l.172-.128a1.52 1.52 0 01.186-.121.813.813 0 01.382-.095c.06-.003.113-.003.17 0a.77.77 0 01.183.026.617.617 0 01.157.084c.053.035.112.077.175.121.062.045.127.092.177.146a.79.79 0 01.125.187 1.5 1.5 0 01.106.252c.027.089.039.178.042.243a.6.6 0 01-.012.155 2.74 2.74 0 01-.121.407.676.676 0 01-.101.183.666.666 0 01-.154.131c-.06.039-.125.074-.178.104-.053.03-.095.053-.157.08a.941.941 0 01-.228.068.862.862 0 01-.26-.009 1.366 1.366 0 01-.297-.077.878.878 0 01-.252-.157 1.046 1.046 0 01-.297-.448c-.033-.086-.067-.175-.085-.276s-.017-.208-.003-.3a.946.946 0 01.086-.258c.042-.09.095-.19.122-.24.026-.051.026-.051.062-.078z"/>
  </g>
</svg>
