<svg xmlns="http://www.w3.org/2000/svg" width="189" height="189" viewBox="0 0 50.006 50.006" version="1.1" id="svg8">
  <g id="layer1" transform="translate(0 -246.994)">
    <g id="g848" fill="#ef0000" fill-opacity=".219" stroke-width=".21">
      <path d="M18.888 293.996a60.331 60.331 0 01-1.37-2.57c-.467-.926-.976-1.787-1.131-1.915-.21-.172-.903-.104-2.703.264-1.332.273-2.73.5-3.106.505-.662.008-.685-.02-.71-.88-.015-.488-.087-1.92-.159-3.181l-.13-2.294-2.212-.586-3-.795c-.543-.143-.79-.326-.79-.585 0-.207.513-1.533 1.14-2.946.627-1.413 1.093-2.674 1.035-2.8-.058-.128-1.146-1.111-2.418-2.186l-2.314-1.955.428-.447c.236-.246 1.278-1.152 2.317-2.014 1.04-.862 1.935-1.67 1.99-1.797.056-.127-.411-1.388-1.038-2.801-.627-1.414-1.14-2.74-1.14-2.946 0-.259.247-.442.79-.585l3-.795 2.211-.586.131-2.294c.072-1.262.144-2.694.158-3.182.026-.858.05-.887.711-.879.377.005 1.774.232 3.106.505 1.746.357 2.497.433 2.693.272.149-.123.784-1.22 1.412-2.437 1.774-3.44 1.326-3.311 4.218-1.204 1.367.996 2.596 1.811 2.732 1.811.135 0 1.358-.81 2.718-1.801 1.393-1.015 2.55-1.722 2.651-1.619.099.1.758 1.278 1.466 2.617.707 1.34 1.4 2.53 1.542 2.646.175.144 1.017.054 2.677-.285 1.332-.273 2.73-.5 3.106-.505.662-.008.685.02.71.88.016.487.087 1.92.159 3.18l.13 2.295 2.212.586 3 .795c.543.143.79.326.79.585 0 .207-.513 1.532-1.14 2.946-.627 1.413-1.093 2.674-1.035 2.8.058.128 1.146 1.111 2.419 2.186l2.313 1.955-.428.447c-.236.246-1.278 1.152-2.317 2.014-1.04.861-1.935 1.67-1.99 1.797-.056.127.411 1.388 1.038 2.801.627 1.413 1.14 2.74 1.14 2.946 0 .259-.247.442-.79.585l-3 .795-2.211.586-.131 2.294a172.364 172.364 0 00-.158 3.182c-.026.858-.05.887-.711.879-.377-.005-1.774-.232-3.106-.505-1.66-.34-2.502-.43-2.677-.285-.141.116-.835 1.307-1.542 2.646-.708 1.338-1.367 2.516-1.466 2.617-.1.103-1.258-.604-2.651-1.619-1.36-.99-2.583-1.801-2.718-1.801-.136 0-1.343.799-2.683 1.775-1.34.976-2.484 1.775-2.542 1.775-.057 0-.34-.4-.626-.887z" id="path860"/>
      <path d="M22.28 292.51c1.195-.877 2.3-1.595 2.457-1.595.156 0 1.357.792 2.67 1.76 1.378 1.017 2.465 1.683 2.574 1.577.104-.1.772-1.291 1.485-2.647 1.537-2.922 1.315-2.831 5.064-2.072 1.39.282 2.568.47 2.62.42.051-.052.146-1.446.21-3.1.065-1.653.177-3.064.25-3.136.073-.072 1.4-.465 2.948-.873s2.88-.782 2.959-.83c.078-.047-.372-1.253-1-2.678-.63-1.425-1.144-2.772-1.144-2.992 0-.252.822-1.09 2.211-2.257 1.216-1.021 2.21-1.954 2.21-2.074 0-.12-.994-1.053-2.21-2.074-1.39-1.166-2.21-2.005-2.21-2.257 0-.22.514-1.567 1.142-2.992.63-1.425 1.08-2.63 1-2.679-.078-.047-1.41-.42-2.958-.829-1.549-.408-2.875-.801-2.948-.873-.073-.072-.185-1.483-.25-3.137-.064-1.653-.159-3.047-.21-3.098-.052-.051-1.23.137-2.62.419-3.75.76-3.527.85-5.064-2.072-.713-1.356-1.381-2.547-1.485-2.648-.11-.105-1.196.56-2.575 1.578-1.312.968-2.512 1.76-2.667 1.76-.156 0-1.356-.792-2.668-1.76-1.38-1.017-2.466-1.683-2.575-1.578-.104.1-.772 1.292-1.485 2.648-1.537 2.922-1.315 2.831-5.064 2.072-1.39-.282-2.568-.47-2.62-.42-.051.052-.146 1.446-.21 3.1-.065 1.653-.177 3.064-.25 3.136-.072.072-1.399.465-2.948.873-1.548.408-2.88.782-2.958.83-.08.047.37 1.253 1 2.678.629 1.425 1.143 2.772 1.143 2.992 0 .252-.822 1.09-2.21 2.257-1.217 1.021-2.212 1.954-2.212 2.074 0 .12.995 1.053 2.211 2.074 1.39 1.166 2.211 2.005 2.211 2.257 0 .22-.514 1.567-1.143 2.992-.63 1.425-1.08 2.63-1 2.678.078.048 1.41.422 2.958.83 1.549.408 2.876.801 2.948.873.073.072.185 1.483.25 3.136.064 1.654.159 3.048.21 3.1.052.05 1.23-.138 2.62-.42 3.74-.757 3.53-.841 5.042 2.011 1.607 3.031 1.575 2.984 1.873 2.751.134-.105 1.222-.908 2.417-1.785z" id="path858"/>
      <path d="M22.779 287.564c-5.25-.7-9.61-3.737-12.053-8.39-1.225-2.334-1.712-4.372-1.712-7.161 0-6.082 3.24-11.281 8.747-14.032 4.271-2.133 9.684-2.133 13.955 0 4.14 2.068 7.155 5.736 8.31 10.108.589 2.231.589 5.617 0 7.848-.53 2.007-1.785 4.437-3.165 6.127-3.192 3.91-9 6.18-14.082 5.5z" id="path830"/>
    </g>
  </g>
</svg>
