<svg width="189" height="189" viewBox="0 0 50.006 50.006" xmlns="http://www.w3.org/2000/svg">
  <g stroke-width=".265">
    <path d="M27.909 41.222c2.77-.705 5.348-2.8 6.705-5.45.798-1.56 1.086-2.866 1.09-4.953.008-4.115-1.396-7.278-6.929-15.61-1.842-2.775-2.38-3.66-3.005-4.947l-.499-1.026-.798 1.537c-.44.845-1.841 3.107-3.115 5.026-2.839 4.277-4.096 6.423-5.062 8.643-1.736 3.989-2.005 7.289-.841 10.327 1.315 3.434 4.455 6.02 8.092 6.666.985.175 3.275.063 4.361-.213zm-5.48-2.166c-.151-.038-.509-.201-.795-.363a27.98 27.98 0 00-.933-.502c-.576-.291-1.878-1.605-2.489-2.511-1.654-2.457-1.81-6.243-.4-9.667.444-1.077 1.495-3.155 1.56-3.085.027.027-.04.467-.148.977-.612 2.888-.642 6.667-.07 8.91.616 2.417 2.272 5.257 3.526 6.05.436.275.348.342-.251.19z" fill="#fcfdfd"/>
    <path d="M23.548 41.432c-3.637-.645-6.777-3.232-8.093-6.666-1.163-3.038-.895-6.338.841-10.327.967-2.22 2.224-4.366 5.063-8.643 1.274-1.919 2.675-4.18 3.115-5.026l.798-1.537.499 1.026c.625 1.287 1.163 2.172 3.005 4.947 4.284 6.451 5.724 9.176 6.594 12.474.47 1.782.475 4.486.011 6.101-.604 2.106-1.625 3.718-3.304 5.213-1.086.967-2.782 1.873-4.168 2.225-1.086.277-3.376.389-4.361.214zm-.868-2.57c-1.254-.792-2.91-3.633-3.526-6.05-.572-2.243-.542-6.022.07-8.91.108-.51.175-.95.149-.977-.066-.07-1.117 2.008-1.561 3.085-1.41 3.424-1.254 7.21.4 9.667.61.906 1.913 2.22 2.49 2.511.226.115.646.34.932.502.865.489 1.788.64 1.047.172z" fill="#3c7bc3"/>
  </g>
</svg>
