<svg width="213" height="213" viewBox="0 0 56.356 56.356" xmlns="http://www.w3.org/2000/svg">
  <path d="M25.404 50.27c-4.64-1.648-8.107-6.875-8.457-12.75-.109-1.836-.298-2.595-1.029-4.134-1.547-3.257-2.082-5.625-2.082-9.227 0-4.72 1.134-8.206 3.966-12.2 3.33-4.695 7.783-7.247 12.647-7.247 5.143 0 8.37 2.876 8.37 7.457 0 1.342.113 1.712.78 2.547 3.217 4.022 3.85 11.91 1.416 17.645-.42.988-.806 2.658-1.025 4.421-.442 3.567-.726 4.635-1.86 7.013-1.234 2.588-3.366 4.85-5.613 5.957-2.215 1.09-4.94 1.289-7.112.518zm6.45-.981c5.186-2.305 8.32-9.681 7.264-17.102-.798-5.62-3.238-9.243-7.029-10.438l-1.427-.45-2.458.858c-3.497 1.221-5.399 2.25-7.053 3.813-2.532 2.395-3.634 5.4-3.605 9.83.063 9.805 7.281 16.61 14.308 13.489zm-5.388-3.594c-.823-.238-2.464-1.91-2.464-2.511 0-.166.5-.632 1.11-1.036.969-.641 1.365-.734 3.123-.734 1.759 0 2.155.093 3.124.734.61.404 1.11.849 1.11.99 0 .6-1.223 1.89-2.223 2.345-1.168.53-2.436.601-3.78.212zm3.82-1.028c.473-.288.86-.569.86-.623 0-.055-1.31-.1-2.913-.1-2.533 0-2.87.051-2.588.39.81.976 3.294 1.154 4.64.333zm.301-1.596l.69-.006-.624-.48c-.79-.609-4.223-.624-4.953-.023-.422.348-.36.397.705.554.643.094 1.691.124 2.33.066a29.02 29.02 0 011.852-.111zm-3.94-4.228c0-.737.928-1.587 1.732-1.587.743 0 1.973 1.065 1.973 1.708 0 .617-.633.49-.93-.187-.161-.368-.539-.627-.988-.679-.577-.066-.781.057-.986.595-.307.807-.8.9-.8.15zm-5.423-1.72c-3.171-1.12-4.009-4.8-1.631-7.163 2.832-2.814 7.32-.936 7.32 3.062 0 3.015-2.882 5.092-5.69 4.1zm2.941-.826c1.959-.93 2.74-3.665 1.523-5.326-2.281-3.11-6.969-1.426-6.636 2.385.117 1.344.599 2.07 1.907 2.878.979.605 2.021.626 3.206.063zm-1.915-.748c-.08-.212-.07-.51.024-.662.308-.498.67-.291.67.384 0 .718-.455.9-.694.278zm-1.688-.642c0-.338.778-.93.97-.738.193.192-.4.97-.738.97a.233.233 0 01-.232-.232zm3.17-.171c-.184-.222-.253-.486-.152-.586.22-.22 1.01.242 1.156.677.15.452-.61.383-1.004-.091zm-1.586-1.32c-.388-.47-.119-.923.549-.923.327 0 .513.182.513.501 0 .64-.662.903-1.062.421zm-2.192-.032c-.372-.372-.17-.626.498-.626.43 0 .643.123.573.33-.127.383-.799.569-1.071.296zm4.224-.009c-.36-.36-.157-.617.485-.617.412 0 .662.15.662.397 0 .397-.814.553-1.147.22zm-3.298-1.464c-.36-.359-.427-1.005-.106-1.005.33 0 .847.598.847.979 0 .43-.326.442-.741.026zm2.757.106c-.083-.136.072-.449.345-.696.273-.247.565-.339.649-.203.084.135-.071.449-.345.696-.273.247-.565.338-.649.203zm-1.392-.714c-.203-.53.097-1.267.432-1.06.35.217.345 1.457-.006 1.457-.15 0-.342-.179-.426-.397zM32.6 37.132c-1.313-.475-2.385-1.637-2.805-3.04-.914-3.048 2.307-6.236 5.372-5.318 2.275.681 3.715 3.106 3.131 5.272-.694 2.578-3.26 3.968-5.697 3.086zm3.446-1.047c2.218-1.453 2.16-4.649-.111-6.166-3.117-2.082-7.065 1.866-4.983 4.983 1.161 1.738 3.44 2.268 5.094 1.184zm-2.255-.813c0-.364.12-.662.265-.662s.264.298.264.662-.119.661-.264.661-.265-.298-.265-.661zm-1.852-.365c0-.333.777-.931.965-.743.271.271-.133.975-.56.975-.223 0-.405-.104-.405-.232zm3.266-.176c-.086-.225-.085-.48.002-.567.189-.188.965.41.965.743 0 .4-.802.253-.967-.176zm-1.682-1.316c-.389-.468-.119-.922.548-.922.328 0 .514.182.514.501 0 .64-.662.903-1.062.421zm-2.19-.028a.702.702 0 01-.188-.426c0-.323 1.325-.14 1.397.194.069.312-.937.504-1.21.232zm4.177-.102c-.21-.34.533-.633 1.076-.425.53.204.238.692-.414.692-.274 0-.572-.12-.662-.267zm-3.297-1.441c-.507-.611-.048-1.055.54-.523.273.247.433.553.355.679-.208.336-.533.28-.895-.156zm2.79.156c-.077-.126.082-.432.356-.68.588-.531 1.046-.087.54.524-.363.436-.687.492-.895.156zm-1.212-.962c0-.364.12-.661.265-.661s.264.297.264.661c0 .364-.119.662-.264.662s-.265-.298-.265-.662zM18.482 28.23c.963-1.807 2.933-3.726 4.945-4.817.756-.41 3.296-1.45 5.643-2.312 2.347-.861 4.852-1.94 5.567-2.4 2.36-1.515 3.387-3.51 3.387-6.582 0-2.867-.96-4.557-3.267-5.746-1.123-.579-1.81-.722-3.907-.814-4.448-.195-7.15 1.015-10.746 4.813-5.576 5.891-7.123 13.955-4.103 21.384l.722 1.777.457-1.859c.251-1.022.837-2.572 1.302-3.444zm16.367-11.182c0-.2.197-.528.439-.727 1.361-1.127 1.83-4.463.886-6.313-.568-1.112-.267-1.779.401-.89.717.953 1.034 3.135.683 4.703-.443 1.978-2.409 4.612-2.409 3.227zm-1.587-9.703c-.655-.268-1.826-.493-2.602-.501-1.01-.01-1.379-.109-1.297-.345.311-.897 5.112.04 5.428 1.058.129.417-.058.39-1.53-.212zm8.063 21.84c1.067-4.22.336-9.806-1.727-13.21l-.9-1.486-.576 1.305c-.742 1.682-2.427 3.304-4.37 4.208-.85.395-1.54.778-1.535.85.004.073.598.41 1.318.747 2.943 1.38 5.206 4.83 6.03 9.19l.43 2.28.431-1.017c.238-.559.642-1.849.9-2.867z"/>
</svg>
