<svg width="213" height="213" viewBox="0 0 56.356 56.356" xmlns="http://www.w3.org/2000/svg">
  <path d="M24.135 49.56c-.073-.145-.11-3.025-.11-8.554v-8.334h-7.857c-5.21 0-7.925-.04-8.062-.117-.198-.113-.207-.278-.207-4.075s.009-3.962.207-4.074c.137-.078 2.851-.118 8.062-.118h7.856v-8.334c0-5.528.038-8.408.111-8.554.106-.21.262-.219 3.84-.219 3.58 0 3.735.01 3.841.22.074.145.11 3.025.11 8.553v8.334h7.883c6.27 0 7.92.03 8.07.147.175.135.188.442.179 4.05-.01 3.507-.029 3.918-.189 4.045-.139.11-1.92.142-8.06.142h-7.882v8.335c0 5.528-.037 8.408-.11 8.553-.107.21-.263.22-3.841.22-3.579 0-3.735-.01-3.841-.22zm6.83-9.07c0-8.233.005-8.388.214-8.611.21-.222.356-.227 8.116-.227h7.903v-6.344h-7.903c-7.76 0-7.906-.004-8.116-.227-.21-.222-.213-.377-.213-8.61V8.088h-5.98v8.383c0 8.233-.004 8.388-.214 8.61-.21.223-.356.227-8.116.227H8.754v6.344h7.902c7.76 0 7.906.004 8.116.227.21.223.214.378.214 8.61v8.384h5.98z"/>
</svg>
