<svg width="13.229" height="13.229" viewBox="0 0 3.5 3.5" xmlns="http://www.w3.org/2000/svg">
  <path d="M2.566 2.923H2.35v.204H.627V.603h.43c-.037.08-.039.179.048.228.073.041.343.023.424.023.195 0 .523.012.39-.251h.431v.627h.216c.053-.182.033-.469.012-.659-.007-.074-.035-.147-.105-.183-.189-.096-.486.01-.692-.023C1.658.345 1.618.187 1.473.2c-.128.01-.168.148-.278.166C.992.4.69.29.503.386.321.48.396.87.396 1.042v1.63c0 .16-.06.478.038.611.108.147.448.08.608.08h1c.124 0 .318.036.431-.021.132-.068.129-.295.093-.419M1.612.368H1.35c.07-.09.2-.112.262 0m-.816.752v.47h.462v-.47H.796m.415.047v.377H.842v-.377h.37m1.138.195c-.91.146-.673 1.564.231 1.431.92-.135.68-1.577-.23-1.43m-1.555.416v.47h.461v-.47H.796m.415.047v.376h-.37v-.376h.37m-.415.611v.47h.461v-.47H.796m.415.047v.377h-.37v-.377z" fill="#2c2c34"/>
</svg>
