<svg xmlns="http://www.w3.org/2000/svg" width="68.2667" height="68.2667" viewBox="0 0 541.867 541.867" version="1.1" id="svg8">
  <g id="layer1" transform="translate(0 244.867)">
    <path d="M-1.15-246.17h546.622v546.622H-1.15z" id="path827" fill="#ffc4cd" stroke="none" stroke-width=".265" stroke-linecap="butt" stroke-linejoin="miter" stroke-opacity="1" fill-opacity="1"/>
  </g>
  <g id="layer2">
    <path transform="translate(0 244.867)" d="M347.417 115.821c.436-.217 1.663-1.063 2.725-1.881a247.708 247.708 0 012.648-2.016c.394-.291 1.471-1.159 2.394-1.928 2.562-2.138 11.396-7.73 12.21-7.73.136 0 .638-.214 1.115-.476.478-.263 1.464-.692 2.191-.954 3.167-1.14 3.455-1.419 2.303-2.228-2.734-1.923-8.83.186-17.781 6.153-1.528 1.018-2.897 1.981-3.043 2.14-.579.63-2.752 2.245-3.02 2.245-.158 0-.287.104-.287.232s-.863.872-1.917 1.654c-2.729 2.023-2.629 1.978-2.427 1.109.24-1.034.844-3.033 1.62-5.36.362-1.084.7-2.191.752-2.462.052-.27.28-.862.504-1.313.225-.451.41-.928.41-1.06 0-.13.217-.737.482-1.348.265-.61.696-1.645.958-2.3l.739-1.852c.145-.364.369-.868.497-1.121.129-.253.234-.581.234-.73 0-.257.269-.898 1.75-4.176.347-.768.631-1.52.631-1.67 0-.151.227-.833.504-1.515 3.217-7.92 5.582-14.901 5.582-16.478 0-1.13-.468-1.718-1.813-2.28-1.199-.5-2.156-.26-2.156.543 0 .335-.192 1.196-.428 1.914-.807 2.461-2.509 7.39-2.733 7.918-.124.291-.35.886-.505 1.323-.405 1.153-2.505 6.589-4.138 10.716-6.051 15.292-7.865 20.75-7.402 22.275.37 1.222 2.538 2.78 4.358 3.135 1.074.209 1.929.074 3.043-.479zm50.291-1.17c1.196-.777 8.959-8.337 11.766-11.458 1.262-1.405 3.607-4.145 4.3-5.027 2.888-3.675 4.005-4.855 5.176-5.467.372-.195 1.634-.93 2.804-1.633 1.947-1.171 5.54-3.087 5.79-3.087.057 0 .304.712.548 1.582.817 2.912 1.969 3.7 7.157 4.898 1.741.402 3.875.997 4.741 1.323 1.817.683 2.076.337-2.086 2.79-2.733 1.61-7.1 4.521-7.232 4.82-.049.11-.187.14-.307.066-.12-.074-.522.228-.895.67-.527.627-.644.993-.528 1.654.455 2.613 1.382 3.893 2.818 3.893 1.77 0 7.678-2.313 10.51-4.116 3.018-1.92 4.077-3.406 3.926-5.504-.074-1.021-.017-1.12.974-1.666.58-.32 1.177-.679 1.328-.799a1.94 1.94 0 01.661-.304c.213-.047.427-.196.475-.33.049-.135.317-.246.595-.246.28 0 .508-.119.508-.264 0-.146.25-.265.554-.265.305 0 .9-.246 1.323-.547.423-.3.768-.475.768-.386 0 .088.15.033.331-.123.66-.566 3.866-2.373 4.995-2.815 2-.784 4.506-3.008 3.39-3.008-.154 0-.205-.121-.114-.27.092-.148-.2-.423-.65-.612-.45-.19-.725-.444-.614-.567.112-.122-.035-.136-.326-.03-.291.107-1.09.323-1.775.482-.685.16-1.197.368-1.138.464.06.097-.154.167-.474.156-.362-.012-.553.118-.504.345.052.249-.094.32-.463.223-.298-.078-.54-.026-.54.114s-.138.17-.306.067c-.167-.103-.447.006-.62.245-.175.238-.544.476-.82.528-1.277.243-1.933.521-2.07.88-.083.215-.27.316-.416.225-.147-.09-.267-.038-.267.116s-.13.28-.29.28c-.16 0-.606.225-.992.5s-.796.505-.91.51c-.114.006-.769.265-1.455.576l-2.397 1.086-1.149.52-1.024-.925c-1.786-1.613-5.541-3.135-9.518-3.856-.937-.17-1.803-.37-1.924-.445-.857-.53 6.11-4.782 11.59-7.072 1.31-.547 2.775-1.172 3.256-1.388 1.19-.535 5.082-1.664 5.758-1.671.362-.004.675.279.926.834.604 1.34 1.013 1.432 2.501.56.989-.58 1.338-.95 1.4-1.484.105-.886-.845-2.835-1.85-3.798-1.061-1.016-2.652-.925-7.394.424-4.672 1.33-7.23 2.318-10.753 4.157-1.494.78-2.953 1.418-3.241 1.418-.29 0-.525.126-.525.28 0 .154-.103.217-.23.139-.125-.078-.828.148-1.562.502-.734.354-1.673.724-2.087.821-.413.098-1.109.392-1.545.654-.437.261-.886.478-1 .482-.3.009-4.513 2.138-4.808 2.43-.501.495-.662.226-.523-.876.174-1.381-.433-2.47-2.014-3.616-1.65-1.195-3.642-1.518-5.943-.966-1.019.245-2.507.794-3.307 1.22-.8.426-1.783.907-2.183 1.069-.4.161-.728.401-.728.533 0 .13-.131.238-.292.238-.161 0-1.314.797-2.561 1.771-1.248.974-2.166 1.6-2.04 1.39.125-.21 1.06-1.573 2.078-3.028 4.145-5.926 7.049-10.434 7.049-10.943 0-.644-1.535-1.89-2.327-1.89-.333 0-.942.46-1.513 1.143-1.644 1.967-5.944 7.97-5.947 8.303-.003.175-.166.413-.365.53-.199.115-.894 1.044-1.545 2.063-.65 1.018-2.19 3.4-3.421 5.291-1.23 1.892-2.7 4.273-3.263 5.292-3.704 6.69-4.201 7.863-4.06 9.578.072.874.255 1.12 1.39 1.878 1.963 1.313 2.41 1.148 3.81-1.402 1.323-2.412 4.06-6.453 5.822-8.599 3.023-3.68 8.22-8.287 11.447-10.15 1.596-.92 4.855-2.02 5.989-2.02.808 0 .88.059.716.595-.422 1.382-.952 2.403-2.34 4.512-1.803 2.736-3.208 4.223-4.778 5.057-.298.158-.918.644-1.378 1.08a30.432 30.432 0 01-2.993 2.514c-.487.364-2.814 2.566-5.172 4.895-4.044 3.995-6.953 7.48-8.07 9.669l-.495.97.87.844c.719.696 1.685 1.196 2.562 1.326.084.013.74-.358 1.455-.822zm-14.6-6.63c-.469-1.428.189-4.04 2.149-8.532.19-.437.679-1.568 1.086-2.514.611-1.42 3.066-6.249 4.403-8.66.544-.98 4.167-6.68 5.667-8.915.774-1.153 1.407-2.24 1.407-2.414 0-.44-2.421-1.442-3.484-1.442-.755 0-1.25.376-3.672 2.79l-2.8 2.79-1.29-.289c-1.775-.398-4.003-.094-5.26.716-2.593 1.67-6.116 6.011-7.842 9.66-.952 2.012-1.006 3.092-.192 3.832.678.618 3.366 1.67 4.243 1.662 1.084-.011 2.733-.976 4.513-2.642l1.77-1.655-1.023 2.218c-1.696 3.674-1.984 4.322-2.05 4.598-.034.145-.267.74-.518 1.323-.638 1.481-1.445 4.367-1.445 5.166 0 1.43 1.785 2.9 3.523 2.903.93 0 .995-.047.815-.595zm-4.978-16.338c.404-.82 1.321-2.317 2.095-3.42.928-1.321 5.424-5.177 5.424-4.65 0 .35-3.145 3.963-6.451 7.409-1.355 1.412-1.473 1.485-1.068.661zm57.859-39.648c.528-.517 34.327-83.38 34.327-84.156 0-.277-.37-.815-.824-1.196l-.823-.692-11.737.074c-11.336.071-11.755.092-12.257.603-.605.615-15.899 38.146-15.899 39.014 0 .927 1.305 1.963 3.337 2.648 1.643.554 1.983.591 2.693.297.458-.19.985-.7 1.208-1.172.217-.46 3.381-8.158 7.03-17.107 3.65-8.95 6.838-16.42 7.083-16.603.707-.524 8.644-.46 9.178.074.227.226.333.605.24.86-1.4 3.881-24.31 59.546-24.598 59.77-.22.172-.549.256-.729.187-.18-.07-6.13-14.319-13.224-31.666-7.784-19.034-13.11-31.723-13.435-32.003-.766-.66-2.12-.595-2.77.132-.293.328-3.724 8.394-7.627 17.926-9.569 23.375-8.842 21.696-9.39 21.696-.259 0-.586-.149-.727-.33-.14-.183-4.174-9.97-8.962-21.749-4.788-11.78-8.904-21.662-9.145-21.96-.43-.53-.707-.545-11.907-.62-6.306-.042-11.707-.017-12 .056-.838.207-1.715 1.168-1.715 1.879 0 .356 7.45 18.895 16.555 41.199 11.922 29.2 16.74 40.717 17.213 41.146.657.595.657.595 10.667.595 9.14 0 10.06-.04 10.58-.463.356-.289 1.799-3.49 3.846-8.532 1.802-4.439 3.448-8.178 3.657-8.31.21-.133.546-.177.747-.098.202.078 1.841 3.758 3.643 8.178 1.802 4.42 3.52 8.303 3.816 8.63.71.782 1.803.767 4.064-.053 1.805-.655 2.718-1.447 2.729-2.366.008-.67-12.63-31.385-13.158-31.977-.61-.684-2.223-.61-2.887.133-.293.327-2.894 6.429-5.78 13.56-2.887 7.13-5.425 13.172-5.64 13.427-.35.412-.962.463-5.577.46-2.852-.004-5.332-.098-5.511-.212-.312-.199-28.037-67.548-28.31-68.77-.101-.458.029-.651.578-.86 1.06-.403 8.4-.35 8.969.066.252.184 4.86 11.167 10.239 24.407 5.38 13.24 10.335 25.42 11.013 27.066.982 2.383 1.385 3.071 1.98 3.379.897.463 1.837.276 2.538-.507.282-.315 4.006-9.205 8.274-19.755 4.269-10.55 7.879-19.337 8.022-19.526.911-1.202.86-1.316 13.95 30.903 6.948 17.098 12.818 31.418 13.045 31.82.721 1.281 2.367 1.521 3.41.498zm-308.364.212c10.407-1.126 19.678-5.559 27.056-12.938 7.568-7.567 11.84-16.61 12.968-27.445.44-4.226.273-6.793-.492-7.557l-.598-.598h-33.043l-.603.603c-.55.55-.602.843-.602 3.366s.052 2.816.602 3.366l.603.603 12.666.073c10.797.063 12.715.132 12.992.465.407.492.049 2.555-1.098 6.307-3.878 12.695-14.547 22.39-27.75 25.217-1.727.37-3.415.482-7.276.482-3.861 0-5.549-.112-7.276-.482-13.59-2.91-24.243-12.844-28.007-26.118-1.162-4.095-1.46-6.711-1.283-11.265.219-5.645 1.294-9.972 3.695-14.872 9.715-19.828 35.167-26.518 53.509-14.063 3.06 2.078 3.946 2.956 3.755 3.72-.189.751-4.95 5.533-5.511 5.533-.205 0-1.18-.589-2.166-1.308-5.042-3.676-10.724-5.573-16.684-5.57-14.948.005-27.095 11.504-27.869 26.381-1.037 19.937 18.08 34.413 36.964 27.99 5.5-1.87 10.592-5.822 14.05-10.903 2.062-3.03 1.815-3.93-1.54-5.605-1.729-.864-3.145-1.047-3.805-.492-.216.182-1.063 1.226-1.883 2.32-3.853 5.14-9.58 7.976-16.081 7.963-10.972-.022-19.633-8.662-19.636-19.587 0-3.56.524-5.812 2.099-9.018 1.053-2.144 1.607-2.886 3.763-5.043 2.173-2.172 2.883-2.7 5.043-3.749 3.232-1.57 5.533-2.122 8.75-2.1 5.816.037 10.609 2.108 14.533 6.278 3.393 3.605 3.333 3.555 4.267 3.555.815 0 1.56-.67 8.763-7.884 9.501-9.516 9.051-8.513 5.533-12.34-4.567-4.967-9.113-8.245-15.08-10.87-5.939-2.614-11.009-3.662-17.77-3.674-4.728-.008-7.213.264-10.98 1.205-14.786 3.693-26.819 14.83-31.607 29.254-3.23 9.73-3.145 19.725.25 29.312 4.39 12.403 14.766 22.782 27.123 27.13 3.63 1.278 6.331 1.862 11.377 2.462 1.76.21 5.856.158 8.279-.104zm170.05.007c17.34-2.434 31.38-14.066 36.878-30.553 1.66-4.978 1.998-7.333 1.998-13.89 0-5.194-.076-6.308-.6-8.732-4.054-18.775-18.358-32.513-37.076-35.607-3.573-.59-8.288-.783-9.264-.379-1.515.628-1.593 1.073-1.593 9.088v7.259l-1.238.186c-1.75.262-5.56 1.545-7.537 2.537-5.53 2.777-10.047 7.236-12.77 12.603-5.72 11.274-3.333 25.035 5.845 33.693 6.07 5.726 14.226 8.532 22.33 7.683 6.844-.716 12.7-3.476 17.447-8.223 9.643-9.643 11.1-24.422 3.55-36.01-1.624-2.493-6.348-7.257-7.433-7.495-1.278-.281-2.121.234-3.253 1.986-1.867 2.887-1.807 3.218 1.074 5.987 3.25 3.124 5.143 6.254 6.221 10.29.732 2.74.683 7.778-.1 10.504-1.78 6.19-5.711 10.82-11.504 13.552-2.615 1.234-4.612 1.723-7.748 1.9-10.903.614-20.555-7.582-21.795-18.508-.99-8.723 3.602-17.134 11.506-21.07 2.845-1.417 4.454-1.838 8.548-2.237 2.614-.255 3.6-.454 3.942-.796.405-.405.464-1.272.534-7.887l.078-7.431 1.377.18c2.07.27 6.153 1.359 8.388 2.236 7.416 2.912 13.854 8.333 18.26 15.376 3.565 5.699 5.29 11.985 5.287 19.274-.003 6.338-1.093 11.056-3.834 16.577-5.168 10.408-14.495 17.558-26.092 20-3.606.76-9.713.815-13.597.123-14.546-2.592-26.481-13.742-29.756-27.796-2.9-12.451.43-25.257 8.915-34.277 3.497-3.717 8.225-7.06 12.59-8.9 3.465-1.462 3.615-1.735 2.696-4.898-.68-2.337-1.294-3.122-2.445-3.122-.908 0-5.248 1.874-8.09 3.493-3.404 1.94-6.248 4.14-9.28 7.181-10.953 10.983-15.442 26.77-11.89 41.816 1.953 8.276 5.986 15.555 11.876 21.43 6.889 6.871 15.388 11.181 25.12 12.737 2.558.41 9.874.48 12.435.12zm-89.401-12.176c11.9-5.1 21.88-9.238 22.18-9.195.528.076.546.233.546 4.84v4.763l-4.498.135c-2.88.086-4.708.254-5.081.466-1.079.612-1.528 4.167-.76 6.006.584 1.397 1.348 1.51 9.59 1.414l7.19-.083.682-.642.682-.641V21.117l-.648-.7c-.357-.385-.883-.7-1.169-.7-.285 0-10.263 4.187-22.171 9.305-11.909 5.118-22.01 9.315-22.446 9.327l-.794.02-.067-32.262c-.053-25.636.001-32.306.265-32.474.182-.116 2.322-.212 4.754-.215 4.104-.003 4.442.033 4.696.508.183.342.274 8.421.274 24.342 0 23.375.01 23.84.523 24.352.715.716 1.524.875 3.841.758 1.623-.082 2.09-.208 2.58-.697l.597-.598V-32.92l-.603-.603-.603-.602H185.05l-.638.742-.639.743V48.05l.65.65c.397.396.953.649 1.432.649.442 0 10.222-4.045 22.42-9.272z" id="path858" fill="#fff" fill-opacity="1" stroke="none" stroke-width=".265" stroke-miterlimit="4" stroke-dasharray="none" stroke-opacity="1"/>
  </g>
</svg>
