<svg width="189" height="189" viewBox="0 0 50.006 50.006" xmlns="http://www.w3.org/2000/svg">
  <path d="M19.923 34.14l-.046-2.276-1.006-1.776-1.007-1.638-.914-1.548-1.281-2.049-1.053-2.458-.686-2.094-.411-2.003.228-2.55.595-1.957 1.144-2.094 1.51-1.548 1.92-1.229 1.785-.637 2.012-.501 2.288-.228 1.967.091 1.784.273 1.876.592 1.326.683 1.418 1.047 1.418 1.275.961 1.684.87 1.776.045 1.73.091 1.593-.411 1.82-.412 1.73-.686 1.685-.778 1.73-1.006 1.457-.824 1.138-.549.956-.732 1.457-.732 1.547-.228 1.184-.183 1.001v.365l-1.052-.091-1.739-.046h-.869l.32-.637.137-1.047.183-1.047.275-1.366.32-1.775.183-1.503.412-1.82.183-1.64.046-1.183.32-.728.549-.456.594-.273h.504l.274.273.137.32v.545l-.091.729-.55.41-.823.136-.594.046-1.19-.091-1.235-.638-1.006-.637-.686-.637-.778-.956-.274-1.047.274-1.002.732-.228.778-.09.594.09.412.501.092.546-.046.683-.229.547-.549.637-.274.273-.87.637-.777.638-1.327.592-1.235.09h-.823l-.87-.455-.228-.41-.092-.591.137-.592.64-.273h.504l.412.364.457.5.23.684.228 1.73.274 1.547.32 1.503.275 1.547.229 1.548.366 1.912.091 1.002.046 1.047 6.679.136.091 1.912-.045 1.32-.138 1.275-.823 1.23-1.876 1.274-1.006.683s-.94.24-1.418.228c-.437-.011-1.281-.274-1.281-.274l-.96-.682-1.83-1.23-.687-.819.412.273-.366-.318 3.248.09 2.424.046 2.013-.045h1.739l.457-.501.046-1.776-1.052-.09h-8.235l-1.006-.046.32 2.367-.366-2.367 10.34.045.045-2.64-9.973-.091-.457-.546.091 3.232z" fill="none" stroke="#000" stroke-linecap="round" stroke-linejoin="round" stroke-width="1.323" paint-order="markers stroke fill"/>
</svg>
