<svg xmlns="http://www.w3.org/2000/svg" width="50" height="50" viewBox="0 0 13.229 13.229" version="1.1" id="svg8">
  <g id="layer1" transform="translate(0 -283.77)">
    <path d="M6.556 296.485a.195.195 0 01-.075-.05c-.052-.056-.076-.119-.134-.349-.255-.998-.433-1.585-.688-2.27-.206-.555-.597-1.473-.729-1.716-.114-.21-.334-.59-.516-.891a96.343 96.343 0 00-.454-.742 12.695 12.695 0 01-.52-.902 4.188 4.188 0 01-.39-1.06 4.033 4.033 0 01-.072-1.194c.077-.651.36-1.282.805-1.795a3.843 3.843 0 012.555-1.276c.109-.008.384-.008.494 0a4.038 4.038 0 012.635 1.279c.46.51.76 1.165.839 1.834.037.315.012.768-.062 1.142a4.223 4.223 0 01-.43 1.17c-.122.232-.235.426-.508.872-.414.674-.468.762-.611 1.006-.281.478-.374.651-.48.888-.606 1.36-.911 2.238-1.263 3.638-.06.24-.094.325-.15.375a.206.206 0 01-.145.058c-.053.003-.057.003-.101-.017zm.093-.981c1.352-1.031.676-.516 0 0z" id="path826" fill="#e1a8b1" fill-opacity=".996" stroke-width=".006"/>
  </g>
  <g id="layer2" transform="translate(0 -283.77)">
    <path d="M6.673 295.422c.072-.273.207-.724.31-1.039a20.91 20.91 0 01.836-2.12c.102-.229.106-.237.229-.455.231-.412.4-.694.875-1.466.481-.783.655-1.118.792-1.528.146-.438.21-1.011.159-1.429a2.964 2.964 0 00-.557-1.38c-.338-.46-.896-.878-1.488-1.114a3.356 3.356 0 00-1.174-.246c-.757-.02-1.537.262-2.177.787a2.933 2.933 0 00-1.078 2.03c-.02.264.011.66.077.964.072.335.176.611.374.995.13.25.217.4.484.836.557.905.763 1.254.995 1.677.065.119.293.634.468 1.056.322.775.573 1.511.8 2.342.026.096.05.172.051.17a.918.918 0 00.024-.08z" id="path848" fill="#ffc6cf" fill-opacity="1" stroke-width=".006"/>
  </g>
  <g id="layer4" transform="translate(0 -283.77)">
    <path stroke-miterlimit="4" id="path858" d="M7.594 289.073a.333.333 0 00.037-.027 3.356 3.518 0 01.036-.028 1.063 1.063 0 01.243-.158c.042-.016.046-.02.03-.032-.036-.027-.119.003-.24.088a.665.665 0 00-.041.03.196.196 0 01-.045.035.13.13 0 01-.026.023c-.037.03-.036.028-.033.016a1.077 1.077 0 01.044-.145l.007-.019.013-.033.01-.026.007-.016a.34.34 0 01.027-.07.137.137 0 00.008-.023l.007-.022c.044-.112.076-.211.076-.234 0-.016-.007-.024-.025-.032-.016-.008-.03-.004-.03.008a4.21 4.21 0 01-.106.31c-.08.218-.105.295-.1.317.006.017.035.04.06.044.014.003.026.001.041-.007zm.681-.016a2.202 2.202 0 00.218-.235c.04-.052.054-.069.07-.077l.038-.023a.775.775 0 01.078-.044c.001 0 .005.01.008.022.011.042.027.053.097.07a.705.705 0 01.064.019c.025.01.028.005-.028.04a.905.905 0 00-.098.068s-.003.002-.004 0c-.002 0-.007.004-.012.01-.008.009-.01.014-.008.023.007.037.02.055.039.055a.433.433 0 00.142-.058c.04-.027.055-.048.053-.078 0-.015 0-.016.013-.024l.018-.011a.026.028 0 01.01-.004c.002 0 .005-.003.006-.005 0-.002.004-.004.008-.004s.007-.002.007-.004.003-.004.007-.004a.043.043 0 00.018-.008l.01-.006s.003 0 .005-.002a.43.43 0 01.068-.04c.027-.011.06-.043.046-.043-.003 0-.003-.002-.002-.004s-.003-.006-.009-.009c-.006-.003-.01-.007-.008-.008.001-.002 0-.002-.004 0-.004 0-.015.005-.025.007-.009.003-.016.006-.015.007 0 0-.002.003-.006.003-.005 0-.008.002-.007.005 0 .004-.001.005-.006.003-.004-.001-.008 0-.008.002s-.002.003-.004 0c-.002 0-.006 0-.008.005a.02.02 0 01-.011.008c-.018.004-.027.008-.028.012-.001.003-.004.005-.006.003-.002 0-.004 0-.004.002 0 .003-.001.004-.004.004-.002 0-.008.003-.013.008a.05.05 0 01-.012.008.115.115 0 00-.02.01l-.033.015-.015.008-.014-.014a.282.282 0 00-.129-.054.235.235 0 01-.026-.007c-.012-.008.083-.068.157-.1l.044-.02a.399.399 0 01.078-.024c.005 0 .01.004.013.012.008.019.013.02.034.008.013-.01.018-.014.019-.021.001-.013-.012-.04-.026-.054-.014-.015-.035-.014-.1.006a.653.653 0 00-.145.059.218.218 0 01-.044.02c-.004 0-.007.002-.007.004 0 .003-.002.003-.004.002-.001-.001-.01.002-.02.008a.184.184 0 01-.029.012c-.006 0-.015.006-.02.009a.501.501 0 00-.079.041c-.007.007-.01.003-.008-.012.003-.02-.006-.035-.027-.052a.09.09 0 00-.08-.013.254.254 0 00-.045.017.445.445 0 01-.03.015c-.005.003-.01.006-.01.008a.004.004 0 01-.004.004.21.21 0 00-.034.025c-.017.014-.03.023-.028.02l.028-.043a1.24 1.24 0 00.096-.155c0-.01-.021-.027-.032-.027-.004 0-.013.007-.02.016a1.265 1.265 0 00-.086.126.18.18 0 00-.02.03l-.047.074c-.017.027-.037.061-.044.076-.05.095-.057.111-.055.136 0 .012.003.016.019.026.026.019.032.017.051-.02a.72.72 0 01.234-.266.24.24 0 01.081-.028c.011 0 .012 0 .01.009a.236.236 0 01-.032.064.195.195 0 01-.065.071l-.018.016a.412.432 0 01-.04.036 1.463 1.463 0 00-.07.07.66.66 0 00-.11.136l-.007.014.012.012c.01.01.023.017.035.019l.02-.012zm-.197-.095c-.007-.02.002-.057.029-.12.002-.008.009-.023.014-.036.009-.02.042-.09.06-.123a3.91 3.91 0 01.096-.161c0-.007-.033-.02-.047-.02-.01 0-.017.005-.05.039l-.038.04-.018-.004a.1.1 0 00-.07.01.382.382 0 00-.107.137c-.013.028-.014.044-.003.054.01.01.046.024.058.024.015 0 .037-.014.061-.038l.024-.023-.014.031a.85.85 0 00-.054.158c0 .02.024.04.047.04.013 0 .014 0 .012-.008zm-.068-.232a.449.449 0 01.028-.048c.013-.019.074-.074.074-.066a.872.872 0 01-.087.105c-.019.02-.02.021-.015.01zm.784-.563c.007-.008.465-1.184.465-1.195 0-.004-.005-.011-.011-.017l-.011-.01-.16.001c-.153.001-.159.001-.165.01-.009.008-.216.54-.216.553 0 .013.018.028.045.038.023.008.027.009.037.004a.039.039 0 00.016-.017l.095-.243c.05-.127.093-.233.096-.235a.326.326 0 01.125 0c.003.003.004.01.003.013-.019.055-.33.845-.333.848-.003.003-.008.004-.01.003-.003 0-.083-.203-.18-.45-.105-.27-.177-.45-.181-.454-.01-.009-.029-.009-.038.002-.004.005-.05.12-.103.255-.13.332-.12.308-.127.308a.013.013 0 01-.01-.005 20.69 20.69 0 01-.122-.309c-.064-.167-.12-.307-.123-.312-.006-.008-.01-.008-.162-.009h-.162c-.012.004-.023.017-.023.027 0 .005.1.269.224.586.161.414.227.578.233.584.009.009.009.009.144.009.124 0 .137 0 .144-.007a.925.925 0 00.052-.121 1.23 1.23 0 01.05-.118c.002-.002.007-.003.01-.001.002 0 .024.053.049.116.024.063.048.118.052.122.01.012.024.011.055 0 .024-.01.036-.02.037-.034 0-.009-.171-.445-.179-.454-.008-.01-.03-.009-.039.002-.004.005-.039.091-.078.193l-.076.19c-.005.006-.013.007-.076.007a.47.47 0 01-.075-.003c-.004-.003-.38-.959-.383-.976-.001-.007 0-.01.008-.012a.412.412 0 01.121 0c.004.004.066.16.139.347l.15.384c.012.034.018.044.026.048.012.007.025.004.034-.008a6.59 6.59 0 00.112-.28c.058-.15.107-.275.109-.277.012-.017.012-.019.189.439l.177.451c.01.019.032.022.046.007zm-4.177.003a.591.591 0 00.366-.183.636.636 0 00.176-.39c.006-.06.004-.097-.007-.107l-.008-.01h-.447l-.009.01c-.007.008-.008.012-.008.047 0 .036 0 .04.008.048l.009.01h.171c.146 0 .172.002.176.007a.512.512 0 01-.39.448.388.388 0 01-.1.007.442.442 0 01-.098-.007.51.51 0 01-.38-.371.464.464 0 01-.017-.16.509.509 0 01.05-.211.487.487 0 01.725-.2c.042.03.054.042.051.053a.359.359 0 01-.074.078.148.148 0 01-.03-.018.367.367 0 00-.226-.08.384.384 0 00-.377.375c-.014.283.245.489.5.398a.39.39 0 00.19-.155c.029-.043.025-.056-.02-.08-.024-.012-.043-.015-.052-.007a.453.453 0 00-.025.033.262.262 0 01-.218.113.27.27 0 01-.266-.278c0-.05.007-.082.028-.128a.215.215 0 01.051-.072c.03-.03.04-.038.069-.053a.255.255 0 01.315.06c.046.05.045.05.058.05.01 0 .021-.01.119-.112.128-.135.122-.121.075-.175a.582.582 0 00-.445-.207.514.514 0 00-.15.017.62.62 0 00-.427.416.66.66 0 00.003.416c.06.176.2.323.367.385a.607.607 0 00.267.034zm2.303 0a.618.618 0 00.527-.63.624.624 0 00-.51-.63.404.404 0 00-.126-.006c-.02.009-.022.015-.022.129v.103l-.016.003a.4.4 0 00-.275.215.42.42 0 00.079.478.373.373 0 00.539-.007.419.419 0 00.048-.512.42.42 0 00-.101-.106c-.017-.005-.029.003-.044.028-.025.04-.025.046.014.085.045.044.07.089.085.146.01.04.009.11-.001.15a.293.293 0 01-.156.192.242.242 0 01-.105.027.288.288 0 01-.296-.263.3.3 0 01.156-.3.262.262 0 01.116-.031c.036-.004.049-.007.054-.011.005-.006.006-.019.007-.112v-.106l.02.003a.524.524 0 01.433.524c-.001.09-.016.157-.053.235a.507.507 0 01-.353.284.557.557 0 01-.184.002.517.517 0 01-.404-.394.533.533 0 01.291-.613c.048-.021.05-.025.037-.07-.009-.033-.017-.044-.033-.044a.574.574 0 00-.235.152.655.655 0 000 .897.6.6 0 00.34.181.862.862 0 00.168.002zm-1.21-.173c.16-.072.296-.13.3-.13.007 0 .007.003.007.069v.067l-.06.002a.254.254 0 00-.07.007c-.014.01-.02.06-.01.086.008.02.018.021.13.02l.097-.001.01-.01.009-.008v-.37l-.009-.01c-.005-.006-.012-.01-.016-.01s-.139.06-.3.132a7.185 7.185 0 01-.304.133h-.011v-.458c-.001-.364 0-.459.003-.461a.356.356 0 01.064-.003c.056 0 .06 0 .064.008.002.005.004.12.004.346 0 .332 0 .338.007.345.01.01.02.013.052.011.022 0 .028-.003.035-.01l.008-.009v-.78l-.009-.01-.008-.009h-.308l-.009.01-.009.011v1.146l.01.009a.027.027 0 00.019.009c.006 0 .138-.057.303-.132z" fill="#fff" fill-opacity="1" stroke="none" stroke-width=".004" stroke-dasharray="none" stroke-opacity="1"/>
  </g>
</svg>
