<svg width="189" height="189" viewBox="0 0 50.006 50.006" xmlns="http://www.w3.org/2000/svg">
  <g fill="none" stroke="#000" stroke-linejoin="round">
    <path d="M24.616 38.95l-.33.898-.284.945-.756 1.134-.803.614-.71.378-.755.236h-.898l-1.04-.142-.566-.283-.19-.142-.944.283-1.04.048-1.37-.331-.708-.472-.756-.756-.378-.71-1.181-.66-.945-.898-.473-.803-.33-.898v-.662l.047-.756-.709-.85-.33-.661-.237-.85.047-.757.236-.661.473-.756.567-.52.709-.709.708-.33-.189-.19-.661.095-.898-.094-.85-.048-1.04-.33-.756-.473-.614-.52-.52-1.039-.094-1.228-.047-.804-.52-1.134-.283-1.039-.095-.85.33-.993.19-.567.425-.566.283-.237.142-.094.236-1.323.284-.567.425-.709.709-.614.472-.33.378-.237.473-.142.425-.189.236-.047.236-.236.142-.425.614-.52.662-.52.614-.283.756-.095.614.142.662.189.756.33.661.52.898.473-.284-.85-.283-1.04-.095-.85.142-1.418.473-1.04.803-.566 1.04-.567.66-.236.426-.095.33-.378.615-.567.803-.472.945-.284.898-.047.708.047.662.331.425.142 1.37-.19 1.04.095.661.19.756.519.614.567.33.472.284.284.331.189.992.283.709.378.52.52.52.992.047.945-.048.709-.189.85-.094.85-.142.379.945-.804.945-.566 1.37-.426 1.04-.047.756.095.85.377.52.567.425.426.378.85 1.228.473.662.472.661.756.378.756.19.709.141.897-.189.567.378.615.284.944.094.804-.047.756-.19.708-.377.898-.567.661v.898l-.142.945-.33.662-.379.567-.708.567-.614.094-1.087.283h-1.985l.756.378.945.756.756.898.52.709.283.661v.898l-.094.709-.284.756-.378.661-.52.567-.188.189v.661l-.19.804-.472.945-.52.661-.755.425-.756.284-.662.094-.661.615-.662.52-.756.377-.803.19-.945.046-.756-.094-1.086-.378-1.134.472-.945.142-1.229-.33-.85-.757-.614-.944-.284-.567-.236-.756z" stroke-width="1.323"/>
    <path d="M16.192 26.46l-.708-.368-.864-.551-.708-.45-.62-.55-.51-.613-.332-.531-.133-.51.266-.511.42-.368.4-.143.31-.081.863-.184.753-.082 1.173-.04.974.04.598.041-.177-.49-.42-.817-.377-1.041-.244-.633-.133-.838-.044-.837.288-.47.288-.183.465-.164.575.123.51.245.487.51.442.572.665.94.287.51.333-.98.442-1.164.266-.654.399-.674.553-.592.531-.286.62-.122.421.122.443.348.376.367.465.756.465.898.332 1.083.288.918.443-.612.62-.878.575-.674.554-.613.62-.51.642-.409.642-.245h.288l.243.143.2.245.155.347.022.45-.044.633-.155.776-.266.694-.443.96-.576 1.102 1.262-.04 1.44-.062 1.24.123.796.245.709.47.2.306.132.327-.022.429-.11.347-.421.51-.576.592-.554.43-.73.49-.687.387-.531.368-.354.123.952.49.819.449.952.613.93.694.465.612.266.388-.067.348-.11.388-.51.428-.708.102h-.842l-.752-.245-.842-.388-.907-.449.332.899.354.796.288.817.088.837.067.837-.155.593-.443.49-.642.122-.775-.06-.709-.185-.797-.388-.907-.571-.864-.531-.686-.633-.155.755-.377 1.45-.464 1.082-.51.776-.62.593-.62.183-.597-.204-.487-.613-.178-.633-.044-.796.067-.858.265-1.041-.487.367-1.018.674-.842.552-.952.388-.797.265-.686.102-.775-.347-.332-.49-.133-.45-.022-1.04.221-.92.31-.694.332-.776.31-.715-1.062.164-1.041.04-1.24-.02-1.505-.225-.665-.326-.376-.45-.022-.429.133-.449.332-.306.443-.347.62-.245.885-.225.775-.061.576-.02.332-.041z" stroke-width="1.684"/>
    <path d="M23.912 29l-.326-.71-.133-.518-.067-.426-.134.034-.267.133-.384.167-.443.159-.384.067-.292.058-.752.05.367-.626.25-.367.385-.493.242-.192.109-.076-.009-.15-.467-.042-.401-.125-.434-.167-.435-.3-.534-.519-.084-.116.267-.193.326-.175.368-.109.426-.066.442-.042.627-.017h.434l-.075-.092-.226-.15-.25-.217-.31-.326-.383-.493-.26-.46-.166-.45-.092-.142-.067-.476.35.025.502.108.543.167.534.21.51.267.342.242.318.275.359.318.125-.493.259-.493.242-.367.326-.418.284-.309.35-.3.176.308.209.385.209.4.075.284.092.36.016.375-.041.368.45-.134.502-.108.442.016h.443l.476.067.2.067-.141.317-.218.335-.317.442-.476.526-.376.293-.326.2-.083.084.159.175.334.317.384.451.326.426.309.485.242.484.133.384-.292.026-.551-.026-.618-.066-.543-.167-.384-.126-.418-.192-.493-.225-.066.309-.042.409-.126.46-.108.492-.15.443-.193.334-.217.443-.125.242-.217-.326-.217-.35-.176-.285z" stroke-width="1.323"/>
  </g>
</svg>
