<svg width="500" height="500" viewBox="0 0 132.292 132.292" xmlns="http://www.w3.org/2000/svg">
  <g fill="none" stroke="#000">
    <g stroke-width="1.323">
      <path d="M40.498 121.36l.187-.675.436-4.606.499-4.79.498-4.237.374-4.053.437-3.316 1.121-5.896.873-3.5 1.122-3.07 1.433-3.071 1.434-2.456 1.37-1.843 1.496-1.596 2.306-2.027 2.057-1.29 2.804-1.473 2.68-1.229 3.054-.92 4.05-1.106 3.18-.676 1.931-.43 1.808-.43.935-.06-.063-.185-.124-.123-2.12-.184-2.056-.307-2.992-.492-3.49-.798-3.303-.982-2.866-1.044-2.556-1.106-1.87-1.167-2.18-1.596-1.434-1.351-1.371-1.413-1.247-1.903-.934-1.781-1.371-2.702-.873-2.64-.935-3.685-.623-3.132-.81-3.93-.436-3.992-.437-3.316-.935-7.124-.498-4.114-.312-2.763-.25-1.229-.248 1.597-.437 3.746-1.06 9.334-.498 4.974-.685 3.93-.748 4.3-.997 4.114-.81 2.824-1.31 3.194-1.495 2.518-1.87 2.579-1.87 1.78-2.43 1.782-2.493 1.473-2.68 1.044-2.056.676-2.556.798-2.742.614-2.306.553-2.991.553-1.994.245H4.91l-.498.185.062.368 1.122.062 1.496.307 1.496.246 1.682.307 2.618.737 2.617.736 2.68.86 2.493.921 2.992 1.413 3.116 1.842 2.493 2.21 1.558 1.843 1.87 2.825 1.246 2.518 1.184 3.009.56 1.78.686 2.948.686 3.316.748 3.808.311 2.64.499 3.93.499 3.562.374 3.746z"/>
      <path d="M40.498 121.36l.187-.675.436-4.606.499-4.79.498-4.237.374-4.053.437-3.316 1.121-5.896.873-3.5 1.122-3.07 1.433-3.071 1.434-2.456 1.37-1.843 1.496-1.596 2.306-2.027 2.057-1.29 2.804-1.473 2.68-1.229 3.054-.92 4.05-1.106 3.18-.676 1.931-.43 1.808-.43.935-.06-.063-.185-.124-.123-2.12-.184-2.056-.307-2.992-.492-3.49-.798-3.303-.982-2.866-1.044-2.556-1.106-1.87-1.167-2.18-1.596-1.434-1.351-1.371-1.413-1.247-1.903-.934-1.781-1.371-2.702-.873-2.64-.935-3.685-.623-3.132-.81-3.93-.436-3.992-.437-3.316-.935-7.124-.498-4.114-.312-2.763-.25-1.229-.248 1.597-.437 3.746-1.06 9.334-.498 4.974-.685 3.93-.748 4.3-.997 4.114-.81 2.824-1.31 3.194-1.495 2.518-1.87 2.579-1.87 1.78-2.43 1.782-2.493 1.473-2.68 1.044-2.056.676-2.556.798-2.742.614-2.306.553-2.991.553-1.994.245H4.91l-.498.185.062.368 1.122.062 1.496.307 1.496.246 1.682.307 2.618.737 2.617.736 2.68.86 2.493.921 2.992 1.413 3.116 1.842 2.493 2.21 1.558 1.843 1.87 2.825 1.246 2.518 1.184 3.009.56 1.78.686 2.948.686 3.316.748 3.808.311 2.64.499 3.93.499 3.562.374 3.746z"/>
      <path d="M40.498 121.36l.187-.675.436-4.606.499-4.79.498-4.237.374-4.053.437-3.316 1.121-5.896.873-3.5 1.122-3.07 1.433-3.071 1.434-2.456 1.37-1.843 1.496-1.596 2.306-2.027 2.057-1.29 2.804-1.473 2.68-1.229 3.054-.92 4.05-1.106 3.18-.676 1.931-.43 1.808-.43.935-.06-.063-.185-.124-.123-2.12-.184-2.056-.307-2.992-.492-3.49-.798-3.303-.982-2.866-1.044-2.556-1.106-1.87-1.167-2.18-1.596-1.434-1.351-1.371-1.413-1.247-1.903-.934-1.781-1.371-2.702-.873-2.64-.935-3.685-.623-3.132-.81-3.93-.436-3.992-.437-3.316-.935-7.124-.498-4.114-.312-2.763-.25-1.229-.248 1.597-.437 3.746-1.06 9.334-.498 4.974-.685 3.93-.748 4.3-.997 4.114-.81 2.824-1.31 3.194-1.495 2.518-1.87 2.579-1.87 1.78-2.43 1.782-2.493 1.473-2.68 1.044-2.056.676-2.556.798-2.742.614-2.306.553-2.991.553-1.994.245H4.91l-.498.185.062.368 1.122.062 1.496.307 1.496.246 1.682.307 2.618.737 2.617.736 2.68.86 2.493.921 2.992 1.413 3.116 1.842 2.493 2.21 1.558 1.843 1.87 2.825 1.246 2.518 1.184 3.009.56 1.78.686 2.948.686 3.316.748 3.808.311 2.64.499 3.93.499 3.562.374 3.746zM111.87 74.93l.097-.372.226-2.535.26-2.636.258-2.332.194-2.231.227-1.825.582-3.245.453-1.927.582-1.69.745-1.69.744-1.352.711-1.014.777-.879 1.197-1.115 1.068-.71 1.456-.811 1.39-.676 1.586-.507 2.103-.608 1.65-.372 1.003-.237.938-.236.486-.034-.033-.102-.064-.067-1.1-.101-1.068-.17-1.553-.27-1.812-.439-1.715-.54-1.488-.575-1.326-.609-.971-.642-1.132-.879-.745-.743-.711-.778-.647-1.048-.486-.98-.711-1.487-.453-1.453-.486-2.028-.323-1.724-.42-2.163-.227-2.197-.227-1.826-.485-3.92-.259-2.265-.162-1.521-.13-.676-.129.879-.226 2.062-.55 5.137-.259 2.738-.356 2.163-.388 2.366-.518 2.265-.42 1.555-.68 1.757-.776 1.386-.97 1.42-.971.98-1.262.98-1.294.811-1.392.575-1.067.372-1.327.44-1.423.337-1.197.304-1.553.305-1.036.135h-.68l-.258.101.032.203.583.034.776.169.777.135.873.17 1.36.405 1.358.405 1.391.474 1.294.507 1.553.777 1.618 1.014 1.294 1.217.81 1.014.97 1.555.647 1.385.614 1.657.292.98.356 1.622.355 1.825.389 2.096.161 1.453.26 2.164.258 1.96.194 2.062zM80.951 93.62c.573-.08 1.719-.239 2.791-.47s2.071-.536 2.967-.912c.896-.377 1.69-.826 2.358-1.361a7.35 7.35 0 001.69-1.932c.476-.774.888-1.701 1.202-2.671s.538-2.012.736-3.184c.198-1.172.375-2.49.566-4.054.19-1.564.396-3.372.543-4.29.147-.92.236-.949.309-.566.073.382.132 1.18.235 2.216.103 1.035.25 2.308.455 3.828s.47 3.286.793 4.712.705 2.51 1.036 3.264c.33.752.61 1.172.977 1.592s.822.84 1.234 1.158c.411.318.778.535 1.33.803.55.268 1.284.586 2.2.883.917.296 2.022.572 2.911.731s1.565.203 1.902.282c.338.08.338.166.162.239-.177.073-.529.116-1.315.275-.786.16-2.005.434-2.989.738s-1.733.637-2.49 1.043c-.757.405-1.52.882-2.181 1.512s-1.22 1.411-1.601 2.034a7.734 7.734 0 00-.809 1.737 28.16 28.16 0 00-.653 2.315c-.199.826-.36 1.636-.492 2.54a61.672 61.672 0 00-.323 2.802 74.368 74.368 0 00-.213 2.49c-.052.795-.081 1.591-.17 1.99-.087.397-.234.397-.322.18s-.118-.651-.199-1.548a152.27 152.27 0 00-.345-3.41 37.472 37.472 0 00-.501-3.277c-.237-1.187-.572-2.592-.895-3.605-.323-1.013-.631-1.62-.91-2.12s-.53-.89-.911-1.346a9.704 9.704 0 00-1.44-1.397 8.692 8.692 0 00-1.703-1.008c-.586-.27-1.161-.483-1.756-.7s-1.197-.434-1.8-.602-1.175-.28-1.674-.353c-.5-.073-.91-.102-1.11-.174-.198-.073-.183-.188-.175-.246.007-.058.007-.058.58-.138zM64.139 95.88c.154-.029.463-.087.705-.138a6.08 6.08 0 00.668-.173c.25-.08.574-.196.842-.43.268-.233.495-.605.65-.902.154-.297.242-.529.323-.868.08-.34.154-.79.227-1.274.074-.485.147-1.006.199-1.419.05-.412.08-.716.132-.854.051-.137.125-.108.161.145.037.252.037.73.088 1.324.052.594.155 1.303.241 1.817.087.515.163.861.296 1.144s.323.513.574.72.586.401.895.546c.308.145.602.246.874.305.271.058.492.072.61.122s.117.137-.008.203c-.125.065-.374.108-.683.183-.308.074-.646.171-.918.287s-.463.246-.698.5-.514.629-.698 1.114c-.183.485-.272 1.078-.338 1.607-.066.528-.11.99-.154 1.396-.044.406-.088.753-.147.927-.058.174-.132.174-.176.065-.044-.11-.059-.326-.08-.673-.023-.347-.052-.825-.111-1.332a10.444 10.444 0 00-.272-1.498c-.125-.456-.286-.832-.525-1.16a3.465 3.465 0 00-.834-.801 2.989 2.989 0 00-.837-.413 3.28 3.28 0 00-.712-.123c-.199-.014-.345-.014-.411-.065-.067-.051-.052-.152-.045-.202.008-.05.008-.05.162-.08z"/>
    </g>
    <path d="M57.925 124.44a68.045 68.045 0 00-.125-1.375c-.059-.572-.132-1.18-.251-1.794s-.278-1.21-.483-1.723c-.206-.514-.456-.934-.793-1.274-.338-.34-.764-.6-1.205-.796s-.896-.326-1.285-.413c-.39-.087-.713-.13-.918-.159-.206-.029-.294-.043-.338-.102-.045-.058-.045-.159-.03-.231.015-.072.045-.116.19-.123.146-.007.413.022.706.006.294-.016.588-.071.926-.173.337-.101.705-.246 1.043-.42s.646-.376.874-.593.374-.449.524-.693c.15-.244.291-.48.386-.733.096-.253.14-.514.235-.948.096-.434.243-1.042.331-1.78.088-.738.117-1.607.176-2.041.06-.434.147-.434.22-.434.074 0 .133 0 .155.158.022.159.007.478.015.993.007.514.036 1.222.146 1.946.11.724.301 1.462.5 2.02.198.557.404.933.646 1.23.243.297.522.514.838.695.315.18.668.325 1.006.448.338.123.66.225 1.028.275.367.051.779.051.97.109.19.058.161.173.11.246-.052.072-.125.101-.243.123a5.204 5.204 0 01-.448.05c-.169.015-.345.03-.52.069a4.493 4.493 0 00-.567.178c-.242.087-.565.203-.903.391-.338.188-.69.449-.955.68-.264.232-.44.434-.565.63a2.788 2.788 0 00-.27.58 8.834 8.834 0 00-.224.7c-.075.275-.145.58-.219 1-.073.42-.147.94-.213 1.44s-.125.977-.168 1.324c-.043.348-.074.593-.118.702-.044.109-.103.094-.132.087-.03-.007-.03-.007-.052-.275z" stroke-width="1.323"/>
    <path d="M40.498 122.73c.121-.028.364-.083.593-.15.228-.066.442-.144.595-.23.152-.085.242-.177.319-.241.076-.064.138-.101.2-.18a1.62 1.62 0 00.185-.324c.052-.117.09-.227.145-.453.055-.225.126-.566.167-.835.04-.269.05-.467.066-.662s.04-.389.055-.543.02-.269.031-.322c.012-.053.031-.044.05.048s.038.267.064.483.06.474.096.757c.035.283.073.591.126.849.052.257.119.464.215.652.096.187.218.35.354.486.135.136.283.242.456.325.173.083.365.142.562.19.198.049.398.086.504.11.105.024.122.04.122.056s-.014.034-.05.05c-.036.017-.093.03-.195.052-.102.021-.24.048-.39.089s-.307.097-.457.166a1.71 1.71 0 00-.426.269 2.069 2.069 0 00-.56.832 3.224 3.224 0 00-.138.47c-.035.167-.06.347-.085.533-.027.186-.055.38-.076.577-.022.198-.036.4-.053.557s-.036.267-.062.322c-.026.055-.06.055-.078-.042s-.024-.298-.039-.556a10.27 10.27 0 00-.078-.849 5.02 5.02 0 00-.169-.768c-.071-.232-.157-.444-.26-.628s-.22-.34-.361-.457a1.97 1.97 0 00-.44-.26 2.606 2.606 0 00-.395-.157 4.314 4.314 0 00-.434-.094c-.119-.02-.185-.03-.223-.044-.038-.014-.048-.032-.053-.041-.004-.01-.004-.01.117-.037z" stroke-width=".794"/>
    <g stroke-width="1.323">
      <path d="M123.35 76.76a.863.863 0 01.389-.188c.234-.058.603-.087.918-.174s.58-.231.779-.383c.198-.152.33-.312.47-.464s.287-.296.411-.55c.125-.252.228-.615.309-1.136.08-.52.14-1.201.19-1.787s.096-1.079.15-1.343c.053-.265.137-.315.189-.257.05.058.08.217.095.463.015.247.015.58.044.985s.088.882.184 1.396c.095.514.227 1.064.398 1.495.172.43.373.727.593.959s.456.39.742.5c.286.108.624.166.91.21.287.043.522.072.64.151s.117.21.022.29c-.096.08-.287.108-.507.159-.22.05-.47.123-.694.219a2.466 2.466 0 00-.658.418c-.25.21-.558.513-.793.933-.235.42-.396.955-.507 1.476a14.71 14.71 0 00-.22 1.513c-.051.485-.095.948-.161 1.165-.066.218-.155.189-.228-.138-.074-.326-.132-.947-.206-1.548-.073-.6-.161-1.18-.294-1.657-.132-.478-.308-.854-.58-1.194a3.424 3.424 0 00-1.013-.847c-.375-.203-.757-.304-1.029-.39-.271-.088-.433-.16-.514-.196-.08-.036-.08-.036-.03-.08zM4.689 108.61c.12-.041.358-.123.738-.199.38-.076.918-.149 1.453-.297a8.687 8.687 0 001.498-.585c.423-.212.72-.403 1.021-.705s.603-.712.831-1.146a6.52 6.52 0 00.499-1.316c.114-.42.187-.798.27-1.36.083-.563.176-1.311.244-1.858.067-.548.109-.896.16-1.295.053-.4.115-.85.146-1.136.031-.287.031-.41.073-.43.041-.02.124.062.166.317.042.256.042.686.088 1.25.047.562.14 1.258.27 2.077s.296 1.76.514 2.523c.219.762.489 1.346.808 1.809s.678.796 1.197 1.097 1.195.569 1.787.743c.592.174 1.1.255 1.464.313.364.057.561.086.66.137.099.05.088.122.047.179-.042.056-.114.097-.27.133-.157.036-.395.067-.728.132a8.453 8.453 0 00-2.84 1.107c-.483.302-.878.64-1.2 1.06-.322.419-.571.92-.769 1.519-.197.599-.342 1.294-.451 1.975-.11.681-.182 1.346-.291 2.083-.11.737-.255 1.545-.353 1.95-.099.404-.15.404-.219-.007-.068-.412-.15-1.227-.218-2.01-.067-.782-.12-1.53-.22-2.194a8.629 8.629 0 00-.442-1.767 6.618 6.618 0 00-.735-1.442c-.27-.384-.55-.64-.87-.871s-.667-.434-1.088-.622a13.134 13.134 0 00-1.356-.498 10.447 10.447 0 00-1.09-.287c-.312-.061-.581-.092-.727-.143-.146-.052-.166-.123-.177-.159-.01-.035-.01-.036.11-.077zM21.194 90.4a.728.728 0 01.28-.164c.14-.04.328-.04.556-.082a3.83 3.83 0 00.769-.235c.27-.113.54-.256.79-.46.248-.205.477-.472.659-.82s.317-.778.415-1.228c.099-.45.161-.921.192-1.463s.031-1.157.115-1.459c.083-.301.249-.29.316-.143.068.149.037.435.032.763-.006.328.015.696.057 1.12s.103.907.223 1.362c.12.456.296.885.48 1.22s.366.566.595.745.499.302.769.4c.27.097.54.168.794.22.255.05.494.081.613.113.12.03.12.06.114.102a.182.182 0 01-.078.138c-.062.046-.176.087-.394.153-.219.067-.54.159-.763.23a1.978 1.978 0 00-.588.282c-.239.16-.591.425-.846.706-.254.282-.41.578-.52.911-.109.333-.17.701-.223 1.065-.052.363-.093.721-.135 1.049-.041.327-.083.624-.11.895-.025.272-.035.497-.092.635s-.161.179-.226.182c-.066.003-.102-.044-.112-.157-.01-.112 0-.296 0-.65 0-.352-.01-.875-.057-1.376a8.567 8.567 0 00-.234-1.372c-.104-.388-.228-.685-.379-.941s-.327-.47-.524-.645c-.198-.174-.416-.307-.686-.435s-.592-.25-.867-.332c-.276-.08-.525-.123-.68-.164a1.014 1.014 0 01-.265-.103c-.037-.02-.037-.02.01-.062zM66.611 35.22c-.062-.47-.187-1.413-.301-2.405s-.218-2.037-.436-3.153c-.219-1.115-.551-2.303-.925-3.295s-.79-1.791-1.246-2.354c-.457-.563-.956-.89-1.6-1.208-.644-.317-1.433-.624-2.244-.878s-1.682-.463-2.253-.616-.863-.256-.655-.348c.208-.092.914-.174 1.652-.297.737-.123 1.506-.287 2.223-.553a8.142 8.142 0 001.942-1.044c.56-.41 1.018-.86 1.433-1.453s.79-1.33 1.07-2.303.468-2.18.654-3.582.374-3 .501-3.94c.127-.941.185-1.188.227-1.27.041-.082.062.02.083.41.02.39.041 1.064.135 1.883.093.819.26 1.78.47 2.886s.454 2.313.755 3.378c.302 1.064.655 1.965 1.102 2.65.446.686.986 1.157 1.672 1.546.686.389 1.517.696 2.41.952.893.256 1.849.46 2.43.583.582.123.79.164.831.215.042.051-.083.113-.457.207-.374.095-.955.213-1.693.418a18.9 18.9 0 00-2.295.788c-.686.297-1.184.604-1.662 1.003-.478.4-.935.89-1.247 1.34-.311.45-.477.86-.706 1.413-.229.553-.52 1.248-.706 2.037-.187.788-.27 1.668-.374 2.548-.104.88-.229 1.76-.353 2.58-.125.818-.25 1.576-.312 1.954-.062.38-.062.379-.125-.092zM20.814 38.64a17.548 17.548 0 01-.239-1.361c-.083-.624-.145-1.382-.25-2.14a13.662 13.662 0 00-.487-2.272c-.24-.757-.572-1.514-1.003-2.094a4.386 4.386 0 00-1.521-1.273c-.54-.276-1.08-.42-1.652-.542-.571-.123-1.173-.225-1.496-.328-.322-.102-.363-.205-.3-.286.061-.082.228-.144.57-.195.342-.051.863-.092 1.392-.184.53-.093 1.07-.236 1.527-.42s.831-.41 1.143-.655c.311-.246.56-.512.779-.931s.405-.994.571-1.628c.166-.634.312-1.33.425-1.986.112-.655.198-1.31.3-1.945.102-.634.23-1.31.314-1.709.083-.399.124-.542.207.173.083.715.208 2.294.364 3.4.156 1.105.343 1.74.582 2.354s.53 1.207.903 1.668.831.788 1.32 1.034c.488.245 1.007.41 1.516.511.509.103 1.008.144 1.34.205.332.061.498.143.592.236.093.092.114.194.04.273-.073.079-.279.146-.518.198-.239.05-.53.092-.872.174a9.932 9.932 0 00-1.122.348 8.345 8.345 0 00-1.111.501c-.354.195-.686.42-.998.676-.311.256-.602.542-.82 1.003-.219.46-.364 1.095-.51 1.75s-.29 1.33-.404 1.975c-.115.645-.198 1.259-.28 1.873l-.209 1.535c-.041.307-.041.307-.093.062zM81.018 63.38c-.052-.44-.156-1.32-.239-2.2-.083-.88-.145-1.761-.322-2.641s-.467-1.76-.769-2.395-.612-1.024-.997-1.351c-.384-.328-.841-.594-1.36-.83-.52-.235-1.101-.44-1.61-.613-.51-.174-.945-.317-.873-.41.073-.092.655-.133 1.195-.235a6.742 6.742 0 001.433-.44c.395-.174.686-.359.997-.645a5.03 5.03 0 00.945-1.198 7.66 7.66 0 00.77-1.965c.196-.788.321-1.71.446-2.62.124-.91.249-1.812.344-2.425.096-.614.154-.902.227-.564.073.337.156 1.32.25 2.19s.197 1.628.332 2.344c.135.717.3 1.392.498 1.996.198.604.426 1.136.754 1.553.327.416.773.73 1.315 1.003.541.273 1.224.525 1.723.679s.83.215 1.1.256c.27.04.479.06.551.132.073.072.01.195-.218.287-.23.092-.623.154-1.05.277a9.159 9.159 0 00-1.297.501c-.416.194-.79.4-1.133.645-.343.246-.654.532-.903.829s-.437.603-.613 1.003c-.177.4-.343.89-.489 1.566-.145.676-.27 1.535-.425 2.518-.156.982-.343 2.087-.437 2.64-.093.553-.093.553-.145.113z"/>
    </g>
  </g>
</svg>
