<svg width="50" height="50" viewBox="0 0 13.229 13.229" xmlns="http://www.w3.org/2000/svg">
  <path d="M10.652 11.85c.531-.145.88-.611.88-1.175 0-.571-.35-1.032-.891-1.176-.136-.036-.545-.041-3.135-.041H4.528l-.156-.562-.168-.609c-.012-.045.162-.047 3.399-.047h3.412l.112-.413c.062-.227.201-.729.31-1.116.577-2.071.998-3.59.998-3.6 0-.007-2.175-.012-4.834-.012H2.766l-.04-.128c-.023-.071-.09-.312-.152-.535-.121-.447-.169-.56-.281-.668-.147-.142-.225-.157-.818-.157H.929l-.086.079c-.08.073-.087.092-.087.243 0 .143.01.173.073.239.073.073.081.075.466.089.422.015.488.035.62.18.1.108.138.198.231.536l.467 1.678a538.878 538.878 0 01.574 2.07l.28 1.001c.295 1.064.49 1.761.506 1.815.008.029-.035.075-.13.142-.177.125-.29.265-.398.499-.08.172-.085.2-.085.493 0 .302.003.318.096.516a1.18 1.18 0 001.923.34c.325-.33.438-.888.265-1.309a.941.941 0 01-.038-.105c0-.006.825-.01 1.833-.01 1.009 0 1.834.004 1.834.01a.892.892 0 01-.038.104c-.075.18-.103.44-.07.637.118.714.812 1.177 1.487.992zm-.62-.707c-.424-.304-.25-.987.263-1.03a.54.54 0 01.538.286c.058.1.065.14.057.3-.014.237-.1.376-.298.478a.535.535 0 01-.56-.034zm-5.75.03a.547.547 0 01-.293-.604.55.55 0 011.031-.163.581.581 0 01-.143.716.528.528 0 01-.595.051zM9.396 7.49c.007-.056.036-.247.064-.426.028-.179.07-.477.092-.663s.047-.353.053-.372c.009-.026.18-.034.73-.034.395 0 .718.004.718.01 0 .005-.048.178-.107.384a60.418 60.418 0 00-.282 1.014 1.528 1.528 0 01-.053.169c-.007.011-.286.02-.62.02h-.608zm-1.817-.642c-.003-.402 0-.758.007-.792l.014-.06h1.434v.06a28.566 28.566 0 01-.2 1.435l-.015.102-.617-.007-.617-.007zm-1.788.723c0-.019-.014-.114-.077-.575a74.798 74.798 0 00-.081-.568c-.03-.2-.054-.38-.054-.399 0-.026.164-.034.73-.034h.732v1.597h-.625c-.343 0-.625-.01-.625-.02zm-1.822-.135a36.994 36.994 0 00-.093-.318c-.1-.332-.29-1.043-.29-1.082 0-.035.096-.04.716-.04h.715l.018.155c.01.085.035.271.055.412.069.467.143.988.143 1.008 0 .012-.274.02-.61.02h-.609zm5.739-2.178c.008-.048.058-.397.11-.775s.1-.698.109-.71c.021-.036 1.738-.03 1.738.006 0 .022-.337 1.256-.415 1.52-.013.043-.074.047-.786.047h-.772zm-2.122-.71v-.785l.883-.007c.75-.006.884 0 .884.031 0 .043-.143 1.086-.19 1.377l-.028.183-.775-.007-.774-.007zM5.38 4.62a55.83 55.83 0 00-.114-.798l-.014-.075.887.007.887.007.007.791.008.792h-1.56zm-2.206-.027c-.114-.413-.214-.772-.22-.798-.012-.044.042-.047.866-.047H4.7l.014.087c.032.207.201 1.444.201 1.475 0 .026-.171.034-.766.034h-.766z"/>
</svg>
