<svg xmlns="http://www.w3.org/2000/svg" id="svg845" viewBox="0 0 50.006 50.006" version="1.1" height="189" width="189">
  <path id="path833" stroke-width=".794" d="M20.737 48.765c-.497-.363-.516-.883-.586-16.044-.082-17.693-.177-16.822 1.854-16.968l1.129-.082.146-7.805h1.574V5.192c0-2.638-.008-2.673-.596-2.537-.327.076-1.875.285-3.44.464l-2.844.326v1.02c0 .844-.091 1.02-.529 1.02-.458 0-.529-.176-.529-1.307 0-.72.11-1.375.244-1.458.757-.468 8.456-1.213 11.83-1.145l3.668.073.15 6.185 1.438.165.146 7.806h1.01c1.992 0 1.886-.933 1.886 16.623 0 15.303-.012 15.668-.529 16.185-.504.504-.882.529-8.019.529-6.05 0-7.589-.072-8.004-.376zm15.43-16.359l-.068-15.676-6.88-.074c-3.783-.041-7.146-.01-7.474.07l-.595.146v15.43c0 8.485.08 15.507.176 15.604.097.097 3.492.177 7.543.177h7.366zm-2.979-20.174v-3.44l-8.863-.145v7.17l8.863-.145zm-1.455-7.011V2.575h-5.82v5.291h5.82z" stroke="#000" stroke-opacity="1" stroke-miterlimit="4" stroke-dasharray="none" stroke-linejoin="round" stroke-linecap="round"/>
  <g id="g843" stroke="#000" stroke-width="1.058" stroke-miterlimit="4" stroke-dasharray="none" stroke-linecap="round" stroke-linejoin="round">
    <path id="path835" fill="none" d="M36.718 29.288l-16.108-.054z"/>
    <path id="path837" fill="none" d="M20.61 37.315h16.217z"/>
    <path id="path839" d="M17.221 13.194c-.828-.133-1.482-.708-1.689-1.484-.148-.556-.03-1.045.489-2.038.45-.86 1.353-2.281 1.472-2.317.092-.028.138.012.33.293.884 1.284 1.54 2.49 1.726 3.171.293 1.078-.505 2.196-1.695 2.375-.18.027-.464.027-.633 0zm.886-.306c.699-.228 1.175-.803 1.25-1.51.053-.49-.324-1.365-1.168-2.707-.35-.557-.622-.96-.647-.96-.04 0-.737 1.089-1.065 1.664-.347.608-.596 1.147-.705 1.525-.056.194-.056.554 0 .756.176.626.666 1.094 1.325 1.266.26.067.749.051 1.01-.034z"/>
    <path id="path841" d="M28.472 35.385c-.635-.097-1.137-.52-1.295-1.089-.113-.408-.023-.767.375-1.496.345-.631 1.037-1.674 1.129-1.7.07-.021.105.008.253.214.678.943 1.18 1.828 1.323 2.328.225.791-.387 1.612-1.3 1.743-.137.02-.355.02-.485 0zm.68-.225c.535-.167.9-.589.959-1.108.04-.36-.25-1.002-.897-1.987-.268-.409-.476-.705-.496-.705-.03 0-.565.8-.817 1.222-.266.446-.457.842-.54 1.12a1.205 1.205 0 000 .554c.135.46.51.803 1.016.93.2.049.574.037.774-.026z"/>
  </g>
</svg>
