<svg width="189" height="189" viewBox="0 0 50.006 50.006" xmlns="http://www.w3.org/2000/svg">
  <path d="M42.271 44.824c-.278-.14-4.608-4.195-4.826-4.52a.662.662 0 01-.049-.713c.084-.171.079-.183-.218-.46-.22-.205-.305-.332-.305-.451 0-.436.372-.486.761-.103.144.141.286.255.315.252.03-.002.237-.231.461-.509l.408-.504-.407-.391c-.223-.216-.425-.392-.447-.392-.022 0-.154.145-.293.322-.576.734-1.734 1.542-2.725 1.902-1.293.47-2.897.47-4.183.003-4.015-1.459-5.669-6.605-3.337-10.383.655-1.06 1.53-1.876 2.594-2.42 2.542-1.299 5.466-.77 7.44 1.345.82.88 1.381 1.923 1.694 3.155.145.57.164.759.168 1.702.004.901-.016 1.149-.132 1.64-.075.317-.177.643-.226.723-.114.186-.39.194-.541.015-.109-.128-.108-.146.03-.692.205-.819.237-2.078.074-2.92-.226-1.162-.68-2.088-1.452-2.96-1.16-1.308-2.515-1.936-4.195-1.943-1.57-.008-2.866.53-3.98 1.649-1.152 1.16-1.751 2.552-1.819 4.231-.053 1.312.221 2.47.836 3.536 1.907 3.307 6.221 3.934 8.868 1.289.265-.265.588-.634.717-.82.324-.468.42-.457 1.035.128.816.776.745.727.871.606a.598.598 0 01.666-.09c.1.054 1.211 1.071 2.47 2.262 2.056 1.946 2.302 2.2 2.422 2.498.38.943-.25 2.368-1.284 2.906-.468.244-1.05.288-1.41.108zm1.053-.75c.3-.133.713-.57.892-.944.159-.33.195-.835.08-1.093-.055-.12-4.034-3.945-4.384-4.213-.088-.068-.197.037-.832.804-.401.485-.802.974-.891 1.087l-.161.206 2.127 2.016c1.17 1.109 2.194 2.065 2.276 2.126.186.137.596.142.893.01zm-21.836-1.226c-.927-.22-1.573-.62-3.328-2.062-1.909-1.566-4.036-3.707-5.104-5.136-1.022-1.368-1.778-2.72-2.169-3.88-.176-.522-.502-1.878-.694-2.88-.278-1.453-.607-3.97-.61-4.658 0-.16-.02-.322-.045-.362-.064-.106-1.426 1.46-1.712 1.969a5.9 5.9 0 00-.396.933c-.147.466-.163.608-.164 1.48-.003.894.01 1.007.171 1.532.194.63.44 1.072 1.05 1.875.492.649.7 1.04.824 1.549.118.484.117.97-.003 1.464-.19.783-.46 1.14-.769 1.014-.242-.098-.26-.324-.06-.757.153-.334.17-.44.17-1.016 0-.78-.083-.983-.78-1.893-.76-.994-1.088-1.702-1.272-2.738-.197-1.117-.018-2.506.45-3.493.661-1.337 1.53-1.793 2.296-3.054.13-.22.282-.45.337-.51.055-.06.285-.64.513-1.287.765-2.18 1.765-4.117 2.955-5.723.632-.853 2.364-2.695 3.217-3.422 1.036-.883 2.1-1.54 3.495-2.16.62-.275.75-.302.939-.194.12.068.157.344.068.494-.025.043-.316.197-.647.344-.914.405-2.045 1.038-2.66 1.489-1.601 1.17-3.561 3.314-4.71 5.151-.924 1.475-1.455 2.662-2.278 5.088-.374 1.102-.381 1.189-.234 2.844.227 2.538.848 5.8 1.339 7.038 1.08 2.722 3.594 5.671 7.46 8.753.564.45 1.201.92 1.417 1.045a3.595 3.595 0 001.87.494c.694 0 1.136-.111 1.776-.447.476-.25 1.959-1.397 3.143-2.432.666-.58.85-.648 1.02-.373.057.093.08.212.057.29-.082.277-3.048 2.717-3.828 3.149-.714.395-1.193.53-1.989.558-.483.017-.82-.006-1.115-.076zm-.215-5.484c-.4-.14-1.248-.799-1.298-1.009-.047-.198.068-.405.25-.454.122-.033.238.03.59.317.24.197.512.388.604.425.093.038.6.068 1.143.067 1.11-.002 1.206-.03 1.811-.538.195-.163.385-.297.424-.297.159 0 .337.205.337.387 0 .151-.072.252-.376.522-.207.184-.526.41-.708.5-.312.157-.394.168-1.387.182-.884.013-1.109-.004-1.39-.102zm11.295-1.593c-.092-.15-.094-.186-.014-.338.077-.146.153-.18.569-.253.629-.11 1.038-.316 1.446-.727.426-.43.674-.96.748-1.6.044-.372.087-.508.188-.596.16-.139.233-.141.405-.013.109.081.134.162.134.425 0 1.678-1.488 3.27-3.055 3.27-.276 0-.33-.022-.42-.168zm-11.08-.44c-1.033-.173-2.15-.606-2.227-.862-.05-.167.027-.32.422-.845.424-.564.61-.742.932-.891.44-.205.81-.226 1.35-.077.576.159.675.161 1.107.027.229-.071.474-.095.77-.074.631.043.965.26 1.518.988.618.813.599.972-.148 1.27-1.283.513-2.517.667-3.724.464zm2.71-.896c.329-.092.621-.191.649-.22.065-.07-.271-.523-.505-.68-.31-.211-.645-.24-1.173-.102-.59.155-.623.155-1.172 0-.558-.159-.803-.16-1.115-.01-.248.12-.708.625-.672.739.027.086.394.215 1.037.364.789.183 2.112.142 2.95-.091zm8.335-.173a1.77 1.77 0 01-1.22-1.11c-.159-.446-.103-1.106.129-1.505.71-1.225 2.375-1.11 2.918.2a1.84 1.84 0 01-.398 1.965c-.412.406-.945.573-1.43.45zm.718-.808c.487-.247.68-.86.432-1.373-.45-.93-1.76-.595-1.76.45 0 .403.171.703.504.884.318.171.541.182.824.039zm-3.475-.667c-.146-.155-.154-.45-.03-1.013.274-1.24 1.233-2.264 2.395-2.556.529-.133.804-.124.95.032.14.15.154.313.038.481-.06.088-.199.134-.518.17-1.186.135-2.077 1.083-2.228 2.373-.058.49-.147.642-.377.642-.06 0-.164-.058-.23-.129zm-7.866-2.552c-.286-.068-.612-.238-1.028-.538-.631-.455-.773-.817-.417-1.066.173-.12.347-.073.47.127.05.08.274.275.5.432l.41.285H23l.41-.285c.225-.157.45-.351.5-.432.122-.2.297-.247.469-.127.377.264.216.62-.513 1.13-.341.24-.649.403-.843.448-.3.068-.877.082-1.114.026zm-7.441-5.822c-.197-.226-.146-.423.215-.827l.204-.227-.302-.241a2.668 2.668 0 00-.456-.303c-.274-.111-.64-.07-.971.108-.3.162-.322.165-.468.062-.357-.25-.09-.712.524-.906.6-.19 1.137-.076 1.676.356.445.357.791.537 1.293.67.61.163 1.118.102 2.4-.286 1.126-.341 1.227-.346 1.366-.07.04.08.042.18.004.285-.061.173-.124.198-1.545.616-1.086.32-1.687.358-2.534.162-.231-.053-.587.111-.734.339-.282.437-.459.506-.672.262zm15.413.071a.747.747 0 01-.2-.26c-.06-.124-.195-.243-.367-.324-.243-.115-.303-.12-.583-.048-.554.142-1.324.095-2.125-.131-1.732-.489-1.894-.572-1.81-.931.073-.309.253-.309 1.274-.002.521.157 1.124.318 1.34.358.79.147 1.622-.073 2.337-.618.703-.535 1.216-.66 1.82-.444.677.242.89.673.454.918-.113.064-.18.05-.421-.087a1.15 1.15 0 00-.577-.162c-.323 0-.422.043-.845.37l-.29.226.177.2c.344.387.411.73.18.905-.156.115-.219.12-.364.03zm4.839-.057c-.11-.117-.116-.187-.082-.952l.037-.826-.288-.768c-1.175-3.131-2.738-5.745-4.672-7.814-1.588-1.699-3.198-2.884-6.696-4.93-.925-.54-1.407-.859-1.438-.948a.345.345 0 01.206-.455c.185-.07.189-.069 2.214 1.133 2.933 1.74 4.498 2.9 5.977 4.43 2.101 2.172 3.796 4.96 5.072 8.345l.345.915-.044.877c-.036.734-.062.896-.158.998-.146.157-.324.155-.473-.005zm-15.477-5.121c-.963-.982-2.3-1.31-4.563-1.121l-.96.08-.11-.143c-.136-.18-.137-.272-.003-.445.143-.185.838-.277 2.125-.28 1.14-.001 1.88.112 2.56.394.784.325 1.659 1.043 1.659 1.362 0 .163-.208.383-.362.383-.066 0-.222-.104-.346-.23zm4.867.102c-.202-.216-.15-.385.237-.779.41-.416 1.247-.886 1.872-1.05.746-.197 1.833-.263 2.9-.177.534.043 1.022.108 1.084.143.154.088.25.298.205.45-.071.238-.23.268-.98.186-.844-.093-2.336-.044-2.937.097-.583.135-1.333.545-1.717.935-.346.352-.48.391-.664.195z" stroke="#000" stroke-width=".529"/>
</svg>
