<svg xmlns="http://www.w3.org/2000/svg" id="svg835" viewBox="0 0 50.006 50.006" version="1.1" height="189" width="189">
  <path id="path833" stroke-width=".794" d="M20.737 48.765c-.497-.363-.516-.883-.586-16.044-.082-17.693-.177-16.822 1.854-16.968l1.129-.082.146-7.805h1.574V5.192c0-2.638-.008-2.673-.596-2.537-.327.076-1.875.285-3.44.464l-2.844.326v1.02c0 .844-.091 1.02-.529 1.02-.458 0-.529-.176-.529-1.307 0-.72.11-1.375.244-1.458.757-.468 8.456-1.213 11.83-1.145l3.668.073.15 6.185 1.438.165.146 7.806h1.01c1.992 0 1.886-.933 1.886 16.623 0 15.303-.012 15.668-.529 16.185-.504.504-.882.529-8.019.529-6.05 0-7.589-.072-8.004-.376zm15.43-16.359l-.068-15.676-6.88-.074c-3.783-.041-7.146-.01-7.474.07l-.595.146v15.43c0 8.485.08 15.507.176 15.604.097.097 3.492.177 7.543.177h7.366zm-2.979-20.174v-3.44l-8.863-.145v7.17l8.863-.145zm-1.455-7.011V2.575h-5.82v5.291h5.82z" stroke="#000" stroke-opacity="1" stroke-miterlimit="4" stroke-dasharray="none" stroke-linejoin="round" stroke-linecap="round"/>
</svg>
