<svg width="189" height="189" viewBox="0 0 50.006 50.006" xmlns="http://www.w3.org/2000/svg">
  <path d="M19.284 38.721c-1.675-.22-3.21-1.08-4.574-2.56-.577-.624-1.41-1.896-1.833-2.797l-.139-.295.095-.214a13.8 13.8 0 01.843-1.52c1.372-2.106 3.117-3.406 5.16-3.847.356-.077.538-.09 1.213-.09.678 0 .854.013 1.212.09 1.94.423 3.573 1.584 4.913 3.492.383.545.681 1.043.95 1.586.258.52.252.467.095.802-.406.864-1.207 2.097-1.773 2.73-1.358 1.516-2.942 2.404-4.69 2.628a7.502 7.502 0 01-1.472-.005zm1.92-1.52a7.77 7.77 0 001.459-.53 9.312 9.312 0 001.412-.976c.64-.569 1.44-1.562 1.875-2.331l.166-.295-.114-.214c-.147-.272-.51-.823-.788-1.192-.819-1.09-1.939-1.987-3.047-2.44-.698-.285-1.32-.404-2.118-.404-.799 0-1.42.119-2.118.404-1.105.452-2.195 1.323-3.04 2.428a11.44 11.44 0 00-.794 1.201l-.115.217.166.295c.092.162.344.543.56.845 1.195 1.676 2.696 2.713 4.389 3.03.423.08 1.69.057 2.106-.038zm-1.67-1.366c-.662-.244-1.177-.921-1.41-1.85-.074-.3-.08-.374-.08-.916 0-.557.004-.61.088-.94.213-.84.667-1.475 1.268-1.773.212-.105.264-.114.649-.114.38 0 .438.01.637.109.325.161.563.374.806.72 1.092 1.555.565 4.223-.942 4.767a1.656 1.656 0 01-1.016-.003z"/>
  <path d="M8.418 41.731c-.924-.249-1.97-1.187-2.425-2.176-.48-1.042-.466-.73-.466-10.323 0-6.793.02-8.756.093-8.922.17-.388.525-.512 1.46-.512.465 0 .844-.018.844-.039s.051-.492.114-1.046c.57-5.06 1.954-8.243 4.51-10.379.51-.426.862-.586 1.147-.521.234.053.679.542.679.746 0 .062.139.358.309.659 1.52 2.692 4.487 4.408 8.69 5.028.35.051 1.397.129 2.325.171 1.804.083 2.152.155 2.937.606 1.262.725 2.374 2.41 2.744 4.155l.13.618h.884c1.062.001 1.357.108 1.52.55.164.45.16 17.132-.004 18.02-.273 1.464-1.12 2.618-2.368 3.221l-.406.196-11.211.014c-6.664.008-11.331-.019-11.505-.066zm22.802-1.972c.212-.128.505-.391.652-.587.515-.684.5-.473.5-7.095v-5.962H7.1v5.76c0 3.822.028 5.904.082 6.191.152.81.83 1.645 1.52 1.874.139.046 4.74.073 11.184.064l10.95-.014zm1.152-16.76v-1.324H7.1v1.267c0 .696.023 1.292.05 1.323.028.032 5.714.057 12.636.057h12.586zm-2.509-3.437c-.027-.13-.184-.553-.349-.943-.368-.87-1.024-1.668-1.665-2.022-.418-.231-.514-.246-2.24-.353-3.37-.21-5.422-.678-7.553-1.727-1.898-.935-3.633-2.461-4.533-3.988l-.321-.545-.383.382c-1.716 1.71-2.838 4.822-3.269 9.068l-.037.363h20.4zm6.461 22.044c-.183-.208-.203-.292-.208-.88-.003-.358-.008-6.288-.01-13.18-.004-14.053-.055-12.86.556-13.048.212-.066.968-.086 2.306-.063 1.83.031 2.03.05 2.47.226.9.361 1.505.92 1.986 1.834.515.976.497.563.497 11.66 0 6.964-.025 10.127-.083 10.443-.229 1.252-.962 2.306-1.994 2.867l-.585.318-4.732.053zm4.682-1.704c.46-.178.816-.533 1.08-1.077l.223-.457V17.96l-.203-.437c-.227-.49-.551-.837-.997-1.069-.26-.134-.512-.156-1.856-.157l-1.557-.002v23.737h1.487c1.137 0 1.566-.03 1.823-.13z"/>
</svg>
