<svg width="189" height="189" viewBox="0 0 50.006 50.006" xmlns="http://www.w3.org/2000/svg">
  <path d="M18.26 43.005c0-3.431-.06-4.147-.363-4.395-1.504-1.227-3-6.15-3.928-12.932-.667-4.867-1.531-16.786-1.533-21.132v-.973h26.328l-.127 2.691c-.654 13.945-1.403 21.041-2.797 26.495-.624 2.442-1.701 4.977-2.446 5.757-.398.417-.452.895-.51 4.467l-.063 4-14.561.121zm13.28 2.374c0-.274-.345-.344-1.703-.344-1.136 0-1.853-.111-2.155-.336-.627-.466-3.666-.478-4.056-.016-.195.231-.864.355-2.164.4-1.249.045-1.915.163-1.98.353-.075.224 1.224.287 5.981.287 5.247 0 6.077-.047 6.077-.344zm-8.27-1.947c.992-.646 3.935-.646 4.775 0 .435.334.953.45 2.039.453l1.456.005v-4.582H19.425v2.139c0 1.175.07 2.206.155 2.29.086.084.793.152 1.573.152 1.022-.002 1.612-.129 2.116-.457zm9.307-5.863c2.09-2.055 4.108-14.198 4.604-27.697l.067-1.833-1.34-.069c-1.247-.064-1.34-.107-1.34-.63 0-.533.07-.56 1.399-.56h1.397V4.716h-23.53V6.78h18.871v1.145h-18.87v.634c0 .349.105 2.282.235 4.296.833 12.945 2.362 21.867 4.177 24.374l.512.706h6.723c5.844 0 6.773-.048 7.096-.365zm-7.56-7.195c0-.824.058-.916.582-.916.524 0 .583.092.583.916s-.059.917-.583.917-.582-.092-.582-.917zm-5.366-1.497c-.248-.294-.189-.462.363-1.029.622-.638.685-.655 1.089-.296.414.369.407.404-.202 1.03-.728.746-.845.774-1.25.295zm10.485-.226c-.552-.578-.552-.58-.088-1.035.464-.456.465-.456 1.13.226.557.572.617.74.369 1.035-.42.496-.775.44-1.41-.226zm-5.51-.369c-3.164-.548-5.05-3.499-4.16-6.51.693-2.342 2.62-3.768 5.092-3.768 3.047 0 5.283 2.215 5.283 5.234 0 3.269-2.896 5.62-6.215 5.044zm3.31-1.907c.95-.713 1.727-2.156 1.734-3.225.008-1.008-.919-2.656-1.826-3.248-1.601-1.047-3.473-.958-4.848.229-2.306 1.99-1.805 5.455.972 6.724 1.109.507 2.95.284 3.969-.48zm-10.608-3.217c0-.515.093-.572.932-.572s.932.057.932.572c0 .516-.093.573-.932.573s-.932-.057-.932-.573zm14.444 0c0-.526.085-.572 1.048-.572.963 0 1.049.046 1.049.572 0 .526-.086.573-1.049.573s-1.048-.047-1.048-.573zM19.93 18.62c-.6-.627-.632-.914-.149-1.309.3-.244.47-.186 1.047.357.646.608.665.675.305 1.066-.493.535-.593.525-1.203-.114zm10.14.123c-.371-.403-.355-.462.308-1.086.66-.622.723-.638 1.098-.269.376.37.358.431-.308 1.086-.683.673-.719.681-1.098.269zm-5.055-2.8c0-.824.058-.916.582-.916.524 0 .583.092.583.917 0 .824-.059.916-.583.916s-.582-.092-.582-.916z"/>
</svg>
