<svg width="189" height="189" viewBox="0 0 50.006 50.006" xmlns="http://www.w3.org/2000/svg">
  <path d="M16.847 47.9c-1.354-.265-2.44-1.156-2.993-2.454l-.228-.533V14.676l.181-.451a4.083 4.083 0 012.675-2.434l.502-.15.002-2.894c0-3.2.03-3.444.492-4.238.348-.598 1.156-1.314 1.798-1.594 1.018-.445 1.078-.45 5.508-.426l4.012.022.544.19c1.42.496 2.392 1.504 2.694 2.797.092.39.117 1.108.118 3.32l.002 2.823.515.154c1.282.384 2.224 1.276 2.666 2.525l.177.498V44.77l-.175.498c-.485 1.384-1.738 2.421-3.217 2.663-.748.122-14.634.094-15.273-.031zm15.563-1.657c.609-.27 1.018-.669 1.25-1.22.149-.352.153-.726.153-15.228 0-14.32-.006-14.881-.147-15.216-.301-.714-.907-1.205-1.72-1.396-.686-.161-14.068-.161-14.754 0-.808.19-1.452.71-1.746 1.41-.112.267-.122 1.78-.103 15.309l.022 15.012.174.293c.377.635.897 1.022 1.603 1.194.372.09 1.468.104 7.587.092l7.152-.014zm-14.927-22.6c-.509-.199-.499-.108-.499-4.524v-3.994l.269-.242.268-.242h14.077l.516.415.022 4.026c.024 4.478.037 4.363-.498 4.564-.395.149-13.775.146-14.154-.003zm13.011-4.484v-3.024H18.643v6.047h11.851zm0-10.235c0-1.505-.035-2.824-.08-3.04-.201-.953-.94-1.646-1.958-1.837-.57-.106-7.205-.106-7.775 0-.787.148-1.479.652-1.83 1.336-.162.317-.17.44-.193 3.264l-.023 2.935h11.859z"/>
</svg>
